<?xml version="1.0" encoding="utf-8" standalone="no"?>
<!DOCTYPE svg PUBLIC "-//W3C//DTD SVG 1.1//EN"
  "http://www.w3.org/Graphics/SVG/1.1/DTD/svg11.dtd">
<!-- Created with matplotlib (http://matplotlib.org/) -->
<svg height="394pt" version="1.1" viewBox="0 0 520 394" width="520pt" xmlns="http://www.w3.org/2000/svg" xmlns:xlink="http://www.w3.org/1999/xlink">
 <defs>
  <style type="text/css">
*{stroke-linecap:butt;stroke-linejoin:round;}
  </style>
 </defs>
 <g id="figure_1">
  <g id="patch_1">
   <path d="M 0 394.7525 
L 520.802 394.7525 
L 520.802 -0 
L 0 -0 
z
" style="fill:#ffffff;"/>
  </g>
  <g id="axes_1">
   <g id="patch_2">
    <path d="M 406.59625 290.714375 
C 406.59625 241.223743 386.915204 193.709494 351.920042 158.714333 
C 316.924881 123.719171 269.410632 104.038125 219.92 104.038125 
C 170.429368 104.038125 122.915119 123.719171 87.919958 158.714333 
C 52.924796 193.709494 33.24375 241.223743 33.24375 290.714375 
L 219.92 290.714375 
C 219.92 290.714375 219.92 290.714375 219.92 290.714375 
C 219.92 290.714375 219.92 290.714375 219.92 290.714375 
C 219.92 290.714375 219.92 290.714375 219.92 290.714375 
C 219.92 290.714375 219.92 290.714375 219.92 290.714375 
L 406.59625 290.714375 
z
" style="fill:#ffffff;"/>
   </g>
   <g id="matplotlib.axis_1">
    <g id="xtick_1">
     <g id="line2d_1">
      <path clip-path="url(#pd808414e6d)" d="M 219.92 290.714375 
L 406.59625 290.714375 
" style="fill:none;stroke:#b0b0b0;stroke-linecap:square;stroke-width:0.8;"/>
     </g>
     <g id="text_1">
      <!-- 0° -->
      <defs>
       <path d="M 31.78125 66.40625 
Q 24.171875 66.40625 20.328125 58.90625 
Q 16.5 51.421875 16.5 36.375 
Q 16.5 21.390625 20.328125 13.890625 
Q 24.171875 6.390625 31.78125 6.390625 
Q 39.453125 6.390625 43.28125 13.890625 
Q 47.125 21.390625 47.125 36.375 
Q 47.125 51.421875 43.28125 58.90625 
Q 39.453125 66.40625 31.78125 66.40625 
z
M 31.78125 74.21875 
Q 44.046875 74.21875 50.515625 64.515625 
Q 56.984375 54.828125 56.984375 36.375 
Q 56.984375 17.96875 50.515625 8.265625 
Q 44.046875 -1.421875 31.78125 -1.421875 
Q 19.53125 -1.421875 13.0625 8.265625 
Q 6.59375 17.96875 6.59375 36.375 
Q 6.59375 54.828125 13.0625 64.515625 
Q 19.53125 74.21875 31.78125 74.21875 
z
" id="DejaVuSans-30"/>
       <path d="M 25 67.921875 
Q 21.09375 67.921875 18.40625 65.203125 
Q 15.71875 62.5 15.71875 58.59375 
Q 15.71875 54.734375 18.40625 52.078125 
Q 21.09375 49.421875 25 49.421875 
Q 28.90625 49.421875 31.59375 52.078125 
Q 34.28125 54.734375 34.28125 58.59375 
Q 34.28125 62.453125 31.5625 65.1875 
Q 28.859375 67.921875 25 67.921875 
z
M 25 74.21875 
Q 28.125 74.21875 31 73.015625 
Q 33.890625 71.828125 35.984375 69.578125 
Q 38.234375 67.390625 39.359375 64.59375 
Q 40.484375 61.8125 40.484375 58.59375 
Q 40.484375 52.15625 35.96875 47.6875 
Q 31.453125 43.21875 24.90625 43.21875 
Q 18.3125 43.21875 13.90625 47.609375 
Q 9.515625 52 9.515625 58.59375 
Q 9.515625 65.140625 14 69.671875 
Q 18.5 74.21875 25 74.21875 
z
" id="DejaVuSans-b0"/>
      </defs>
      <g transform="translate(414.915 293.47375)scale(0.1 -0.1)">
       <use xlink:href="#DejaVuSans-30"/>
       <use x="63.623047" xlink:href="#DejaVuSans-b0"/>
      </g>
     </g>
    </g>
    <g id="xtick_2">
     <g id="line2d_2">
      <path clip-path="url(#pd808414e6d)" d="M 219.92 290.714375 
L 400.235411 242.399006 
" style="fill:none;stroke:#b0b0b0;stroke-linecap:square;stroke-width:0.8;"/>
     </g>
     <g id="text_2">
      <!-- 15° -->
      <defs>
       <path d="M 12.40625 8.296875 
L 28.515625 8.296875 
L 28.515625 63.921875 
L 10.984375 60.40625 
L 10.984375 69.390625 
L 28.421875 72.90625 
L 38.28125 72.90625 
L 38.28125 8.296875 
L 54.390625 8.296875 
L 54.390625 0 
L 12.40625 0 
z
" id="DejaVuSans-31"/>
       <path d="M 10.796875 72.90625 
L 49.515625 72.90625 
L 49.515625 64.59375 
L 19.828125 64.59375 
L 19.828125 46.734375 
Q 21.96875 47.46875 24.109375 47.828125 
Q 26.265625 48.1875 28.421875 48.1875 
Q 40.625 48.1875 47.75 41.5 
Q 54.890625 34.8125 54.890625 23.390625 
Q 54.890625 11.625 47.5625 5.09375 
Q 40.234375 -1.421875 26.90625 -1.421875 
Q 22.3125 -1.421875 17.546875 -0.640625 
Q 12.796875 0.140625 7.71875 1.703125 
L 7.71875 11.625 
Q 12.109375 9.234375 16.796875 8.0625 
Q 21.484375 6.890625 26.703125 6.890625 
Q 35.15625 6.890625 40.078125 11.328125 
Q 45.015625 15.765625 45.015625 23.390625 
Q 45.015625 31 40.078125 35.4375 
Q 35.15625 39.890625 26.703125 39.890625 
Q 22.75 39.890625 18.8125 39.015625 
Q 14.890625 38.140625 10.796875 36.28125 
z
" id="DejaVuSans-35"/>
      </defs>
      <g transform="translate(404.895873 241.534915)scale(0.1 -0.1)">
       <use xlink:href="#DejaVuSans-31"/>
       <use x="63.623047" xlink:href="#DejaVuSans-35"/>
       <use x="127.246094" xlink:href="#DejaVuSans-b0"/>
      </g>
     </g>
    </g>
    <g id="xtick_3">
     <g id="line2d_3">
      <path clip-path="url(#pd808414e6d)" d="M 219.92 290.714375 
L 381.586375 197.37625 
" style="fill:none;stroke:#b0b0b0;stroke-linecap:square;stroke-width:0.8;"/>
     </g>
     <g id="text_3">
      <!-- 30° -->
      <defs>
       <path d="M 40.578125 39.3125 
Q 47.65625 37.796875 51.625 33 
Q 55.609375 28.21875 55.609375 21.1875 
Q 55.609375 10.40625 48.1875 4.484375 
Q 40.765625 -1.421875 27.09375 -1.421875 
Q 22.515625 -1.421875 17.65625 -0.515625 
Q 12.796875 0.390625 7.625 2.203125 
L 7.625 11.71875 
Q 11.71875 9.328125 16.59375 8.109375 
Q 21.484375 6.890625 26.8125 6.890625 
Q 36.078125 6.890625 40.9375 10.546875 
Q 45.796875 14.203125 45.796875 21.1875 
Q 45.796875 27.640625 41.28125 31.265625 
Q 36.765625 34.90625 28.71875 34.90625 
L 20.21875 34.90625 
L 20.21875 43.015625 
L 29.109375 43.015625 
Q 36.375 43.015625 40.234375 45.921875 
Q 44.09375 48.828125 44.09375 54.296875 
Q 44.09375 59.90625 40.109375 62.90625 
Q 36.140625 65.921875 28.71875 65.921875 
Q 24.65625 65.921875 20.015625 65.03125 
Q 15.375 64.15625 9.8125 62.3125 
L 9.8125 71.09375 
Q 15.4375 72.65625 20.34375 73.4375 
Q 25.25 74.21875 29.59375 74.21875 
Q 40.828125 74.21875 47.359375 69.109375 
Q 53.90625 64.015625 53.90625 55.328125 
Q 53.90625 49.265625 50.4375 45.09375 
Q 46.96875 40.921875 40.578125 39.3125 
z
" id="DejaVuSans-33"/>
      </defs>
      <g transform="translate(384.84823 193.135625)scale(0.1 -0.1)">
       <use xlink:href="#DejaVuSans-33"/>
       <use x="63.623047" xlink:href="#DejaVuSans-30"/>
       <use x="127.246094" xlink:href="#DejaVuSans-b0"/>
      </g>
     </g>
    </g>
    <g id="xtick_4">
     <g id="line2d_4">
      <path clip-path="url(#pd808414e6d)" d="M 219.92 290.714375 
L 351.920042 158.714333 
" style="fill:none;stroke:#b0b0b0;stroke-linecap:square;stroke-width:0.8;"/>
     </g>
     <g id="text_4">
      <!-- 45° -->
      <defs>
       <path d="M 37.796875 64.3125 
L 12.890625 25.390625 
L 37.796875 25.390625 
z
M 35.203125 72.90625 
L 47.609375 72.90625 
L 47.609375 25.390625 
L 58.015625 25.390625 
L 58.015625 17.1875 
L 47.609375 17.1875 
L 47.609375 0 
L 37.796875 0 
L 37.796875 17.1875 
L 4.890625 17.1875 
L 4.890625 26.703125 
z
" id="DejaVuSans-34"/>
      </defs>
      <g transform="translate(352.957037 151.574213)scale(0.1 -0.1)">
       <use xlink:href="#DejaVuSans-34"/>
       <use x="63.623047" xlink:href="#DejaVuSans-35"/>
       <use x="127.246094" xlink:href="#DejaVuSans-b0"/>
      </g>
     </g>
    </g>
    <g id="xtick_5">
     <g id="line2d_5">
      <path clip-path="url(#pd808414e6d)" d="M 219.92 290.714375 
L 313.258125 129.048 
" style="fill:none;stroke:#b0b0b0;stroke-linecap:square;stroke-width:0.8;"/>
     </g>
     <g id="text_5">
      <!-- 60° -->
      <defs>
       <path d="M 33.015625 40.375 
Q 26.375 40.375 22.484375 35.828125 
Q 18.609375 31.296875 18.609375 23.390625 
Q 18.609375 15.53125 22.484375 10.953125 
Q 26.375 6.390625 33.015625 6.390625 
Q 39.65625 6.390625 43.53125 10.953125 
Q 47.40625 15.53125 47.40625 23.390625 
Q 47.40625 31.296875 43.53125 35.828125 
Q 39.65625 40.375 33.015625 40.375 
z
M 52.59375 71.296875 
L 52.59375 62.3125 
Q 48.875 64.0625 45.09375 64.984375 
Q 41.3125 65.921875 37.59375 65.921875 
Q 27.828125 65.921875 22.671875 59.328125 
Q 17.53125 52.734375 16.796875 39.40625 
Q 19.671875 43.65625 24.015625 45.921875 
Q 28.375 48.1875 33.59375 48.1875 
Q 44.578125 48.1875 50.953125 41.515625 
Q 57.328125 34.859375 57.328125 23.390625 
Q 57.328125 12.15625 50.6875 5.359375 
Q 44.046875 -1.421875 33.015625 -1.421875 
Q 20.359375 -1.421875 13.671875 8.265625 
Q 6.984375 17.96875 6.984375 36.375 
Q 6.984375 53.65625 15.1875 63.9375 
Q 23.390625 74.21875 37.203125 74.21875 
Q 40.921875 74.21875 44.703125 73.484375 
Q 48.484375 72.75 52.59375 71.296875 
z
" id="DejaVuSans-36"/>
      </defs>
      <g transform="translate(311.395625 119.68302)scale(0.1 -0.1)">
       <use xlink:href="#DejaVuSans-36"/>
       <use x="63.623047" xlink:href="#DejaVuSans-30"/>
       <use x="127.246094" xlink:href="#DejaVuSans-b0"/>
      </g>
     </g>
    </g>
    <g id="xtick_6">
     <g id="line2d_6">
      <path clip-path="url(#pd808414e6d)" d="M 219.92 290.714375 
L 268.235369 110.398964 
" style="fill:none;stroke:#b0b0b0;stroke-linecap:square;stroke-width:0.8;"/>
     </g>
     <g id="text_6">
      <!-- 75° -->
      <defs>
       <path d="M 8.203125 72.90625 
L 55.078125 72.90625 
L 55.078125 68.703125 
L 28.609375 0 
L 18.3125 0 
L 43.21875 64.59375 
L 8.203125 64.59375 
z
" id="DejaVuSans-37"/>
      </defs>
      <g transform="translate(262.996335 99.635377)scale(0.1 -0.1)">
       <use xlink:href="#DejaVuSans-37"/>
       <use x="63.623047" xlink:href="#DejaVuSans-35"/>
       <use x="127.246094" xlink:href="#DejaVuSans-b0"/>
      </g>
     </g>
    </g>
    <g id="xtick_7">
     <g id="line2d_7">
      <path clip-path="url(#pd808414e6d)" d="M 219.92 290.714375 
L 219.92 104.038125 
" style="fill:none;stroke:#b0b0b0;stroke-linecap:square;stroke-width:0.8;"/>
     </g>
     <g id="text_7">
      <!-- 90° -->
      <defs>
       <path d="M 10.984375 1.515625 
L 10.984375 10.5 
Q 14.703125 8.734375 18.5 7.8125 
Q 22.3125 6.890625 25.984375 6.890625 
Q 35.75 6.890625 40.890625 13.453125 
Q 46.046875 20.015625 46.78125 33.40625 
Q 43.953125 29.203125 39.59375 26.953125 
Q 35.25 24.703125 29.984375 24.703125 
Q 19.046875 24.703125 12.671875 31.3125 
Q 6.296875 37.9375 6.296875 49.421875 
Q 6.296875 60.640625 12.9375 67.421875 
Q 19.578125 74.21875 30.609375 74.21875 
Q 43.265625 74.21875 49.921875 64.515625 
Q 56.59375 54.828125 56.59375 36.375 
Q 56.59375 19.140625 48.40625 8.859375 
Q 40.234375 -1.421875 26.421875 -1.421875 
Q 22.703125 -1.421875 18.890625 -0.6875 
Q 15.09375 0.046875 10.984375 1.515625 
z
M 30.609375 32.421875 
Q 37.25 32.421875 41.125 36.953125 
Q 45.015625 41.5 45.015625 49.421875 
Q 45.015625 57.28125 41.125 61.84375 
Q 37.25 66.40625 30.609375 66.40625 
Q 23.96875 66.40625 20.09375 61.84375 
Q 16.21875 57.28125 16.21875 49.421875 
Q 16.21875 41.5 20.09375 36.953125 
Q 23.96875 32.421875 30.609375 32.421875 
z
" id="DejaVuSans-39"/>
      </defs>
      <g transform="translate(211.0575 92.7975)scale(0.1 -0.1)">
       <use xlink:href="#DejaVuSans-39"/>
       <use x="63.623047" xlink:href="#DejaVuSans-30"/>
       <use x="127.246094" xlink:href="#DejaVuSans-b0"/>
      </g>
     </g>
    </g>
    <g id="xtick_8">
     <g id="line2d_8">
      <path clip-path="url(#pd808414e6d)" d="M 219.92 290.714375 
L 171.604631 110.398964 
" style="fill:none;stroke:#b0b0b0;stroke-linecap:square;stroke-width:0.8;"/>
     </g>
     <g id="text_8">
      <!-- 105° -->
      <g transform="translate(155.937415 99.635377)scale(0.1 -0.1)">
       <use xlink:href="#DejaVuSans-31"/>
       <use x="63.623047" xlink:href="#DejaVuSans-30"/>
       <use x="127.246094" xlink:href="#DejaVuSans-35"/>
       <use x="190.869141" xlink:href="#DejaVuSans-b0"/>
      </g>
     </g>
    </g>
    <g id="xtick_9">
     <g id="line2d_9">
      <path clip-path="url(#pd808414e6d)" d="M 219.92 290.714375 
L 126.581875 129.048 
" style="fill:none;stroke:#b0b0b0;stroke-linecap:square;stroke-width:0.8;"/>
     </g>
     <g id="text_9">
      <!-- 120° -->
      <defs>
       <path d="M 19.1875 8.296875 
L 53.609375 8.296875 
L 53.609375 0 
L 7.328125 0 
L 7.328125 8.296875 
Q 12.9375 14.109375 22.625 23.890625 
Q 32.328125 33.6875 34.8125 36.53125 
Q 39.546875 41.84375 41.421875 45.53125 
Q 43.3125 49.21875 43.3125 52.78125 
Q 43.3125 58.59375 39.234375 62.25 
Q 35.15625 65.921875 28.609375 65.921875 
Q 23.96875 65.921875 18.8125 64.3125 
Q 13.671875 62.703125 7.8125 59.421875 
L 7.8125 69.390625 
Q 13.765625 71.78125 18.9375 73 
Q 24.125 74.21875 28.421875 74.21875 
Q 39.75 74.21875 46.484375 68.546875 
Q 53.21875 62.890625 53.21875 53.421875 
Q 53.21875 48.921875 51.53125 44.890625 
Q 49.859375 40.875 45.40625 35.40625 
Q 44.1875 33.984375 37.640625 27.21875 
Q 31.109375 20.453125 19.1875 8.296875 
z
" id="DejaVuSans-32"/>
      </defs>
      <g transform="translate(107.538125 119.68302)scale(0.1 -0.1)">
       <use xlink:href="#DejaVuSans-31"/>
       <use x="63.623047" xlink:href="#DejaVuSans-32"/>
       <use x="127.246094" xlink:href="#DejaVuSans-30"/>
       <use x="190.869141" xlink:href="#DejaVuSans-b0"/>
      </g>
     </g>
    </g>
    <g id="xtick_10">
     <g id="line2d_10">
      <path clip-path="url(#pd808414e6d)" d="M 219.92 290.714375 
L 87.919958 158.714333 
" style="fill:none;stroke:#b0b0b0;stroke-linecap:square;stroke-width:0.8;"/>
     </g>
     <g id="text_10">
      <!-- 135° -->
      <g transform="translate(65.976713 151.574213)scale(0.1 -0.1)">
       <use xlink:href="#DejaVuSans-31"/>
       <use x="63.623047" xlink:href="#DejaVuSans-33"/>
       <use x="127.246094" xlink:href="#DejaVuSans-35"/>
       <use x="190.869141" xlink:href="#DejaVuSans-b0"/>
      </g>
     </g>
    </g>
    <g id="xtick_11">
     <g id="line2d_11">
      <path clip-path="url(#pd808414e6d)" d="M 219.92 290.714375 
L 58.253625 197.37625 
" style="fill:none;stroke:#b0b0b0;stroke-linecap:square;stroke-width:0.8;"/>
     </g>
     <g id="text_11">
      <!-- 150° -->
      <g transform="translate(34.08552 193.135625)scale(0.1 -0.1)">
       <use xlink:href="#DejaVuSans-31"/>
       <use x="63.623047" xlink:href="#DejaVuSans-35"/>
       <use x="127.246094" xlink:href="#DejaVuSans-30"/>
       <use x="190.869141" xlink:href="#DejaVuSans-b0"/>
      </g>
     </g>
    </g>
    <g id="xtick_12">
     <g id="line2d_12">
      <path clip-path="url(#pd808414e6d)" d="M 219.92 290.714375 
L 39.604589 242.399006 
" style="fill:none;stroke:#b0b0b0;stroke-linecap:square;stroke-width:0.8;"/>
     </g>
     <g id="text_12">
      <!-- 165° -->
      <g transform="translate(14.037877 241.534915)scale(0.1 -0.1)">
       <use xlink:href="#DejaVuSans-31"/>
       <use x="63.623047" xlink:href="#DejaVuSans-36"/>
       <use x="127.246094" xlink:href="#DejaVuSans-35"/>
       <use x="190.869141" xlink:href="#DejaVuSans-b0"/>
      </g>
     </g>
    </g>
    <g id="xtick_13">
     <g id="line2d_13">
      <path clip-path="url(#pd808414e6d)" d="M 219.92 290.714375 
L 33.24375 290.714375 
" style="fill:none;stroke:#b0b0b0;stroke-linecap:square;stroke-width:0.8;"/>
     </g>
     <g id="text_13">
      <!-- 180° -->
      <defs>
       <path d="M 31.78125 34.625 
Q 24.75 34.625 20.71875 30.859375 
Q 16.703125 27.09375 16.703125 20.515625 
Q 16.703125 13.921875 20.71875 10.15625 
Q 24.75 6.390625 31.78125 6.390625 
Q 38.8125 6.390625 42.859375 10.171875 
Q 46.921875 13.96875 46.921875 20.515625 
Q 46.921875 27.09375 42.890625 30.859375 
Q 38.875 34.625 31.78125 34.625 
z
M 21.921875 38.8125 
Q 15.578125 40.375 12.03125 44.71875 
Q 8.5 49.078125 8.5 55.328125 
Q 8.5 64.0625 14.71875 69.140625 
Q 20.953125 74.21875 31.78125 74.21875 
Q 42.671875 74.21875 48.875 69.140625 
Q 55.078125 64.0625 55.078125 55.328125 
Q 55.078125 49.078125 51.53125 44.71875 
Q 48 40.375 41.703125 38.8125 
Q 48.828125 37.15625 52.796875 32.3125 
Q 56.78125 27.484375 56.78125 20.515625 
Q 56.78125 9.90625 50.3125 4.234375 
Q 43.84375 -1.421875 31.78125 -1.421875 
Q 19.734375 -1.421875 13.25 4.234375 
Q 6.78125 9.90625 6.78125 20.515625 
Q 6.78125 27.484375 10.78125 32.3125 
Q 14.796875 37.15625 21.921875 38.8125 
z
M 18.3125 54.390625 
Q 18.3125 48.734375 21.84375 45.5625 
Q 25.390625 42.390625 31.78125 42.390625 
Q 38.140625 42.390625 41.71875 45.5625 
Q 45.3125 48.734375 45.3125 54.390625 
Q 45.3125 60.0625 41.71875 63.234375 
Q 38.140625 66.40625 31.78125 66.40625 
Q 25.390625 66.40625 21.84375 63.234375 
Q 18.3125 60.0625 18.3125 54.390625 
z
" id="DejaVuSans-38"/>
      </defs>
      <g transform="translate(7.2 293.47375)scale(0.1 -0.1)">
       <use xlink:href="#DejaVuSans-31"/>
       <use x="63.623047" xlink:href="#DejaVuSans-38"/>
       <use x="127.246094" xlink:href="#DejaVuSans-30"/>
       <use x="190.869141" xlink:href="#DejaVuSans-b0"/>
      </g>
     </g>
    </g>
   </g>
   <g id="matplotlib.axis_2">
    <g id="ytick_1">
     <g id="line2d_14">
      <path clip-path="url(#pd808414e6d)" d="M 219.92 290.714375 
L 219.92 290.714375 
" style="fill:none;stroke:#b0b0b0;stroke-linecap:square;stroke-width:0.8;"/>
     </g>
     <g id="text_14">
      <!-- −20 -->
      <defs>
       <path d="M 10.59375 35.5 
L 73.1875 35.5 
L 73.1875 27.203125 
L 10.59375 27.203125 
z
" id="DejaVuSans-2212"/>
      </defs>
      <g transform="translate(209.367656 305.312812)scale(0.1 -0.1)">
       <use xlink:href="#DejaVuSans-2212"/>
       <use x="83.789062" xlink:href="#DejaVuSans-32"/>
       <use x="147.412109" xlink:href="#DejaVuSans-30"/>
      </g>
     </g>
    </g>
    <g id="ytick_2">
     <g id="line2d_15">
      <path clip-path="url(#pd808414e6d)" d="M 251.032708 290.714375 
L 250.914315 288.002724 
L 250.560036 285.31171 
L 249.972569 282.661814 
L 249.156382 280.073202 
L 248.11769 277.565576 
L 246.864396 275.158021 
L 245.406039 272.868859 
L 243.753717 270.715512 
L 241.920007 268.714368 
L 239.918863 266.880658 
L 237.765516 265.228336 
L 235.476354 263.769979 
L 233.068799 262.516685 
L 230.561173 261.477993 
L 227.972561 260.661806 
L 225.322665 260.074339 
L 222.631651 259.72006 
L 219.92 259.601667 
L 217.208349 259.72006 
L 214.517335 260.074339 
L 211.867439 260.661806 
L 209.278827 261.477993 
L 206.771201 262.516685 
L 204.363646 263.769979 
L 202.074484 265.228336 
L 199.921137 266.880658 
L 197.919993 268.714368 
L 196.086283 270.715512 
L 194.433961 272.868859 
L 192.975604 275.158021 
L 191.72231 277.565576 
L 190.683618 280.073202 
L 189.867431 282.661814 
L 189.279964 285.31171 
L 188.925685 288.002724 
L 188.807292 290.714375 
L 188.807292 290.714375 
" style="fill:none;stroke:#b0b0b0;stroke-linecap:square;stroke-width:0.8;"/>
     </g>
     <g id="text_15">
      <!-- −15 -->
      <g transform="translate(240.480365 305.312812)scale(0.1 -0.1)">
       <use xlink:href="#DejaVuSans-2212"/>
       <use x="83.789062" xlink:href="#DejaVuSans-31"/>
       <use x="147.412109" xlink:href="#DejaVuSans-35"/>
      </g>
     </g>
    </g>
    <g id="ytick_3">
     <g id="line2d_16">
      <path clip-path="url(#pd808414e6d)" d="M 282.145417 290.714375 
L 282.060139 287.457748 
L 281.804539 284.210048 
L 281.379319 280.980175 
L 280.785642 277.776983 
L 280.025137 274.609252 
L 279.099888 271.485664 
L 278.012431 268.41478 
L 276.765747 265.405018 
L 275.363252 262.464627 
L 273.808792 259.601667 
L 272.106626 256.823984 
L 270.26142 254.139193 
L 268.278231 251.554651 
L 266.162496 249.077444 
L 263.920014 246.714361 
L 261.556931 244.471879 
L 259.079724 242.356144 
L 256.495182 240.372955 
L 253.810391 238.527749 
L 251.032708 236.825583 
L 248.169748 235.271123 
L 245.229357 233.868628 
L 242.219595 232.621944 
L 239.148711 231.534487 
L 236.025123 230.609238 
L 232.857392 229.848733 
L 229.6542 229.255056 
L 226.424327 228.829836 
L 223.176627 228.574236 
L 219.92 228.488958 
L 216.663373 228.574236 
L 213.415673 228.829836 
L 210.1858 229.255056 
L 206.982608 229.848733 
L 203.814877 230.609238 
L 200.691289 231.534487 
L 197.620405 232.621944 
L 194.610643 233.868628 
L 191.670252 235.271123 
L 188.807292 236.825583 
L 186.029609 238.527749 
L 183.344818 240.372955 
L 180.760276 242.356144 
L 178.283069 244.471879 
L 175.919986 246.714361 
L 173.677504 249.077444 
L 171.561769 251.554651 
L 169.57858 254.139193 
L 167.733374 256.823984 
L 166.031208 259.601667 
L 164.476748 262.464627 
L 163.074253 265.405018 
L 161.827569 268.41478 
L 160.740112 271.485664 
L 159.814863 274.609252 
L 159.054358 277.776983 
L 158.460681 280.980175 
L 158.035461 284.210048 
L 157.779861 287.457748 
L 157.694583 290.714375 
L 157.694583 290.714375 
" style="fill:none;stroke:#b0b0b0;stroke-linecap:square;stroke-width:0.8;"/>
     </g>
     <g id="text_16">
      <!-- −10 -->
      <g transform="translate(271.593073 305.312812)scale(0.1 -0.1)">
       <use xlink:href="#DejaVuSans-2212"/>
       <use x="83.789062" xlink:href="#DejaVuSans-31"/>
       <use x="147.412109" xlink:href="#DejaVuSans-30"/>
      </g>
     </g>
    </g>
    <g id="ytick_4">
     <g id="line2d_17">
      <path clip-path="url(#pd808414e6d)" d="M 313.258125 290.714375 
L 313.130208 285.829435 
L 312.746809 280.957884 
L 312.108978 276.113075 
L 311.218463 271.308288 
L 310.077706 266.556691 
L 308.689832 261.871308 
L 307.058647 257.264983 
L 305.18862 252.750339 
L 303.084878 248.339753 
L 300.753187 244.045312 
L 298.199938 239.878789 
L 295.432129 235.851602 
L 292.457347 231.97479 
L 289.283745 228.258979 
L 285.920021 224.714354 
L 282.375396 221.35063 
L 278.659585 218.177028 
L 274.782773 215.202246 
L 270.755586 212.434437 
L 266.589063 209.881188 
L 262.294622 207.549497 
L 257.884036 205.445755 
L 253.369392 203.575728 
L 248.763067 201.944543 
L 244.077684 200.556669 
L 239.326087 199.415912 
L 234.5213 198.525397 
L 229.676491 197.887566 
L 224.80494 197.504167 
L 219.92 197.37625 
L 215.03506 197.504167 
L 210.163509 197.887566 
L 205.3187 198.525397 
L 200.513913 199.415912 
L 195.762316 200.556669 
L 191.076933 201.944543 
L 186.470608 203.575728 
L 181.955964 205.445755 
L 177.545378 207.549497 
L 173.250938 209.881188 
L 169.084414 212.434437 
L 165.057227 215.202246 
L 161.180415 218.177028 
L 157.464604 221.35063 
L 153.919979 224.714354 
L 150.556255 228.258979 
L 147.382653 231.97479 
L 144.407871 235.851602 
L 141.640062 239.878789 
L 139.086813 244.045312 
L 136.755122 248.339753 
L 134.65138 252.750339 
L 132.781353 257.264983 
L 131.150168 261.871308 
L 129.762294 266.556691 
L 128.621537 271.308288 
L 127.731022 276.113075 
L 127.093191 280.957884 
L 126.709792 285.829435 
L 126.581875 290.714375 
L 126.581875 290.714375 
" style="fill:none;stroke:#b0b0b0;stroke-linecap:square;stroke-width:0.8;"/>
     </g>
     <g id="text_17">
      <!-- −5 -->
      <g transform="translate(305.887031 305.312812)scale(0.1 -0.1)">
       <use xlink:href="#DejaVuSans-2212"/>
       <use x="83.789062" xlink:href="#DejaVuSans-35"/>
      </g>
     </g>
    </g>
    <g id="ytick_5">
     <g id="line2d_18">
      <path clip-path="url(#pd808414e6d)" d="M 344.370833 290.714375 
L 344.295021 286.371104 
L 344.067677 282.033124 
L 343.689079 277.705721 
L 343.159686 273.394167 
L 342.480146 269.103715 
L 341.651284 264.839592 
L 340.674112 260.606993 
L 339.549819 256.411076 
L 338.279776 252.256953 
L 336.86553 248.149683 
L 335.308803 244.094272 
L 333.611493 240.095661 
L 331.775668 236.15872 
L 329.803564 232.288248 
L 327.697583 228.488958 
L 325.460292 224.765481 
L 323.094417 221.122352 
L 320.602839 217.564011 
L 317.988595 214.094791 
L 315.254869 210.718921 
L 312.404993 207.440513 
L 309.442438 204.263562 
L 306.370813 201.191937 
L 303.193862 198.229382 
L 299.915454 195.379506 
L 296.539584 192.64578 
L 293.070364 190.031536 
L 289.512023 187.539958 
L 285.868894 185.174083 
L 282.145417 182.936792 
L 278.346127 180.830811 
L 274.475655 178.858707 
L 270.538714 177.022882 
L 266.540103 175.325572 
L 262.484692 173.768845 
L 258.377422 172.354599 
L 254.223299 171.084556 
L 250.027382 169.960263 
L 245.794783 168.983091 
L 241.53066 168.154229 
L 237.240208 167.474689 
L 232.928654 166.945296 
L 228.601251 166.566698 
L 224.263271 166.339354 
L 219.92 166.263542 
L 215.576729 166.339354 
L 211.238749 166.566698 
L 206.911346 166.945296 
L 202.599792 167.474689 
L 198.30934 168.154229 
L 194.045217 168.983091 
L 189.812618 169.960263 
L 185.616701 171.084556 
L 181.462578 172.354599 
L 177.355308 173.768845 
L 173.299897 175.325572 
L 169.301286 177.022882 
L 165.364345 178.858707 
L 161.493873 180.830811 
L 157.694583 182.936792 
L 153.971106 185.174083 
L 150.327977 187.539958 
L 146.769636 190.031536 
L 143.300416 192.64578 
L 139.924546 195.379506 
L 136.646138 198.229382 
L 133.469187 201.191937 
L 130.397562 204.263562 
L 127.435007 207.440513 
L 124.585131 210.718921 
L 121.851405 214.094791 
L 119.237161 217.564011 
L 116.745583 221.122352 
L 114.379708 224.765481 
L 112.142417 228.488958 
L 110.036436 232.288248 
L 108.064332 236.15872 
L 106.228507 240.095661 
L 104.531197 244.094272 
L 102.97447 248.149683 
L 101.560224 252.256953 
L 100.290181 256.411076 
L 99.165888 260.606993 
L 98.188716 264.839592 
L 97.359854 269.103715 
L 96.680314 273.394167 
L 96.150921 277.705721 
L 95.772323 282.033124 
L 95.544979 286.371104 
L 95.469167 290.714375 
L 95.469167 290.714375 
" style="fill:none;stroke:#b0b0b0;stroke-linecap:square;stroke-width:0.8;"/>
     </g>
     <g id="text_18">
      <!-- 0 -->
      <g transform="translate(341.189583 305.312812)scale(0.1 -0.1)">
       <use xlink:href="#DejaVuSans-30"/>
      </g>
     </g>
    </g>
    <g id="ytick_6">
     <g id="line2d_19">
      <path clip-path="url(#pd808414e6d)" d="M 375.483542 290.714375 
L 375.388777 285.285286 
L 375.104597 279.862811 
L 374.631348 274.453557 
L 373.969608 269.064115 
L 373.120182 263.701049 
L 372.084105 258.370896 
L 370.86264 253.080148 
L 369.457274 247.835252 
L 367.86972 242.642597 
L 366.101912 237.50851 
L 364.156004 232.439247 
L 362.034367 227.440982 
L 359.739585 222.519807 
L 357.274455 217.681716 
L 354.641979 212.932604 
L 351.845365 208.278257 
L 348.888021 203.724346 
L 345.773549 199.276419 
L 342.505744 194.939895 
L 339.088587 190.720058 
L 335.526241 186.622048 
L 331.823047 182.650859 
L 327.983516 178.811328 
L 324.012327 175.108134 
L 319.914317 171.545788 
L 315.69448 168.128631 
L 311.357956 164.860826 
L 306.910029 161.746354 
L 302.356118 158.78901 
L 297.701771 155.992396 
L 292.952659 153.35992 
L 288.114568 150.89479 
L 283.193393 148.600008 
L 278.195128 146.478371 
L 273.125865 144.532463 
L 267.991778 142.764655 
L 262.799123 141.177101 
L 257.554227 139.771735 
L 252.263479 138.55027 
L 246.933326 137.514193 
L 241.57026 136.664767 
L 236.180818 136.003027 
L 230.771564 135.529778 
L 225.349089 135.245598 
L 219.92 135.150833 
L 214.490911 135.245598 
L 209.068436 135.529778 
L 203.659182 136.003027 
L 198.26974 136.664767 
L 192.906674 137.514193 
L 187.576521 138.55027 
L 182.285773 139.771735 
L 177.040877 141.177101 
L 171.848222 142.764655 
L 166.714135 144.532463 
L 161.644872 146.478371 
L 156.646607 148.600008 
L 151.725432 150.89479 
L 146.887341 153.35992 
L 142.138229 155.992396 
L 137.483882 158.78901 
L 132.929971 161.746354 
L 128.482044 164.860826 
L 124.14552 168.128631 
L 119.925683 171.545788 
L 115.827673 175.108134 
L 111.856484 178.811328 
L 108.016953 182.650859 
L 104.313759 186.622048 
L 100.751413 190.720058 
L 97.334256 194.939895 
L 94.066451 199.276419 
L 90.951979 203.724346 
L 87.994635 208.278257 
L 85.198021 212.932604 
L 82.565545 217.681716 
L 80.100415 222.519807 
L 77.805633 227.440982 
L 75.683996 232.439247 
L 73.738088 237.50851 
L 71.97028 242.642597 
L 70.382726 247.835252 
L 68.97736 253.080148 
L 67.755895 258.370896 
L 66.719818 263.701049 
L 65.870392 269.064115 
L 65.208652 274.453557 
L 64.735403 279.862811 
L 64.451223 285.285286 
L 64.356458 290.714375 
L 64.356458 290.714375 
" style="fill:none;stroke:#b0b0b0;stroke-linecap:square;stroke-width:0.8;"/>
     </g>
     <g id="text_19">
      <!-- 5 -->
      <g transform="translate(372.302292 305.312812)scale(0.1 -0.1)">
       <use xlink:href="#DejaVuSans-35"/>
      </g>
     </g>
    </g>
    <g id="ytick_7">
     <g id="line2d_20">
      <path clip-path="url(#pd808414e6d)" d="M 406.59625 290.714375 
L 406.482532 284.199468 
L 406.141516 277.692498 
L 405.573618 271.201393 
L 404.77953 264.734062 
L 403.760218 258.298384 
L 402.516926 251.9022 
L 401.051168 245.553303 
L 399.364729 239.259427 
L 397.459664 233.028241 
L 395.338295 226.867337 
L 393.003205 220.784221 
L 390.45724 214.786304 
L 387.703502 208.880893 
L 384.745346 203.075184 
L 381.586375 197.37625 
L 378.230438 191.791034 
L 374.681625 186.326341 
L 370.944259 180.988828 
L 367.022892 175.785 
L 362.922304 170.721194 
L 358.647489 165.803583 
L 354.203656 161.038155 
L 349.59622 156.430719 
L 344.830792 151.986886 
L 339.913181 147.712071 
L 334.849375 143.611483 
L 329.645547 139.690116 
L 324.308034 135.95275 
L 318.843341 132.403937 
L 313.258125 129.048 
L 307.559191 125.889029 
L 301.753482 122.930873 
L 295.848071 120.177135 
L 289.850154 117.63117 
L 283.767038 115.29608 
L 277.606134 113.174711 
L 271.374948 111.269646 
L 265.081072 109.583207 
L 258.732175 108.117449 
L 252.335991 106.874157 
L 245.900313 105.854845 
L 239.432982 105.060757 
L 232.941877 104.492859 
L 226.434907 104.151843 
L 219.92 104.038125 
L 213.405093 104.151843 
L 206.898123 104.492859 
L 200.407018 105.060757 
L 193.939687 105.854845 
L 187.504009 106.874157 
L 181.107825 108.117449 
L 174.758928 109.583207 
L 168.465052 111.269646 
L 162.233866 113.174711 
L 156.072962 115.29608 
L 149.989846 117.63117 
L 143.991929 120.177135 
L 138.086518 122.930873 
L 132.280809 125.889029 
L 126.581875 129.048 
L 120.996659 132.403937 
L 115.531966 135.95275 
L 110.194453 139.690116 
L 104.990625 143.611483 
L 99.926819 147.712071 
L 95.009208 151.986886 
L 90.24378 156.430719 
L 85.636344 161.038155 
L 81.192511 165.803583 
L 76.917696 170.721194 
L 72.817108 175.785 
L 68.895741 180.988828 
L 65.158375 186.326341 
L 61.609562 191.791034 
L 58.253625 197.37625 
L 55.094654 203.075184 
L 52.136498 208.880893 
L 49.38276 214.786304 
L 46.836795 220.784221 
L 44.501705 226.867337 
L 42.380336 233.028241 
L 40.475271 239.259427 
L 38.788832 245.553303 
L 37.323074 251.9022 
L 36.079782 258.298384 
L 35.06047 264.734062 
L 34.266382 271.201393 
L 33.698484 277.692498 
L 33.357468 284.199468 
L 33.24375 290.714375 
L 33.24375 290.714375 
" style="fill:none;stroke:#b0b0b0;stroke-linecap:square;stroke-width:0.8;"/>
     </g>
     <g id="text_20">
      <!-- 10 -->
      <g transform="translate(400.23375 305.312812)scale(0.1 -0.1)">
       <use xlink:href="#DejaVuSans-31"/>
       <use x="63.623047" xlink:href="#DejaVuSans-30"/>
      </g>
     </g>
    </g>
   </g>
   <g id="line2d_21">
    <path clip-path="url(#pd808414e6d)" d="M 229.999962 290.362375 
L 251.566085 289.055874 
L 266.71715 287.442 
L 278.326629 285.604457 
L 287.673211 283.593226 
L 295.438252 281.4419 
L 302.028014 279.174846 
L 307.704266 276.810713 
L 312.645579 274.364354 
L 316.97924 271.84797 
L 320.799205 269.271838 
L 324.176841 266.644787 
L 327.167671 263.974527 
L 329.81578 261.26789 
L 332.156797 258.530991 
L 334.219968 255.769368 
L 336.029636 252.988067 
L 337.606315 250.191727 
L 338.96749 247.384632 
L 340.128222 244.570762 
L 341.101609 241.753827 
L 341.899141 238.937301 
L 342.530988 236.124446 
L 343.006217 233.318329 
L 343.332974 230.521846 
L 343.518627 227.737729 
L 343.569887 224.968564 
L 343.492899 222.216799 
L 343.293326 219.484752 
L 342.976416 216.774621 
L 342.009806 211.428328 
L 340.628596 206.193306 
L 338.864383 201.083353 
L 336.745682 196.110803 
L 334.298538 191.286629 
L 331.546976 186.620535 
L 328.513339 182.121036 
L 325.218529 177.795527 
L 321.682196 173.65036 
L 317.922873 169.690905 
L 313.958082 165.921625 
L 309.804408 162.346137 
L 305.47756 158.967286 
L 300.992416 155.787216 
L 296.363065 152.807436 
L 291.602831 150.028897 
L 286.724312 147.452065 
L 281.739401 145.076992 
L 276.659321 142.90339 
L 271.494655 140.930701 
L 266.255383 139.158168 
L 260.950919 137.5849 
L 255.59016 136.209937 
L 250.181529 135.032305 
L 244.73303 134.051072 
L 239.252304 133.265393 
L 233.746693 132.67455 
L 228.223299 132.277988 
L 222.689055 132.075337 
L 217.15079 132.066428 
L 211.615302 132.251304 
L 206.089428 132.630219 
L 200.580112 133.20363 
L 195.094474 133.972175 
L 189.639879 134.936656 
L 184.223997 136.097999 
L 178.854867 137.457213 
L 173.540954 139.01535 
L 168.291197 140.773444 
L 163.115063 142.732455 
L 158.022586 144.893206 
L 153.02441 147.256319 
L 148.13182 149.822139 
L 143.356779 152.590668 
L 138.711954 155.561491 
L 134.210747 158.733699 
L 129.867321 162.105821 
L 125.696637 165.675749 
L 121.714485 169.440664 
L 117.937536 173.39697 
L 114.383395 177.540223 
L 111.070684 181.865059 
L 108.019138 186.365133 
L 105.249749 191.033047 
L 102.784945 195.860277 
L 100.648837 200.837107 
L 98.867557 205.952542 
L 97.469701 211.194221 
L 96.48695 216.548316 
L 96.162183 219.262766 
L 95.95491 221.999403 
L 95.870385 224.756025 
L 95.914283 227.530306 
L 96.092758 230.319793 
L 96.412528 233.121895 
L 96.880971 235.93387 
L 97.506241 238.752817 
L 98.297414 241.57566 
L 99.264665 244.399131 
L 100.419495 247.219748 
L 101.775008 250.033792 
L 103.346271 252.837275 
L 105.150778 255.625902 
L 107.209047 258.395029 
L 109.545428 261.139598 
L 112.189173 263.854063 
L 115.175915 266.532298 
L 118.549746 269.167462 
L 122.366193 271.751836 
L 126.696626 274.276579 
L 131.635008 276.731406 
L 137.308626 279.104104 
L 143.896057 281.379809 
L 151.659073 283.539862 
L 161.003935 285.559887 
L 172.612006 287.406278 
L 187.761972 289.029044 
L 209.32731 290.34447 
L 209.32731 290.34447 
" style="fill:none;stroke:#e41a1c;stroke-linecap:square;"/>
   </g>
   <g id="line2d_22">
    <path clip-path="url(#pd808414e6d)" d="M 229.122197 290.55375 
L 266.212022 289.097822 
L 287.66545 287.163986 
L 302.658972 284.928702 
L 314.066294 282.477642 
L 323.1664 279.862741 
L 330.64101 277.119544 
L 336.896813 274.274356 
L 342.19607 271.347748 
L 346.717914 268.356482 
L 350.590251 265.314651 
L 353.907725 262.234405 
L 356.742456 259.126422 
L 359.15078 256.000243 
L 361.177659 252.864499 
L 362.859664 249.727086 
L 364.227043 246.595284 
L 365.305201 243.47586 
L 366.115779 240.375131 
L 366.677447 237.299032 
L 367.006514 234.253152 
L 367.117381 231.242773 
L 367.022906 228.272896 
L 366.734679 225.348268 
L 366.26325 222.473397 
L 365.618305 219.652564 
L 364.808806 216.889841 
L 363.843117 214.189097 
L 362.729091 211.554003 
L 361.474155 208.988045 
L 360.085376 206.494521 
L 358.56951 204.076545 
L 356.933056 201.737056 
L 355.182287 199.47881 
L 353.323288 197.304387 
L 351.361983 195.216184 
L 349.304155 193.216421 
L 347.155468 191.307132 
L 344.921487 189.490166 
L 342.607688 187.767181 
L 340.21947 186.139641 
L 337.762169 184.60881 
L 335.241063 183.175744 
L 332.661384 181.841286 
L 327.347003 179.470457 
L 321.860053 177.498476 
L 316.240998 175.92348 
L 310.529732 174.739207 
L 304.765492 173.934573 
L 298.986663 173.493227 
L 293.230458 173.393118 
L 287.532463 173.606154 
L 281.926015 174.098021 
L 276.441409 174.828312 
L 271.104959 175.751074 
L 263.423041 177.385078 
L 253.844875 179.751109 
L 242.930424 182.458841 
L 236.864626 183.730219 
L 231.067482 184.653165 
L 227.307931 185.06204 
L 223.601026 185.303578 
L 219.92 185.378016 
L 216.238348 185.285657 
L 212.529569 185.026285 
L 208.766903 184.599748 
L 202.962799 183.65082 
L 196.88736 182.354323 
L 188.229636 180.196941 
L 176.350926 177.213056 
L 168.649963 175.559986 
L 163.29975 174.625659 
L 157.800605 173.884784 
L 152.178911 173.383367 
L 146.465038 173.161864 
L 140.692399 173.254627 
L 134.89666 173.689787 
L 129.115116 174.489423 
L 123.386235 175.669914 
L 117.74934 177.242361 
L 112.244412 179.21304 
L 106.912003 181.583821 
L 104.323317 182.918724 
L 101.793226 184.35255 
L 99.326971 185.884454 
L 96.92984 187.513378 
L 94.607182 189.238056 
L 92.364405 191.057022 
L 90.206998 192.968617 
L 88.140535 194.970989 
L 86.17069 197.0621 
L 84.303258 199.239728 
L 82.544173 201.50147 
L 80.899529 203.844743 
L 79.37561 206.266786 
L 77.978925 208.764657 
L 76.71624 211.335235 
L 75.594631 213.975215 
L 74.621533 216.681108 
L 73.804811 219.449235 
L 73.152834 222.275722 
L 72.674577 225.156489 
L 72.379733 228.087247 
L 72.278858 231.063482 
L 72.383552 234.080439 
L 72.706679 237.133108 
L 73.26265 240.2162 
L 74.067779 243.324116 
L 75.140743 246.450914 
L 76.503189 249.590266 
L 78.180529 252.735398 
L 80.203016 255.879019 
L 82.607227 259.013224 
L 85.438129 262.129371 
L 88.752064 265.217911 
L 92.621153 268.268154 
L 97.140046 271.267941 
L 102.436655 274.203168 
L 108.690111 277.057062 
L 116.162683 279.809042 
L 125.261059 282.432791 
L 136.666963 284.892756 
L 151.659381 287.136988 
L 173.112019 289.079804 
L 210.20137 290.544736 
L 210.20137 290.544736 
" style="fill:none;stroke:#377eb8;stroke-linecap:square;"/>
   </g>
   <g id="line2d_23">
    <path clip-path="url(#pd808414e6d)" d="M 253.585035 290.12675 
L 290.578515 288.246925 
L 311.871354 285.895409 
L 326.640022 283.251784 
L 337.758193 280.404869 
L 346.504804 277.409776 
L 353.561514 274.30526 
L 359.334927 271.120885 
L 364.087198 267.880534 
L 367.997315 264.604349 
L 371.193006 261.309881 
L 373.768688 258.012827 
L 375.796195 254.72752 
L 377.331511 251.467277 
L 378.419164 248.244652 
L 379.095194 245.071623 
L 379.389205 241.959746 
L 379.325823 238.920283 
L 378.925753 235.964304 
L 378.206543 233.102785 
L 377.183161 230.346704 
L 375.868416 227.707125 
L 374.273275 225.195297 
L 372.407088 222.822749 
L 370.277754 220.601403 
L 367.891828 218.543692 
L 365.254585 216.662705 
L 362.370032 214.972349 
L 359.240901 213.487538 
L 355.868589 212.22442 
L 352.253081 211.200638 
L 348.392837 210.435637 
L 344.284679 209.951008 
L 339.92368 209.770871 
L 335.303131 209.922237 
L 330.414692 210.435282 
L 325.24895 211.343318 
L 319.796885 212.682001 
L 314.053164 214.486842 
L 308.02325 216.786971 
L 301.738104 219.590982 
L 295.283453 222.856817 
L 288.853492 226.432853 
L 277.851732 232.782643 
L 274.676015 234.012861 
L 273.749478 232.989327 
L 274.78875 229.776455 
L 282.060963 213.976677 
L 284.198658 208.441444 
L 285.908512 203.144661 
L 287.18115 198.137345 
L 288.039725 193.429325 
L 288.519171 189.011921 
L 288.656744 184.869071 
L 288.488025 180.982597 
L 288.045449 177.334588 
L 287.35797 173.908384 
L 286.451211 170.688893 
L 285.347783 167.662613 
L 284.067658 164.817507 
L 282.628524 162.142848 
L 281.046091 159.62905 
L 279.334373 157.267508 
L 277.505914 155.050463 
L 275.571983 152.970884 
L 273.542738 151.022366 
L 271.427367 149.199048 
L 269.234198 147.495545 
L 266.970802 145.906895 
L 264.644078 144.428508 
L 262.260319 143.056134 
L 257.344239 140.613951 
L 252.263075 138.552171 
L 247.051015 136.846741 
L 241.737127 135.47745 
L 236.346382 134.427789 
L 230.90057 133.684904 
L 225.41914 133.239601 
L 219.92 133.086363 
L 214.420293 133.223377 
L 208.937166 133.652535 
L 203.488535 134.37943 
L 198.093862 135.413336 
L 192.774956 136.767181 
L 187.556813 138.45755 
L 182.468528 140.504727 
L 177.544325 142.932834 
L 175.156141 144.29839 
L 172.824756 145.770117 
L 170.556469 147.352272 
L 168.358185 149.049453 
L 166.237481 150.866631 
L 164.202691 152.809197 
L 162.263011 154.88302 
L 160.428604 157.094512 
L 158.710748 159.45071 
L 157.121994 161.959381 
L 155.676361 164.629135 
L 154.389572 167.469564 
L 153.279318 170.491402 
L 152.365582 173.70669 
L 151.670983 177.128937 
L 151.221152 180.773237 
L 151.045052 184.656256 
L 151.175127 188.79591 
L 151.646968 193.21038 
L 152.49784 197.915733 
L 153.762684 202.920651 
L 155.464665 208.215308 
L 157.594417 213.74869 
L 160.067547 219.384999 
L 164.842474 229.544586 
L 165.873619 232.756727 
L 164.938933 233.779813 
L 161.755056 232.549431 
L 144.298884 222.624816 
L 137.836126 219.359952 
L 131.542912 216.557193 
L 125.504977 214.258597 
L 119.753293 212.455567 
L 114.293332 211.118972 
L 109.119773 210.213298 
L 104.223602 209.702885 
L 99.595419 209.55442 
L 95.22689 209.737723 
L 91.111317 210.225777 
L 87.243783 210.994461 
L 83.621116 212.022178 
L 80.241788 213.289478 
L 77.105791 214.778713 
L 74.214532 216.473731 
L 71.570748 218.35961 
L 69.178458 220.422439 
L 67.042941 222.649123 
L 65.170762 225.027221 
L 63.569827 227.544805 
L 62.249494 230.190338 
L 61.220735 232.952566 
L 60.496366 235.820416 
L 60.091362 238.782902 
L 60.023278 241.829041 
L 60.312823 244.947753 
L 60.984629 248.127771 
L 62.068306 251.357527 
L 63.599898 254.625036 
L 65.623939 257.917735 
L 68.196415 261.222298 
L 71.389166 264.524382 
L 75.296612 267.808281 
L 80.046484 271.056434 
L 85.817774 274.248692 
L 92.872638 277.361159 
L 101.617683 280.364263 
L 112.73457 283.21924 
L 127.502238 285.870965 
L 148.794362 288.230613 
L 185.787412 290.118588 
L 185.787412 290.118588 
" style="fill:none;stroke:#4daf4a;stroke-linecap:square;"/>
   </g>
   <g id="line2d_24">
    <path clip-path="url(#pd808414e6d)" d="M 265.783729 289.913821 
L 302.652346 287.825298 
L 323.736653 285.273575 
L 338.21247 282.44256 
L 348.952531 279.425491 
L 357.234528 276.282037 
L 363.738528 273.05568 
L 368.869155 269.780936 
L 372.886138 266.486919 
L 375.96552 263.19934 
L 378.231478 259.941741 
L 379.774151 256.736326 
L 380.660231 253.604569 
L 380.939509 250.567702 
L 380.64904 247.647159 
L 379.815807 244.86499 
L 378.458394 242.244324 
L 376.587929 239.809879 
L 374.208471 237.588594 
L 371.316874 235.610419 
L 367.902131 233.909357 
L 363.944099 232.524862 
L 359.411433 231.503775 
L 354.258437 230.903049 
L 348.420384 230.793662 
L 341.806697 231.266261 
L 334.29142 232.439226 
L 325.701701 234.469247 
L 315.812038 237.56055 
L 304.386109 241.947844 
L 291.465421 247.725549 
L 278.686941 253.992715 
L 272.140742 256.801829 
L 277.019345 252.20038 
L 287.239601 243.576683 
L 296.959713 234.741747 
L 304.829234 226.730678 
L 310.951137 219.593056 
L 315.644151 213.198486 
L 319.190516 207.416521 
L 321.80757 202.144862 
L 323.659121 197.307251 
L 324.869772 192.847129 
L 325.536041 188.72215 
L 325.734227 184.900148 
L 325.525881 181.356284 
L 324.961599 178.071051 
L 324.083716 175.028849 
L 322.928224 172.216968 
L 321.526177 169.624849 
L 319.904721 167.243528 
L 318.087874 165.065226 
L 316.097117 163.08303 
L 313.951841 161.290649 
L 311.669705 159.682217 
L 309.266908 158.252136 
L 306.758409 156.994952 
L 304.158094 155.905245 
L 301.478916 154.977544 
L 298.733004 154.206248 
L 295.931744 153.585558 
L 293.085849 153.109426 
L 290.205405 152.7715 
L 287.299911 152.565084 
L 284.378303 152.483098 
L 278.519744 152.66203 
L 272.69027 153.243122 
L 266.941472 154.154104 
L 261.315416 155.316069 
L 253.172853 157.344465 
L 238.099505 161.360473 
L 233.406755 162.396474 
L 228.838361 163.17587 
L 224.356948 163.656814 
L 219.92 163.813869 
L 215.482414 163.638542 
L 210.99909 163.139415 
L 206.427521 162.342012 
L 201.730347 161.288268 
L 194.386426 159.355526 
L 181.241422 155.826143 
L 175.679084 154.554836 
L 169.975756 153.493692 
L 164.168499 152.724568 
L 158.304291 152.323228 
L 155.368042 152.282254 
L 152.439314 152.358465 
L 149.526503 152.559358 
L 146.638552 152.892017 
L 143.78497 153.363146 
L 140.975854 153.979102 
L 138.221923 154.745942 
L 135.534575 155.669466 
L 132.925948 156.755282 
L 130.409005 158.008867 
L 127.997643 159.435645 
L 125.706831 161.041073 
L 123.552779 162.830753 
L 121.553155 164.810554 
L 119.727363 166.986772 
L 118.096893 169.366321 
L 116.685774 171.956983 
L 115.521165 174.767722 
L 114.634129 177.809101 
L 114.06067 181.09383 
L 113.843133 184.637508 
L 114.032128 188.459646 
L 114.689214 192.58508 
L 115.890704 197.045977 
L 117.733126 201.884681 
L 120.341093 207.157751 
L 123.878426 212.941442 
L 128.562472 219.338051 
L 134.675483 226.478024 
L 142.5362 234.491753 
L 152.247606 243.329654 
L 162.459263 251.956618 
L 167.329387 256.561632 
L 160.774838 253.756376 
L 147.988147 247.493357 
L 135.059399 241.720084 
L 123.625568 237.3375 
L 113.728174 234.251179 
L 105.130901 232.226408 
L 97.608259 231.058953 
L 90.987403 230.592118 
L 85.142389 230.707517 
L 79.982646 231.314492 
L 75.443454 232.342062 
L 71.479128 233.733263 
L 68.05833 235.441247 
L 65.160924 237.426552 
L 62.77591 239.655165 
L 60.900149 242.097128 
L 59.537707 244.725492 
L 58.699718 247.515531 
L 58.404771 250.444106 
L 58.679856 253.489155 
L 59.562032 256.629237 
L 61.101095 259.843107 
L 63.363742 263.109283 
L 66.440116 266.405549 
L 70.454397 269.708354 
L 75.582633 272.991975 
L 82.084554 276.227286 
L 90.364788 279.379763 
L 101.103403 282.405909 
L 115.578094 285.246047 
L 136.661595 287.806927 
L 173.529729 289.90463 
L 173.529729 289.90463 
" style="fill:none;stroke:#984ea3;stroke-linecap:square;"/>
   </g>
   <g id="line2d_25">
    <path clip-path="url(#pd808414e6d)" d="M 280.920088 289.649615 
L 317.62818 287.30233 
L 338.443696 284.502811 
L 352.540528 281.440644 
L 362.788607 278.214992 
L 370.461826 274.891792 
L 376.235296 271.52127 
L 380.507302 268.145302 
L 383.529548 264.801168 
L 385.467955 261.523804 
L 386.43392 258.347348 
L 386.501375 255.306411 
L 385.716305 252.437282 
L 384.10177 249.779262 
L 381.659872 247.376307 
L 378.371149 245.279239 
L 374.191278 243.548912 
L 369.044202 242.260985 
L 362.809776 241.51348 
L 355.302041 241.439342 
L 346.230448 242.228337 
L 335.129298 244.166797 
L 321.235172 247.708636 
L 303.38186 253.554761 
L 281.384459 262.053027 
L 269.67702 266.446255 
L 285.762431 257.165981 
L 304.251075 245.874747 
L 317.804792 236.455949 
L 327.554093 228.571802 
L 334.657925 221.772874 
L 339.847652 215.775261 
L 343.584039 210.406009 
L 346.170772 205.557154 
L 347.817614 201.159501 
L 348.675566 197.167981 
L 348.857223 193.553208 
L 348.449084 190.296449 
L 347.519279 187.386517 
L 346.122609 184.817812 
L 344.303924 182.589079 
L 342.100434 180.702618 
L 339.543333 179.163813 
L 336.65895 177.980881 
L 333.469576 177.164799 
L 329.994057 176.729352 
L 326.248244 176.691293 
L 322.245342 177.070569 
L 317.99624 177.890567 
L 313.509916 179.178256 
L 308.794097 180.964006 
L 303.856464 183.2806 
L 298.707054 186.160423 
L 293.363019 189.628732 
L 287.858076 193.688747 
L 282.260772 198.290379 
L 276.707487 203.269313 
L 266.910229 212.509501 
L 263.595095 215.066892 
L 261.848947 215.072552 
L 261.53175 212.454056 
L 262.095527 207.940242 
L 262.9596 202.470117 
L 263.739521 196.743109 
L 264.24743 191.153336 
L 264.417558 185.884698 
L 264.24528 181.005458 
L 263.752404 176.52706 
L 262.970049 172.435337 
L 261.930867 168.705959 
L 260.665778 165.311766 
L 259.202806 162.226106 
L 257.566848 159.424215 
L 255.779825 156.883687 
L 253.860986 154.584516 
L 251.827234 152.50896 
L 249.693443 150.641341 
L 247.472737 148.967833 
L 245.176742 147.47627 
L 242.8158 146.155981 
L 240.399152 144.99764 
L 237.935101 143.993154 
L 235.431158 143.135562 
L 232.894167 142.418964 
L 230.330418 141.838456 
L 227.745755 141.390083 
L 225.145669 141.070804 
L 222.535396 140.878466 
L 219.92 140.811786 
L 217.304463 140.870341 
L 214.693764 141.054565 
L 212.09297 141.365749 
L 209.507316 141.806056 
L 206.942296 142.378538 
L 204.403754 143.087158 
L 201.897984 143.936831 
L 199.431829 144.933466 
L 197.012804 146.084034 
L 194.649216 147.396636 
L 192.350309 148.880608 
L 190.126427 150.546632 
L 187.989199 152.406881 
L 185.951756 154.47519 
L 184.028975 156.767246 
L 182.237764 159.300801 
L 180.597376 162.095868 
L 179.129739 165.174861 
L 177.859755 168.562553 
L 176.815453 172.285604 
L 176.02776 176.371181 
L 175.529334 180.843621 
L 175.351301 185.7171 
L 175.515476 190.98018 
L 176.017241 196.564604 
L 176.790834 202.286481 
L 177.648404 207.751696 
L 178.20551 212.260829 
L 177.881481 214.874879 
L 176.12835 214.865012 
L 172.806089 212.303659 
L 162.994182 203.056302 
L 157.433392 198.074169 
L 151.828476 193.4696 
L 146.315822 189.406915 
L 140.963986 185.936206 
L 135.806696 183.054255 
L 130.861113 180.735808 
L 126.137281 178.948483 
L 121.642896 177.659499 
L 117.38569 176.838487 
L 113.374653 176.458478 
L 109.620684 176.496089 
L 106.136997 176.931372 
L 102.939453 177.747574 
L 100.046909 178.93091 
L 97.481666 180.470404 
L 95.270061 182.357836 
L 93.4433 184.587822 
L 92.038603 187.158061 
L 91.100827 190.069807 
L 90.684785 193.328655 
L 90.858618 196.945792 
L 91.70883 200.939948 
L 93.34803 205.340503 
L 95.927228 210.192527 
L 99.656193 215.565208 
L 104.838622 221.566507 
L 111.93529 228.369374 
L 121.677568 236.257706 
L 135.224414 245.680933 
L 153.706344 256.976832 
L 169.785209 266.262003 
L 158.071399 261.873899 
L 136.06781 253.380975 
L 118.208501 247.540405 
L 104.308576 244.004328 
L 93.201832 242.071828 
L 84.124857 241.288985 
L 76.611959 241.369459 
L 70.372595 242.123478 
L 65.220812 243.418087 
L 61.036471 245.155256 
L 57.743521 247.259318 
L 55.297642 249.669411 
L 53.67938 252.334704 
L 52.89084 255.211231 
L 52.955087 258.259684 
L 53.918109 261.443763 
L 55.853843 264.728849 
L 58.873688 268.080792 
L 63.143569 271.46465 
L 68.915191 274.84313 
L 76.586843 278.174349 
L 86.833637 281.40807 
L 100.929468 284.478345 
L 121.744268 287.286003 
L 158.45193 289.641446 
L 158.45193 289.641446 
" style="fill:none;stroke:#ff7f00;stroke-linecap:square;"/>
   </g>
   <g id="line2d_26">
    <path clip-path="url(#pd808414e6d)" d="M 287.787106 289.52975 
L 324.303989 287.069206 
L 344.798206 284.169786 
L 358.439567 281.028143 
L 368.09195 277.751009 
L 375.02085 274.412619 
L 379.890067 271.072521 
L 383.082857 267.783331 
L 384.830975 264.595043 
L 385.273731 261.558051 
L 384.4866 258.725868 
L 382.494207 256.158161 
L 379.273322 253.924762 
L 374.747059 252.111653 
L 368.767944 250.830689 
L 361.08239 250.236711 
L 351.258049 250.560304 
L 338.527149 252.176576 
L 321.422669 255.764203 
L 297.007655 262.656763 
L 264.864358 273.461852 
L 274.656789 268.599277 
L 303.378087 255.288519 
L 322.187285 245.182046 
L 334.724552 237.180133 
L 343.428742 230.475136 
L 349.539396 224.669994 
L 353.745781 219.557945 
L 356.465885 215.025755 
L 357.970498 211.010883 
L 358.44364 207.480975 
L 358.014378 204.42343 
L 356.774592 201.839964 
L 354.789241 199.743923 
L 352.102273 198.159351 
L 348.739757 197.121343 
L 344.71101 196.677604 
L 340.008018 196.891333 
L 334.603212 197.845741 
L 328.445582 199.650599 
L 321.455654 202.450777 
L 313.522651 206.43417 
L 304.519038 211.824495 
L 294.396578 218.79318 
L 283.612998 227.021377 
L 274.486693 234.208911 
L 271.920704 234.950447 
L 276.652088 227.707008 
L 283.564265 217.500024 
L 289.632917 207.633755 
L 294.268004 198.902237 
L 297.591946 191.298818 
L 299.834047 184.664853 
L 301.198124 178.844635 
L 301.845682 173.712375 
L 301.902264 169.170671 
L 301.466212 165.14422 
L 300.615821 161.574067 
L 299.414569 158.413194 
L 297.91486 155.623314 
L 296.160677 153.172553 
L 294.189492 151.033777 
L 292.033653 149.183361 
L 289.721406 147.600284 
L 287.277645 146.265439 
L 284.724485 145.161119 
L 282.081688 144.270614 
L 279.366993 143.577905 
L 276.596355 143.067423 
L 273.784139 142.723869 
L 270.943257 142.532076 
L 268.085272 142.47691 
L 262.357921 142.715755 
L 256.669935 143.318437 
L 251.07051 144.162747 
L 232.462751 147.350076 
L 227.403441 147.92181 
L 222.407295 148.217314 
L 217.432546 148.208258 
L 212.435137 147.894685 
L 207.373307 147.305014 
L 202.211994 146.494243 
L 183.139681 143.196574 
L 177.442632 142.578189 
L 171.705144 142.324306 
L 168.841702 142.372226 
L 165.995113 142.556966 
L 163.176947 142.893669 
L 160.400123 143.39751 
L 157.679012 144.083797 
L 155.02958 144.968107 
L 152.469572 146.066465 
L 150.018758 147.395589 
L 147.699261 148.973194 
L 145.535986 150.818392 
L 143.557186 152.952212 
L 141.795218 155.398284 
L 140.287565 158.183748 
L 139.07822 161.340483 
L 138.219594 164.906782 
L 137.775177 168.929667 
L 137.823274 173.468099 
L 138.462237 178.597382 
L 139.817619 184.414925 
L 142.050935 191.046517 
L 145.366015 198.647871 
L 149.992172 207.377634 
L 156.051838 217.242459 
L 162.954981 227.448312 
L 167.677298 234.690936 
L 165.102218 233.9489 
L 155.966808 226.761183 
L 145.174122 218.533119 
L 135.042565 211.564886 
L 126.029876 206.175327 
L 118.087828 202.193018 
L 111.088898 199.394237 
L 104.92232 197.59109 
L 99.50863 196.638702 
L 94.796829 196.427303 
L 90.759359 196.873676 
L 87.388218 197.914622 
L 84.692731 199.50243 
L 82.698979 201.602002 
L 81.450921 204.189292 
L 81.013525 207.250944 
L 81.478681 210.785242 
L 82.975467 214.804781 
L 85.68791 219.341907 
L 89.886812 224.459157 
L 95.99017 230.269758 
L 104.687259 236.980465 
L 117.217629 244.988333 
L 136.020141 255.100998 
L 164.734975 268.418178 
L 174.521171 273.287397 
L 142.371875 262.489166 
L 117.951106 255.603669 
L 100.841121 252.023302 
L 88.104975 250.414477 
L 78.275652 250.098512 
L 70.585385 250.700286 
L 64.601834 251.989207 
L 60.071416 253.810422 
L 56.846664 256.052067 
L 54.850695 258.628153 
L 54.060284 261.468832 
L 54.50006 264.51443 
L 56.245502 267.711424 
L 59.435922 271.009408 
L 64.30308 274.358378 
L 71.230232 277.705706 
L 80.881184 280.991834 
L 94.521428 284.142514 
L 115.014848 287.051006 
L 151.531251 289.520645 
L 151.531251 289.520645 
" style="fill:none;stroke:#a65628;stroke-linecap:square;"/>
   </g>
   <g id="patch_3">
    <path d="M 406.59625 290.714375 
C 406.59625 241.223743 386.915204 193.709494 351.920042 158.714333 
C 316.924881 123.719171 269.410632 104.038125 219.92 104.038125 
C 170.429368 104.038125 122.915119 123.719171 87.919958 158.714333 
C 52.924796 193.709494 33.24375 241.223743 33.24375 290.714375 
" style="fill:none;stroke:#000000;stroke-linecap:square;stroke-linejoin:miter;stroke-width:0.8;"/>
   </g>
   <g id="patch_4">
    <path d="M 219.92 290.714375 
L 406.59625 290.714375 
" style="fill:none;stroke:#000000;stroke-linecap:square;stroke-linejoin:miter;stroke-width:0.8;"/>
   </g>
   <g id="patch_5">
    <path d="M 219.92 290.714375 
L 33.24375 290.714375 
" style="fill:none;stroke:#000000;stroke-linecap:square;stroke-linejoin:miter;stroke-width:0.8;"/>
   </g>
   <g id="legend_1">
    <g id="patch_6">
     <path d="M 450.780125 250.249687 
L 511.602 250.249687 
Q 513.602 250.249687 513.602 248.249687 
L 513.602 146.502813 
Q 513.602 144.502813 511.602 144.502813 
L 450.780125 144.502813 
Q 448.780125 144.502813 448.780125 146.502813 
L 448.780125 248.249687 
Q 448.780125 250.249687 450.780125 250.249687 
z
" style="fill:#ffffff;opacity:0.8;stroke:#cccccc;stroke-linejoin:miter;"/>
    </g>
    <g id="text_21">
     <!-- Height -->
     <defs>
      <path d="M 9.8125 72.90625 
L 19.671875 72.90625 
L 19.671875 43.015625 
L 55.515625 43.015625 
L 55.515625 72.90625 
L 65.375 72.90625 
L 65.375 0 
L 55.515625 0 
L 55.515625 34.71875 
L 19.671875 34.71875 
L 19.671875 0 
L 9.8125 0 
z
" id="DejaVuSans-48"/>
      <path d="M 56.203125 29.59375 
L 56.203125 25.203125 
L 14.890625 25.203125 
Q 15.484375 15.921875 20.484375 11.0625 
Q 25.484375 6.203125 34.421875 6.203125 
Q 39.59375 6.203125 44.453125 7.46875 
Q 49.3125 8.734375 54.109375 11.28125 
L 54.109375 2.78125 
Q 49.265625 0.734375 44.1875 -0.34375 
Q 39.109375 -1.421875 33.890625 -1.421875 
Q 20.796875 -1.421875 13.15625 6.1875 
Q 5.515625 13.8125 5.515625 26.8125 
Q 5.515625 40.234375 12.765625 48.109375 
Q 20.015625 56 32.328125 56 
Q 43.359375 56 49.78125 48.890625 
Q 56.203125 41.796875 56.203125 29.59375 
z
M 47.21875 32.234375 
Q 47.125 39.59375 43.09375 43.984375 
Q 39.0625 48.390625 32.421875 48.390625 
Q 24.90625 48.390625 20.390625 44.140625 
Q 15.875 39.890625 15.1875 32.171875 
z
" id="DejaVuSans-65"/>
      <path d="M 9.421875 54.6875 
L 18.40625 54.6875 
L 18.40625 0 
L 9.421875 0 
z
M 9.421875 75.984375 
L 18.40625 75.984375 
L 18.40625 64.59375 
L 9.421875 64.59375 
z
" id="DejaVuSans-69"/>
      <path d="M 45.40625 27.984375 
Q 45.40625 37.75 41.375 43.109375 
Q 37.359375 48.484375 30.078125 48.484375 
Q 22.859375 48.484375 18.828125 43.109375 
Q 14.796875 37.75 14.796875 27.984375 
Q 14.796875 18.265625 18.828125 12.890625 
Q 22.859375 7.515625 30.078125 7.515625 
Q 37.359375 7.515625 41.375 12.890625 
Q 45.40625 18.265625 45.40625 27.984375 
z
M 54.390625 6.78125 
Q 54.390625 -7.171875 48.1875 -13.984375 
Q 42 -20.796875 29.203125 -20.796875 
Q 24.46875 -20.796875 20.265625 -20.09375 
Q 16.0625 -19.390625 12.109375 -17.921875 
L 12.109375 -9.1875 
Q 16.0625 -11.328125 19.921875 -12.34375 
Q 23.78125 -13.375 27.78125 -13.375 
Q 36.625 -13.375 41.015625 -8.765625 
Q 45.40625 -4.15625 45.40625 5.171875 
L 45.40625 9.625 
Q 42.625 4.78125 38.28125 2.390625 
Q 33.9375 0 27.875 0 
Q 17.828125 0 11.671875 7.65625 
Q 5.515625 15.328125 5.515625 27.984375 
Q 5.515625 40.671875 11.671875 48.328125 
Q 17.828125 56 27.875 56 
Q 33.9375 56 38.28125 53.609375 
Q 42.625 51.21875 45.40625 46.390625 
L 45.40625 54.6875 
L 54.390625 54.6875 
z
" id="DejaVuSans-67"/>
      <path d="M 54.890625 33.015625 
L 54.890625 0 
L 45.90625 0 
L 45.90625 32.71875 
Q 45.90625 40.484375 42.875 44.328125 
Q 39.84375 48.1875 33.796875 48.1875 
Q 26.515625 48.1875 22.3125 43.546875 
Q 18.109375 38.921875 18.109375 30.90625 
L 18.109375 0 
L 9.078125 0 
L 9.078125 75.984375 
L 18.109375 75.984375 
L 18.109375 46.1875 
Q 21.34375 51.125 25.703125 53.5625 
Q 30.078125 56 35.796875 56 
Q 45.21875 56 50.046875 50.171875 
Q 54.890625 44.34375 54.890625 33.015625 
z
" id="DejaVuSans-68"/>
      <path d="M 18.3125 70.21875 
L 18.3125 54.6875 
L 36.8125 54.6875 
L 36.8125 47.703125 
L 18.3125 47.703125 
L 18.3125 18.015625 
Q 18.3125 11.328125 20.140625 9.421875 
Q 21.96875 7.515625 27.59375 7.515625 
L 36.8125 7.515625 
L 36.8125 0 
L 27.59375 0 
Q 17.1875 0 13.234375 3.875 
Q 9.28125 7.765625 9.28125 18.015625 
L 9.28125 47.703125 
L 2.6875 47.703125 
L 2.6875 54.6875 
L 9.28125 54.6875 
L 9.28125 70.21875 
z
" id="DejaVuSans-74"/>
     </defs>
     <g transform="translate(464.662156 156.10125)scale(0.1 -0.1)">
      <use xlink:href="#DejaVuSans-48"/>
      <use x="75.195312" xlink:href="#DejaVuSans-65"/>
      <use x="136.71875" xlink:href="#DejaVuSans-69"/>
      <use x="164.501953" xlink:href="#DejaVuSans-67"/>
      <use x="227.978516" xlink:href="#DejaVuSans-68"/>
      <use x="291.357422" xlink:href="#DejaVuSans-74"/>
     </g>
    </g>
    <g id="line2d_27">
     <path d="M 452.780125 167.279375 
L 472.780125 167.279375 
" style="fill:none;stroke:#e41a1c;stroke-linecap:square;"/>
    </g>
    <g id="line2d_28"/>
    <g id="text_22">
     <!-- 0.5 m -->
     <defs>
      <path d="M 10.6875 12.40625 
L 21 12.40625 
L 21 0 
L 10.6875 0 
z
" id="DejaVuSans-2e"/>
      <path id="DejaVuSans-20"/>
      <path d="M 52 44.1875 
Q 55.375 50.25 60.0625 53.125 
Q 64.75 56 71.09375 56 
Q 79.640625 56 84.28125 50.015625 
Q 88.921875 44.046875 88.921875 33.015625 
L 88.921875 0 
L 79.890625 0 
L 79.890625 32.71875 
Q 79.890625 40.578125 77.09375 44.375 
Q 74.3125 48.1875 68.609375 48.1875 
Q 61.625 48.1875 57.5625 43.546875 
Q 53.515625 38.921875 53.515625 30.90625 
L 53.515625 0 
L 44.484375 0 
L 44.484375 32.71875 
Q 44.484375 40.625 41.703125 44.40625 
Q 38.921875 48.1875 33.109375 48.1875 
Q 26.21875 48.1875 22.15625 43.53125 
Q 18.109375 38.875 18.109375 30.90625 
L 18.109375 0 
L 9.078125 0 
L 9.078125 54.6875 
L 18.109375 54.6875 
L 18.109375 46.1875 
Q 21.1875 51.21875 25.484375 53.609375 
Q 29.78125 56 35.6875 56 
Q 41.65625 56 45.828125 52.96875 
Q 50 49.953125 52 44.1875 
z
" id="DejaVuSans-6d"/>
     </defs>
     <g transform="translate(480.780125 170.779375)scale(0.1 -0.1)">
      <use xlink:href="#DejaVuSans-30"/>
      <use x="63.623047" xlink:href="#DejaVuSans-2e"/>
      <use x="95.410156" xlink:href="#DejaVuSans-35"/>
      <use x="159.033203" xlink:href="#DejaVuSans-20"/>
      <use x="190.820312" xlink:href="#DejaVuSans-6d"/>
     </g>
    </g>
    <g id="line2d_29">
     <path d="M 452.780125 181.9575 
L 472.780125 181.9575 
" style="fill:none;stroke:#377eb8;stroke-linecap:square;"/>
    </g>
    <g id="line2d_30"/>
    <g id="text_23">
     <!-- 1.0 m -->
     <g transform="translate(480.780125 185.4575)scale(0.1 -0.1)">
      <use xlink:href="#DejaVuSans-31"/>
      <use x="63.623047" xlink:href="#DejaVuSans-2e"/>
      <use x="95.410156" xlink:href="#DejaVuSans-30"/>
      <use x="159.033203" xlink:href="#DejaVuSans-20"/>
      <use x="190.820312" xlink:href="#DejaVuSans-6d"/>
     </g>
    </g>
    <g id="line2d_31">
     <path d="M 452.780125 196.635625 
L 472.780125 196.635625 
" style="fill:none;stroke:#4daf4a;stroke-linecap:square;"/>
    </g>
    <g id="line2d_32"/>
    <g id="text_24">
     <!-- 1.5 m -->
     <g transform="translate(480.780125 200.135625)scale(0.1 -0.1)">
      <use xlink:href="#DejaVuSans-31"/>
      <use x="63.623047" xlink:href="#DejaVuSans-2e"/>
      <use x="95.410156" xlink:href="#DejaVuSans-35"/>
      <use x="159.033203" xlink:href="#DejaVuSans-20"/>
      <use x="190.820312" xlink:href="#DejaVuSans-6d"/>
     </g>
    </g>
    <g id="line2d_33">
     <path d="M 452.780125 211.31375 
L 472.780125 211.31375 
" style="fill:none;stroke:#984ea3;stroke-linecap:square;"/>
    </g>
    <g id="line2d_34"/>
    <g id="text_25">
     <!-- 2.0 m -->
     <g transform="translate(480.780125 214.81375)scale(0.1 -0.1)">
      <use xlink:href="#DejaVuSans-32"/>
      <use x="63.623047" xlink:href="#DejaVuSans-2e"/>
      <use x="95.410156" xlink:href="#DejaVuSans-30"/>
      <use x="159.033203" xlink:href="#DejaVuSans-20"/>
      <use x="190.820312" xlink:href="#DejaVuSans-6d"/>
     </g>
    </g>
    <g id="line2d_35">
     <path d="M 452.780125 225.991875 
L 472.780125 225.991875 
" style="fill:none;stroke:#ff7f00;stroke-linecap:square;"/>
    </g>
    <g id="line2d_36"/>
    <g id="text_26">
     <!-- 2.5 m -->
     <g transform="translate(480.780125 229.491875)scale(0.1 -0.1)">
      <use xlink:href="#DejaVuSans-32"/>
      <use x="63.623047" xlink:href="#DejaVuSans-2e"/>
      <use x="95.410156" xlink:href="#DejaVuSans-35"/>
      <use x="159.033203" xlink:href="#DejaVuSans-20"/>
      <use x="190.820312" xlink:href="#DejaVuSans-6d"/>
     </g>
    </g>
    <g id="line2d_37">
     <path d="M 452.780125 240.67 
L 472.780125 240.67 
" style="fill:none;stroke:#a65628;stroke-linecap:square;"/>
    </g>
    <g id="line2d_38"/>
    <g id="text_27">
     <!-- 3.0 m -->
     <g transform="translate(480.780125 244.17)scale(0.1 -0.1)">
      <use xlink:href="#DejaVuSans-33"/>
      <use x="63.623047" xlink:href="#DejaVuSans-2e"/>
      <use x="95.410156" xlink:href="#DejaVuSans-30"/>
      <use x="159.033203" xlink:href="#DejaVuSans-20"/>
      <use x="190.820312" xlink:href="#DejaVuSans-6d"/>
     </g>
    </g>
   </g>
  </g>
 </g>
 <defs>
  <clipPath id="pd808414e6d">
   <path d="M 406.59625 290.714375 
C 406.59625 241.223743 386.915204 193.709494 351.920042 158.714333 
C 316.924881 123.719171 269.410632 104.038125 219.92 104.038125 
C 170.429368 104.038125 122.915119 123.719171 87.919958 158.714333 
C 52.924796 193.709494 33.24375 241.223743 33.24375 290.714375 
L 219.92 290.714375 
C 219.92 290.714375 219.92 290.714375 219.92 290.714375 
C 219.92 290.714375 219.92 290.714375 219.92 290.714375 
C 219.92 290.714375 219.92 290.714375 219.92 290.714375 
C 219.92 290.714375 219.92 290.714375 219.92 290.714375 
L 406.59625 290.714375 
z
"/>
  </clipPath>
 </defs>
</svg>
