<?xml version="1.0" encoding="utf-8" standalone="no"?>
<!DOCTYPE svg PUBLIC "-//W3C//DTD SVG 1.1//EN"
  "http://www.w3.org/Graphics/SVG/1.1/DTD/svg11.dtd">
<!-- Created with matplotlib (http://matplotlib.org/) -->
<svg height="388pt" version="1.1" viewBox="0 0 512 388" width="512pt" xmlns="http://www.w3.org/2000/svg" xmlns:xlink="http://www.w3.org/1999/xlink">
 <defs>
  <style type="text/css">
*{stroke-linecap:butt;stroke-linejoin:round;}
  </style>
 </defs>
 <g id="figure_1">
  <g id="patch_1">
   <path d="M 0 388.23 
L 512.32275 388.23 
L 512.32275 0 
L 0 0 
z
" style="fill:#ffffff;"/>
  </g>
  <g id="axes_1">
   <g id="patch_2">
    <path d="M 400.07375 285.8225 
C 400.07375 237.196474 380.736533 190.512303 346.35274 156.12851 
C 311.968947 121.744717 265.284776 102.4075 216.65875 102.4075 
C 168.032724 102.4075 121.348553 121.744717 86.96476 156.12851 
C 52.580967 190.512303 33.24375 237.196474 33.24375 285.8225 
L 216.65875 285.8225 
C 216.65875 285.8225 216.65875 285.8225 216.65875 285.8225 
C 216.65875 285.8225 216.65875 285.8225 216.65875 285.8225 
C 216.65875 285.8225 216.65875 285.8225 216.65875 285.8225 
C 216.65875 285.8225 216.65875 285.8225 216.65875 285.8225 
L 400.07375 285.8225 
z
" style="fill:#ffffff;"/>
   </g>
   <g id="matplotlib.axis_1">
    <g id="xtick_1">
     <g id="line2d_1">
      <path clip-path="url(#p06f9c084d4)" d="M 216.65875 285.8225 
L 400.07375 285.8225 
" style="fill:none;stroke:#b0b0b0;stroke-linecap:square;stroke-width:0.8;"/>
     </g>
     <g id="text_1">
      <!-- 0° -->
      <defs>
       <path d="M 31.78125 66.40625 
Q 24.171875 66.40625 20.328125 58.90625 
Q 16.5 51.421875 16.5 36.375 
Q 16.5 21.390625 20.328125 13.890625 
Q 24.171875 6.390625 31.78125 6.390625 
Q 39.453125 6.390625 43.28125 13.890625 
Q 47.125 21.390625 47.125 36.375 
Q 47.125 51.421875 43.28125 58.90625 
Q 39.453125 66.40625 31.78125 66.40625 
z
M 31.78125 74.21875 
Q 44.046875 74.21875 50.515625 64.515625 
Q 56.984375 54.828125 56.984375 36.375 
Q 56.984375 17.96875 50.515625 8.265625 
Q 44.046875 -1.421875 31.78125 -1.421875 
Q 19.53125 -1.421875 13.0625 8.265625 
Q 6.59375 17.96875 6.59375 36.375 
Q 6.59375 54.828125 13.0625 64.515625 
Q 19.53125 74.21875 31.78125 74.21875 
z
" id="DejaVuSans-30"/>
       <path d="M 25 67.921875 
Q 21.09375 67.921875 18.40625 65.203125 
Q 15.71875 62.5 15.71875 58.59375 
Q 15.71875 54.734375 18.40625 52.078125 
Q 21.09375 49.421875 25 49.421875 
Q 28.90625 49.421875 31.59375 52.078125 
Q 34.28125 54.734375 34.28125 58.59375 
Q 34.28125 62.453125 31.5625 65.1875 
Q 28.859375 67.921875 25 67.921875 
z
M 25 74.21875 
Q 28.125 74.21875 31 73.015625 
Q 33.890625 71.828125 35.984375 69.578125 
Q 38.234375 67.390625 39.359375 64.59375 
Q 40.484375 61.8125 40.484375 58.59375 
Q 40.484375 52.15625 35.96875 47.6875 
Q 31.453125 43.21875 24.90625 43.21875 
Q 18.3125 43.21875 13.90625 47.609375 
Q 9.515625 52 9.515625 58.59375 
Q 9.515625 65.140625 14 69.671875 
Q 18.5 74.21875 25 74.21875 
z
" id="DejaVuSans-b0"/>
      </defs>
      <g transform="translate(408.3925 288.581875)scale(0.1 -0.1)">
       <use xlink:href="#DejaVuSans-30"/>
       <use x="63.623047" xlink:href="#DejaVuSans-b0"/>
      </g>
     </g>
    </g>
    <g id="xtick_2">
     <g id="line2d_2">
      <path clip-path="url(#p06f9c084d4)" d="M 216.65875 285.8225 
L 393.824035 238.351205 
" style="fill:none;stroke:#b0b0b0;stroke-linecap:square;stroke-width:0.8;"/>
     </g>
     <g id="text_2">
      <!-- 15° -->
      <defs>
       <path d="M 12.40625 8.296875 
L 28.515625 8.296875 
L 28.515625 63.921875 
L 10.984375 60.40625 
L 10.984375 69.390625 
L 28.421875 72.90625 
L 38.28125 72.90625 
L 38.28125 8.296875 
L 54.390625 8.296875 
L 54.390625 0 
L 12.40625 0 
z
" id="DejaVuSans-31"/>
       <path d="M 10.796875 72.90625 
L 49.515625 72.90625 
L 49.515625 64.59375 
L 19.828125 64.59375 
L 19.828125 46.734375 
Q 21.96875 47.46875 24.109375 47.828125 
Q 26.265625 48.1875 28.421875 48.1875 
Q 40.625 48.1875 47.75 41.5 
Q 54.890625 34.8125 54.890625 23.390625 
Q 54.890625 11.625 47.5625 5.09375 
Q 40.234375 -1.421875 26.90625 -1.421875 
Q 22.3125 -1.421875 17.546875 -0.640625 
Q 12.796875 0.140625 7.71875 1.703125 
L 7.71875 11.625 
Q 12.109375 9.234375 16.796875 8.0625 
Q 21.484375 6.890625 26.703125 6.890625 
Q 35.15625 6.890625 40.078125 11.328125 
Q 45.015625 15.765625 45.015625 23.390625 
Q 45.015625 31 40.078125 35.4375 
Q 35.15625 39.890625 26.703125 39.890625 
Q 22.75 39.890625 18.8125 39.015625 
Q 14.890625 38.140625 10.796875 36.28125 
z
" id="DejaVuSans-35"/>
      </defs>
      <g transform="translate(398.484497 237.487113)scale(0.1 -0.1)">
       <use xlink:href="#DejaVuSans-31"/>
       <use x="63.623047" xlink:href="#DejaVuSans-35"/>
       <use x="127.246094" xlink:href="#DejaVuSans-b0"/>
      </g>
     </g>
    </g>
    <g id="xtick_3">
     <g id="line2d_3">
      <path clip-path="url(#p06f9c084d4)" d="M 216.65875 285.8225 
L 375.500799 194.115 
" style="fill:none;stroke:#b0b0b0;stroke-linecap:square;stroke-width:0.8;"/>
     </g>
     <g id="text_3">
      <!-- 30° -->
      <defs>
       <path d="M 40.578125 39.3125 
Q 47.65625 37.796875 51.625 33 
Q 55.609375 28.21875 55.609375 21.1875 
Q 55.609375 10.40625 48.1875 4.484375 
Q 40.765625 -1.421875 27.09375 -1.421875 
Q 22.515625 -1.421875 17.65625 -0.515625 
Q 12.796875 0.390625 7.625 2.203125 
L 7.625 11.71875 
Q 11.71875 9.328125 16.59375 8.109375 
Q 21.484375 6.890625 26.8125 6.890625 
Q 36.078125 6.890625 40.9375 10.546875 
Q 45.796875 14.203125 45.796875 21.1875 
Q 45.796875 27.640625 41.28125 31.265625 
Q 36.765625 34.90625 28.71875 34.90625 
L 20.21875 34.90625 
L 20.21875 43.015625 
L 29.109375 43.015625 
Q 36.375 43.015625 40.234375 45.921875 
Q 44.09375 48.828125 44.09375 54.296875 
Q 44.09375 59.90625 40.109375 62.90625 
Q 36.140625 65.921875 28.71875 65.921875 
Q 24.65625 65.921875 20.015625 65.03125 
Q 15.375 64.15625 9.8125 62.3125 
L 9.8125 71.09375 
Q 15.4375 72.65625 20.34375 73.4375 
Q 25.25 74.21875 29.59375 74.21875 
Q 40.828125 74.21875 47.359375 69.109375 
Q 53.90625 64.015625 53.90625 55.328125 
Q 53.90625 49.265625 50.4375 45.09375 
Q 46.96875 40.921875 40.578125 39.3125 
z
" id="DejaVuSans-33"/>
      </defs>
      <g transform="translate(378.762655 189.874375)scale(0.1 -0.1)">
       <use xlink:href="#DejaVuSans-33"/>
       <use x="63.623047" xlink:href="#DejaVuSans-30"/>
       <use x="127.246094" xlink:href="#DejaVuSans-b0"/>
      </g>
     </g>
    </g>
    <g id="xtick_4">
     <g id="line2d_4">
      <path clip-path="url(#p06f9c084d4)" d="M 216.65875 285.8225 
L 346.35274 156.12851 
" style="fill:none;stroke:#b0b0b0;stroke-linecap:square;stroke-width:0.8;"/>
     </g>
     <g id="text_4">
      <!-- 45° -->
      <defs>
       <path d="M 37.796875 64.3125 
L 12.890625 25.390625 
L 37.796875 25.390625 
z
M 35.203125 72.90625 
L 47.609375 72.90625 
L 47.609375 25.390625 
L 58.015625 25.390625 
L 58.015625 17.1875 
L 47.609375 17.1875 
L 47.609375 0 
L 37.796875 0 
L 37.796875 17.1875 
L 4.890625 17.1875 
L 4.890625 26.703125 
z
" id="DejaVuSans-34"/>
      </defs>
      <g transform="translate(347.389735 148.98839)scale(0.1 -0.1)">
       <use xlink:href="#DejaVuSans-34"/>
       <use x="63.623047" xlink:href="#DejaVuSans-35"/>
       <use x="127.246094" xlink:href="#DejaVuSans-b0"/>
      </g>
     </g>
    </g>
    <g id="xtick_5">
     <g id="line2d_5">
      <path clip-path="url(#p06f9c084d4)" d="M 216.65875 285.8225 
L 308.36625 126.980451 
" style="fill:none;stroke:#b0b0b0;stroke-linecap:square;stroke-width:0.8;"/>
     </g>
     <g id="text_5">
      <!-- 60° -->
      <defs>
       <path d="M 33.015625 40.375 
Q 26.375 40.375 22.484375 35.828125 
Q 18.609375 31.296875 18.609375 23.390625 
Q 18.609375 15.53125 22.484375 10.953125 
Q 26.375 6.390625 33.015625 6.390625 
Q 39.65625 6.390625 43.53125 10.953125 
Q 47.40625 15.53125 47.40625 23.390625 
Q 47.40625 31.296875 43.53125 35.828125 
Q 39.65625 40.375 33.015625 40.375 
z
M 52.59375 71.296875 
L 52.59375 62.3125 
Q 48.875 64.0625 45.09375 64.984375 
Q 41.3125 65.921875 37.59375 65.921875 
Q 27.828125 65.921875 22.671875 59.328125 
Q 17.53125 52.734375 16.796875 39.40625 
Q 19.671875 43.65625 24.015625 45.921875 
Q 28.375 48.1875 33.59375 48.1875 
Q 44.578125 48.1875 50.953125 41.515625 
Q 57.328125 34.859375 57.328125 23.390625 
Q 57.328125 12.15625 50.6875 5.359375 
Q 44.046875 -1.421875 33.015625 -1.421875 
Q 20.359375 -1.421875 13.671875 8.265625 
Q 6.984375 17.96875 6.984375 36.375 
Q 6.984375 53.65625 15.1875 63.9375 
Q 23.390625 74.21875 37.203125 74.21875 
Q 40.921875 74.21875 44.703125 73.484375 
Q 48.484375 72.75 52.59375 71.296875 
z
" id="DejaVuSans-36"/>
      </defs>
      <g transform="translate(306.50375 117.61547)scale(0.1 -0.1)">
       <use xlink:href="#DejaVuSans-36"/>
       <use x="63.623047" xlink:href="#DejaVuSans-30"/>
       <use x="127.246094" xlink:href="#DejaVuSans-b0"/>
      </g>
     </g>
    </g>
    <g id="xtick_6">
     <g id="line2d_6">
      <path clip-path="url(#p06f9c084d4)" d="M 216.65875 285.8225 
L 264.130045 108.657215 
" style="fill:none;stroke:#b0b0b0;stroke-linecap:square;stroke-width:0.8;"/>
     </g>
     <g id="text_6">
      <!-- 75° -->
      <defs>
       <path d="M 8.203125 72.90625 
L 55.078125 72.90625 
L 55.078125 68.703125 
L 28.609375 0 
L 18.3125 0 
L 43.21875 64.59375 
L 8.203125 64.59375 
z
" id="DejaVuSans-37"/>
      </defs>
      <g transform="translate(258.891012 97.893628)scale(0.1 -0.1)">
       <use xlink:href="#DejaVuSans-37"/>
       <use x="63.623047" xlink:href="#DejaVuSans-35"/>
       <use x="127.246094" xlink:href="#DejaVuSans-b0"/>
      </g>
     </g>
    </g>
    <g id="xtick_7">
     <g id="line2d_7">
      <path clip-path="url(#p06f9c084d4)" d="M 216.65875 285.8225 
L 216.65875 102.4075 
" style="fill:none;stroke:#b0b0b0;stroke-linecap:square;stroke-width:0.8;"/>
     </g>
     <g id="text_7">
      <!-- 90° -->
      <defs>
       <path d="M 10.984375 1.515625 
L 10.984375 10.5 
Q 14.703125 8.734375 18.5 7.8125 
Q 22.3125 6.890625 25.984375 6.890625 
Q 35.75 6.890625 40.890625 13.453125 
Q 46.046875 20.015625 46.78125 33.40625 
Q 43.953125 29.203125 39.59375 26.953125 
Q 35.25 24.703125 29.984375 24.703125 
Q 19.046875 24.703125 12.671875 31.3125 
Q 6.296875 37.9375 6.296875 49.421875 
Q 6.296875 60.640625 12.9375 67.421875 
Q 19.578125 74.21875 30.609375 74.21875 
Q 43.265625 74.21875 49.921875 64.515625 
Q 56.59375 54.828125 56.59375 36.375 
Q 56.59375 19.140625 48.40625 8.859375 
Q 40.234375 -1.421875 26.421875 -1.421875 
Q 22.703125 -1.421875 18.890625 -0.6875 
Q 15.09375 0.046875 10.984375 1.515625 
z
M 30.609375 32.421875 
Q 37.25 32.421875 41.125 36.953125 
Q 45.015625 41.5 45.015625 49.421875 
Q 45.015625 57.28125 41.125 61.84375 
Q 37.25 66.40625 30.609375 66.40625 
Q 23.96875 66.40625 20.09375 61.84375 
Q 16.21875 57.28125 16.21875 49.421875 
Q 16.21875 41.5 20.09375 36.953125 
Q 23.96875 32.421875 30.609375 32.421875 
z
" id="DejaVuSans-39"/>
      </defs>
      <g transform="translate(207.79625 91.166875)scale(0.1 -0.1)">
       <use xlink:href="#DejaVuSans-39"/>
       <use x="63.623047" xlink:href="#DejaVuSans-30"/>
       <use x="127.246094" xlink:href="#DejaVuSans-b0"/>
      </g>
     </g>
    </g>
    <g id="xtick_8">
     <g id="line2d_8">
      <path clip-path="url(#p06f9c084d4)" d="M 216.65875 285.8225 
L 169.187455 108.657215 
" style="fill:none;stroke:#b0b0b0;stroke-linecap:square;stroke-width:0.8;"/>
     </g>
     <g id="text_8">
      <!-- 105° -->
      <g transform="translate(153.520238 97.893628)scale(0.1 -0.1)">
       <use xlink:href="#DejaVuSans-31"/>
       <use x="63.623047" xlink:href="#DejaVuSans-30"/>
       <use x="127.246094" xlink:href="#DejaVuSans-35"/>
       <use x="190.869141" xlink:href="#DejaVuSans-b0"/>
      </g>
     </g>
    </g>
    <g id="xtick_9">
     <g id="line2d_9">
      <path clip-path="url(#p06f9c084d4)" d="M 216.65875 285.8225 
L 124.95125 126.980451 
" style="fill:none;stroke:#b0b0b0;stroke-linecap:square;stroke-width:0.8;"/>
     </g>
     <g id="text_9">
      <!-- 120° -->
      <defs>
       <path d="M 19.1875 8.296875 
L 53.609375 8.296875 
L 53.609375 0 
L 7.328125 0 
L 7.328125 8.296875 
Q 12.9375 14.109375 22.625 23.890625 
Q 32.328125 33.6875 34.8125 36.53125 
Q 39.546875 41.84375 41.421875 45.53125 
Q 43.3125 49.21875 43.3125 52.78125 
Q 43.3125 58.59375 39.234375 62.25 
Q 35.15625 65.921875 28.609375 65.921875 
Q 23.96875 65.921875 18.8125 64.3125 
Q 13.671875 62.703125 7.8125 59.421875 
L 7.8125 69.390625 
Q 13.765625 71.78125 18.9375 73 
Q 24.125 74.21875 28.421875 74.21875 
Q 39.75 74.21875 46.484375 68.546875 
Q 53.21875 62.890625 53.21875 53.421875 
Q 53.21875 48.921875 51.53125 44.890625 
Q 49.859375 40.875 45.40625 35.40625 
Q 44.1875 33.984375 37.640625 27.21875 
Q 31.109375 20.453125 19.1875 8.296875 
z
" id="DejaVuSans-32"/>
      </defs>
      <g transform="translate(105.9075 117.61547)scale(0.1 -0.1)">
       <use xlink:href="#DejaVuSans-31"/>
       <use x="63.623047" xlink:href="#DejaVuSans-32"/>
       <use x="127.246094" xlink:href="#DejaVuSans-30"/>
       <use x="190.869141" xlink:href="#DejaVuSans-b0"/>
      </g>
     </g>
    </g>
    <g id="xtick_10">
     <g id="line2d_10">
      <path clip-path="url(#p06f9c084d4)" d="M 216.65875 285.8225 
L 86.96476 156.12851 
" style="fill:none;stroke:#b0b0b0;stroke-linecap:square;stroke-width:0.8;"/>
     </g>
     <g id="text_10">
      <!-- 135° -->
      <g transform="translate(65.021515 148.98839)scale(0.1 -0.1)">
       <use xlink:href="#DejaVuSans-31"/>
       <use x="63.623047" xlink:href="#DejaVuSans-33"/>
       <use x="127.246094" xlink:href="#DejaVuSans-35"/>
       <use x="190.869141" xlink:href="#DejaVuSans-b0"/>
      </g>
     </g>
    </g>
    <g id="xtick_11">
     <g id="line2d_11">
      <path clip-path="url(#p06f9c084d4)" d="M 216.65875 285.8225 
L 57.816701 194.115 
" style="fill:none;stroke:#b0b0b0;stroke-linecap:square;stroke-width:0.8;"/>
     </g>
     <g id="text_11">
      <!-- 150° -->
      <g transform="translate(33.648595 189.874375)scale(0.1 -0.1)">
       <use xlink:href="#DejaVuSans-31"/>
       <use x="63.623047" xlink:href="#DejaVuSans-35"/>
       <use x="127.246094" xlink:href="#DejaVuSans-30"/>
       <use x="190.869141" xlink:href="#DejaVuSans-b0"/>
      </g>
     </g>
    </g>
    <g id="xtick_12">
     <g id="line2d_12">
      <path clip-path="url(#p06f9c084d4)" d="M 216.65875 285.8225 
L 39.493465 238.351205 
" style="fill:none;stroke:#b0b0b0;stroke-linecap:square;stroke-width:0.8;"/>
     </g>
     <g id="text_12">
      <!-- 165° -->
      <g transform="translate(13.926753 237.487113)scale(0.1 -0.1)">
       <use xlink:href="#DejaVuSans-31"/>
       <use x="63.623047" xlink:href="#DejaVuSans-36"/>
       <use x="127.246094" xlink:href="#DejaVuSans-35"/>
       <use x="190.869141" xlink:href="#DejaVuSans-b0"/>
      </g>
     </g>
    </g>
    <g id="xtick_13">
     <g id="line2d_13">
      <path clip-path="url(#p06f9c084d4)" d="M 216.65875 285.8225 
L 33.24375 285.8225 
" style="fill:none;stroke:#b0b0b0;stroke-linecap:square;stroke-width:0.8;"/>
     </g>
     <g id="text_13">
      <!-- 180° -->
      <defs>
       <path d="M 31.78125 34.625 
Q 24.75 34.625 20.71875 30.859375 
Q 16.703125 27.09375 16.703125 20.515625 
Q 16.703125 13.921875 20.71875 10.15625 
Q 24.75 6.390625 31.78125 6.390625 
Q 38.8125 6.390625 42.859375 10.171875 
Q 46.921875 13.96875 46.921875 20.515625 
Q 46.921875 27.09375 42.890625 30.859375 
Q 38.875 34.625 31.78125 34.625 
z
M 21.921875 38.8125 
Q 15.578125 40.375 12.03125 44.71875 
Q 8.5 49.078125 8.5 55.328125 
Q 8.5 64.0625 14.71875 69.140625 
Q 20.953125 74.21875 31.78125 74.21875 
Q 42.671875 74.21875 48.875 69.140625 
Q 55.078125 64.0625 55.078125 55.328125 
Q 55.078125 49.078125 51.53125 44.71875 
Q 48 40.375 41.703125 38.8125 
Q 48.828125 37.15625 52.796875 32.3125 
Q 56.78125 27.484375 56.78125 20.515625 
Q 56.78125 9.90625 50.3125 4.234375 
Q 43.84375 -1.421875 31.78125 -1.421875 
Q 19.734375 -1.421875 13.25 4.234375 
Q 6.78125 9.90625 6.78125 20.515625 
Q 6.78125 27.484375 10.78125 32.3125 
Q 14.796875 37.15625 21.921875 38.8125 
z
M 18.3125 54.390625 
Q 18.3125 48.734375 21.84375 45.5625 
Q 25.390625 42.390625 31.78125 42.390625 
Q 38.140625 42.390625 41.71875 45.5625 
Q 45.3125 48.734375 45.3125 54.390625 
Q 45.3125 60.0625 41.71875 63.234375 
Q 38.140625 66.40625 31.78125 66.40625 
Q 25.390625 66.40625 21.84375 63.234375 
Q 18.3125 60.0625 18.3125 54.390625 
z
" id="DejaVuSans-38"/>
      </defs>
      <g transform="translate(7.2 288.581875)scale(0.1 -0.1)">
       <use xlink:href="#DejaVuSans-31"/>
       <use x="63.623047" xlink:href="#DejaVuSans-38"/>
       <use x="127.246094" xlink:href="#DejaVuSans-30"/>
       <use x="190.869141" xlink:href="#DejaVuSans-b0"/>
      </g>
     </g>
    </g>
   </g>
   <g id="matplotlib.axis_2">
    <g id="ytick_1">
     <g id="line2d_14">
      <path clip-path="url(#p06f9c084d4)" d="M 216.65875 285.8225 
L 216.65875 285.8225 
" style="fill:none;stroke:#b0b0b0;stroke-linecap:square;stroke-width:0.8;"/>
     </g>
     <g id="text_14">
      <!-- −20 -->
      <defs>
       <path d="M 10.59375 35.5 
L 73.1875 35.5 
L 73.1875 27.203125 
L 10.59375 27.203125 
z
" id="DejaVuSans-2212"/>
      </defs>
      <g transform="translate(206.106406 300.420937)scale(0.1 -0.1)">
       <use xlink:href="#DejaVuSans-2212"/>
       <use x="83.789062" xlink:href="#DejaVuSans-32"/>
       <use x="147.412109" xlink:href="#DejaVuSans-30"/>
      </g>
     </g>
    </g>
    <g id="ytick_2">
     <g id="line2d_15">
      <path clip-path="url(#p06f9c084d4)" d="M 247.227917 285.8225 
L 247.111592 283.158222 
L 246.763502 280.51422 
L 246.186298 277.910617 
L 245.38437 275.367229 
L 244.363824 272.903412 
L 243.132425 270.537917 
L 241.699545 268.288746 
L 240.07609 266.173018 
L 238.274415 264.206835 
L 236.308232 262.40516 
L 234.192504 260.781705 
L 231.943333 259.348825 
L 229.577838 258.117426 
L 227.114021 257.09688 
L 224.570633 256.294952 
L 221.96703 255.717748 
L 219.323028 255.369658 
L 216.65875 255.253333 
L 213.994472 255.369658 
L 211.35047 255.717748 
L 208.746867 256.294952 
L 206.203479 257.09688 
L 203.739662 258.117426 
L 201.374167 259.348825 
L 199.124996 260.781705 
L 197.009268 262.40516 
L 195.043085 264.206835 
L 193.24141 266.173018 
L 191.617955 268.288746 
L 190.185075 270.537917 
L 188.953676 272.903412 
L 187.93313 275.367229 
L 187.131202 277.910617 
L 186.553998 280.51422 
L 186.205908 283.158222 
L 186.089583 285.8225 
L 186.089583 285.8225 
" style="fill:none;stroke:#b0b0b0;stroke-linecap:square;stroke-width:0.8;"/>
     </g>
     <g id="text_15">
      <!-- −15 -->
      <g transform="translate(236.675573 300.420937)scale(0.1 -0.1)">
       <use xlink:href="#DejaVuSans-2212"/>
       <use x="83.789062" xlink:href="#DejaVuSans-31"/>
       <use x="147.412109" xlink:href="#DejaVuSans-35"/>
      </g>
     </g>
    </g>
    <g id="ytick_3">
     <g id="line2d_16">
      <path clip-path="url(#p06f9c084d4)" d="M 277.797083 285.8225 
L 277.713295 282.622767 
L 277.462161 279.431804 
L 277.044369 276.258358 
L 276.461064 273.111126 
L 275.713845 269.998735 
L 274.80476 266.929716 
L 273.736301 263.912481 
L 272.511397 260.9553 
L 271.133404 258.066277 
L 269.6061 255.253333 
L 267.933671 252.524177 
L 266.120701 249.886289 
L 264.172159 247.3469 
L 262.093386 244.91297 
L 259.89008 242.59117 
L 257.56828 240.387864 
L 255.13435 238.309091 
L 252.594961 236.360549 
L 249.957073 234.547579 
L 247.227917 232.87515 
L 244.414973 231.347846 
L 241.52595 229.969853 
L 238.568769 228.744949 
L 235.551534 227.67649 
L 232.482515 226.767405 
L 229.370124 226.020186 
L 226.222892 225.436881 
L 223.049446 225.019089 
L 219.858483 224.767955 
L 216.65875 224.684167 
L 213.459017 224.767955 
L 210.268054 225.019089 
L 207.094608 225.436881 
L 203.947376 226.020186 
L 200.834985 226.767405 
L 197.765966 227.67649 
L 194.748731 228.744949 
L 191.79155 229.969853 
L 188.902527 231.347846 
L 186.089583 232.87515 
L 183.360427 234.547579 
L 180.722539 236.360549 
L 178.18315 238.309091 
L 175.74922 240.387864 
L 173.42742 242.59117 
L 171.224114 244.91297 
L 169.145341 247.3469 
L 167.196799 249.886289 
L 165.383829 252.524177 
L 163.7114 255.253333 
L 162.184096 258.066277 
L 160.806103 260.9553 
L 159.581199 263.912481 
L 158.51274 266.929716 
L 157.603655 269.998735 
L 156.856436 273.111126 
L 156.273131 276.258358 
L 155.855339 279.431804 
L 155.604205 282.622767 
L 155.520417 285.8225 
L 155.520417 285.8225 
" style="fill:none;stroke:#b0b0b0;stroke-linecap:square;stroke-width:0.8;"/>
     </g>
     <g id="text_16">
      <!-- −10 -->
      <g transform="translate(267.24474 300.420937)scale(0.1 -0.1)">
       <use xlink:href="#DejaVuSans-2212"/>
       <use x="83.789062" xlink:href="#DejaVuSans-31"/>
       <use x="147.412109" xlink:href="#DejaVuSans-30"/>
      </g>
     </g>
    </g>
    <g id="ytick_4">
     <g id="line2d_17">
      <path clip-path="url(#p06f9c084d4)" d="M 308.36625 285.8225 
L 308.240568 281.0229 
L 307.863867 276.236456 
L 307.237178 271.476286 
L 306.362221 266.755439 
L 305.241393 262.086852 
L 303.877765 257.483324 
L 302.275077 252.957471 
L 300.43772 248.521699 
L 298.370731 244.188166 
L 296.079775 239.96875 
L 293.571131 235.875016 
L 290.851676 231.918184 
L 287.928863 228.1091 
L 284.810704 224.458205 
L 281.505745 220.975505 
L 278.023045 217.670546 
L 274.37215 214.552387 
L 270.563066 211.629574 
L 266.606234 208.910119 
L 262.5125 206.401475 
L 258.293084 204.110519 
L 253.959551 202.04353 
L 249.523779 200.206173 
L 244.997926 198.603485 
L 240.394398 197.239857 
L 235.725811 196.119029 
L 231.004964 195.244072 
L 226.244794 194.617383 
L 221.45835 194.240682 
L 216.65875 194.115 
L 211.85915 194.240682 
L 207.072706 194.617383 
L 202.312536 195.244072 
L 197.591689 196.119029 
L 192.923102 197.239857 
L 188.319574 198.603485 
L 183.793721 200.206173 
L 179.357949 202.04353 
L 175.024416 204.110519 
L 170.805 206.401475 
L 166.711266 208.910119 
L 162.754434 211.629574 
L 158.94535 214.552387 
L 155.294455 217.670546 
L 151.811755 220.975505 
L 148.506796 224.458205 
L 145.388637 228.1091 
L 142.465824 231.918184 
L 139.746369 235.875016 
L 137.237725 239.96875 
L 134.946769 244.188166 
L 132.87978 248.521699 
L 131.042423 252.957471 
L 129.439735 257.483324 
L 128.076107 262.086852 
L 126.955279 266.755439 
L 126.080322 271.476286 
L 125.453633 276.236456 
L 125.076932 281.0229 
L 124.95125 285.8225 
L 124.95125 285.8225 
" style="fill:none;stroke:#b0b0b0;stroke-linecap:square;stroke-width:0.8;"/>
     </g>
     <g id="text_17">
      <!-- −5 -->
      <g transform="translate(300.995156 300.420937)scale(0.1 -0.1)">
       <use xlink:href="#DejaVuSans-2212"/>
       <use x="83.789062" xlink:href="#DejaVuSans-35"/>
      </g>
     </g>
    </g>
    <g id="ytick_5">
     <g id="line2d_18">
      <path clip-path="url(#p06f9c084d4)" d="M 338.935417 285.8225 
L 338.860929 281.555106 
L 338.637557 277.292911 
L 338.265572 273.041108 
L 337.745429 268.804877 
L 337.077759 264.58938 
L 336.263378 260.399751 
L 335.303277 256.241097 
L 334.198626 252.118483 
L 332.950771 248.036932 
L 331.561231 244.001417 
L 330.031701 240.016854 
L 328.364043 236.088099 
L 326.56029 232.219937 
L 324.622638 228.417082 
L 322.55345 224.684167 
L 320.355244 221.025739 
L 318.030701 217.446256 
L 315.582651 213.950079 
L 313.014078 210.541467 
L 310.328111 207.224574 
L 307.528022 204.00344 
L 304.617223 200.88199 
L 301.59926 197.864027 
L 298.47781 194.953228 
L 295.256676 192.153139 
L 291.939783 189.467172 
L 288.531171 186.898599 
L 285.034994 184.450549 
L 281.455511 182.126006 
L 277.797083 179.9278 
L 274.064168 177.858612 
L 270.261313 175.92096 
L 266.393151 174.117207 
L 262.464396 172.449549 
L 258.479833 170.920019 
L 254.444318 169.530479 
L 250.362767 168.282624 
L 246.240153 167.177973 
L 242.081499 166.217872 
L 237.89187 165.403491 
L 233.676373 164.735821 
L 229.440142 164.215678 
L 225.188339 163.843693 
L 220.926144 163.620321 
L 216.65875 163.545833 
L 212.391356 163.620321 
L 208.129161 163.843693 
L 203.877358 164.215678 
L 199.641127 164.735821 
L 195.42563 165.403491 
L 191.236001 166.217872 
L 187.077347 167.177973 
L 182.954733 168.282624 
L 178.873182 169.530479 
L 174.837667 170.920019 
L 170.853104 172.449549 
L 166.924349 174.117207 
L 163.056187 175.92096 
L 159.253332 177.858612 
L 155.520417 179.9278 
L 151.861989 182.126006 
L 148.282506 184.450549 
L 144.786329 186.898599 
L 141.377717 189.467172 
L 138.060824 192.153139 
L 134.83969 194.953228 
L 131.71824 197.864027 
L 128.700277 200.88199 
L 125.789478 204.00344 
L 122.989389 207.224574 
L 120.303422 210.541467 
L 117.734849 213.950079 
L 115.286799 217.446256 
L 112.962256 221.025739 
L 110.76405 224.684167 
L 108.694862 228.417082 
L 106.75721 232.219937 
L 104.953457 236.088099 
L 103.285799 240.016854 
L 101.756269 244.001417 
L 100.366729 248.036932 
L 99.118874 252.118483 
L 98.014223 256.241097 
L 97.054122 260.399751 
L 96.239741 264.58938 
L 95.572071 268.804877 
L 95.051928 273.041108 
L 94.679943 277.292911 
L 94.456571 281.555106 
L 94.382083 285.8225 
L 94.382083 285.8225 
" style="fill:none;stroke:#b0b0b0;stroke-linecap:square;stroke-width:0.8;"/>
     </g>
     <g id="text_18">
      <!-- 0 -->
      <g transform="translate(335.754167 300.420937)scale(0.1 -0.1)">
       <use xlink:href="#DejaVuSans-30"/>
      </g>
     </g>
    </g>
    <g id="ytick_6">
     <g id="line2d_19">
      <path clip-path="url(#p06f9c084d4)" d="M 369.504583 285.8225 
L 369.411474 280.488257 
L 369.132259 275.160514 
L 368.667278 269.84576 
L 368.017098 264.550471 
L 367.182512 259.2811 
L 366.164535 254.044064 
L 364.964409 248.845746 
L 363.583595 243.692479 
L 362.023776 238.59054 
L 360.286852 233.546146 
L 358.374939 228.565443 
L 356.290367 223.654499 
L 354.035675 218.819297 
L 351.613611 214.065728 
L 349.027125 209.399583 
L 346.279368 204.826548 
L 343.373689 200.352195 
L 340.313627 195.981973 
L 337.10291 191.721209 
L 333.745451 187.575092 
L 330.24534 183.548675 
L 326.606841 179.646862 
L 322.834388 175.874409 
L 318.932575 172.23591 
L 314.906158 168.735799 
L 310.760041 165.37834 
L 306.499277 162.167623 
L 302.129055 159.107561 
L 297.654702 156.201882 
L 293.081667 153.454125 
L 288.415522 150.867639 
L 283.661953 148.445575 
L 278.826751 146.190883 
L 273.915807 144.106311 
L 268.935104 142.194398 
L 263.89071 140.457474 
L 258.788771 138.897655 
L 253.635504 137.516841 
L 248.437186 136.316715 
L 243.20015 135.298738 
L 237.930779 134.464152 
L 232.63549 133.813972 
L 227.320736 133.348991 
L 221.992993 133.069776 
L 216.65875 132.976667 
L 211.324507 133.069776 
L 205.996764 133.348991 
L 200.68201 133.813972 
L 195.386721 134.464152 
L 190.11735 135.298738 
L 184.880314 136.316715 
L 179.681996 137.516841 
L 174.528729 138.897655 
L 169.42679 140.457474 
L 164.382396 142.194398 
L 159.401693 144.106311 
L 154.490749 146.190883 
L 149.655547 148.445575 
L 144.901978 150.867639 
L 140.235833 153.454125 
L 135.662798 156.201882 
L 131.188445 159.107561 
L 126.818223 162.167623 
L 122.557459 165.37834 
L 118.411342 168.735799 
L 114.384925 172.23591 
L 110.483112 175.874409 
L 106.710659 179.646862 
L 103.07216 183.548675 
L 99.572049 187.575092 
L 96.21459 191.721209 
L 93.003873 195.981973 
L 89.943811 200.352195 
L 87.038132 204.826548 
L 84.290375 209.399583 
L 81.703889 214.065728 
L 79.281825 218.819297 
L 77.027133 223.654499 
L 74.942561 228.565443 
L 73.030648 233.546146 
L 71.293724 238.59054 
L 69.733905 243.692479 
L 68.353091 248.845746 
L 67.152965 254.044064 
L 66.134988 259.2811 
L 65.300402 264.550471 
L 64.650222 269.84576 
L 64.185241 275.160514 
L 63.906026 280.488257 
L 63.812917 285.8225 
L 63.812917 285.8225 
" style="fill:none;stroke:#b0b0b0;stroke-linecap:square;stroke-width:0.8;"/>
     </g>
     <g id="text_19">
      <!-- 5 -->
      <g transform="translate(366.323333 300.420937)scale(0.1 -0.1)">
       <use xlink:href="#DejaVuSans-35"/>
      </g>
     </g>
    </g>
    <g id="ytick_7">
     <g id="line2d_20">
      <path clip-path="url(#p06f9c084d4)" d="M 400.07375 285.8225 
L 399.962019 279.421409 
L 399.62696 273.028116 
L 399.068983 266.650412 
L 398.288768 260.296066 
L 397.287264 253.972819 
L 396.065692 247.688377 
L 394.625541 241.450396 
L 392.968564 235.266474 
L 391.096781 229.144148 
L 389.012472 223.090875 
L 386.718177 217.114032 
L 384.21669 211.220899 
L 381.51106 205.418656 
L 378.604583 199.714373 
L 375.500799 194.115 
L 372.203492 188.627358 
L 368.716676 183.258134 
L 365.044602 178.013868 
L 361.191742 172.900951 
L 357.162792 167.925611 
L 352.962658 163.09391 
L 348.596459 158.411735 
L 344.069515 153.884791 
L 339.38734 149.518592 
L 334.555639 145.318458 
L 329.580299 141.289508 
L 324.467382 137.436648 
L 319.223116 133.764574 
L 313.853892 130.277758 
L 308.36625 126.980451 
L 302.766877 123.876667 
L 297.062594 120.97019 
L 291.260351 118.26456 
L 285.367218 115.763073 
L 279.390375 113.468778 
L 273.337102 111.384469 
L 267.214776 109.512686 
L 261.030854 107.855709 
L 254.792873 106.415558 
L 248.508431 105.193986 
L 242.185184 104.192482 
L 235.830838 103.412267 
L 229.453134 102.85429 
L 223.059841 102.519231 
L 216.65875 102.4075 
L 210.257659 102.519231 
L 203.864366 102.85429 
L 197.486662 103.412267 
L 191.132316 104.192482 
L 184.809069 105.193986 
L 178.524627 106.415558 
L 172.286646 107.855709 
L 166.102724 109.512686 
L 159.980398 111.384469 
L 153.927125 113.468778 
L 147.950282 115.763073 
L 142.057149 118.26456 
L 136.254906 120.97019 
L 130.550623 123.876667 
L 124.95125 126.980451 
L 119.463608 130.277758 
L 114.094384 133.764574 
L 108.850118 137.436648 
L 103.737201 141.289508 
L 98.761861 145.318458 
L 93.93016 149.518592 
L 89.247985 153.884791 
L 84.721041 158.411735 
L 80.354842 163.09391 
L 76.154708 167.925611 
L 72.125758 172.900951 
L 68.272898 178.013868 
L 64.600824 183.258134 
L 61.114008 188.627358 
L 57.816701 194.115 
L 54.712917 199.714373 
L 51.80644 205.418656 
L 49.10081 211.220899 
L 46.599323 217.114032 
L 44.305028 223.090875 
L 42.220719 229.144148 
L 40.348936 235.266474 
L 38.691959 241.450396 
L 37.251808 247.688377 
L 36.030236 253.972819 
L 35.028732 260.296066 
L 34.248517 266.650412 
L 33.69054 273.028116 
L 33.355481 279.421409 
L 33.24375 285.8225 
L 33.24375 285.8225 
" style="fill:none;stroke:#b0b0b0;stroke-linecap:square;stroke-width:0.8;"/>
     </g>
     <g id="text_20">
      <!-- 10 -->
      <g transform="translate(393.71125 300.420937)scale(0.1 -0.1)">
       <use xlink:href="#DejaVuSans-31"/>
       <use x="63.623047" xlink:href="#DejaVuSans-30"/>
      </g>
     </g>
    </g>
   </g>
   <g id="line2d_21">
    <path clip-path="url(#p06f9c084d4)" d="M 235.300963 285.497099 
L 271.724377 283.899566 
L 292.772282 281.833559 
L 307.460882 279.472996 
L 318.613714 276.902596 
L 327.487466 274.173933 
L 334.752006 271.322471 
L 340.806987 268.374603 
L 345.910165 265.351087 
L 350.237631 262.268939 
L 353.915156 259.142557 
L 357.035838 255.984429 
L 359.670652 252.805601 
L 361.875077 249.616003 
L 363.693427 246.424677 
L 365.161777 243.239942 
L 366.31 240.069521 
L 367.163222 236.920633 
L 367.742873 233.800064 
L 368.06748 230.714229 
L 368.153251 227.66921 
L 368.014534 224.670794 
L 367.664164 221.724505 
L 367.113743 218.835621 
L 366.373856 216.009199 
L 365.454248 213.250087 
L 364.363964 210.562934 
L 363.111466 207.95221 
L 361.704727 205.422202 
L 360.151311 202.977031 
L 358.458437 200.620652 
L 356.633034 198.35686 
L 354.681786 196.189292 
L 352.611178 194.12143 
L 350.42752 192.156599 
L 348.136984 190.297971 
L 345.745629 188.54856 
L 343.25942 186.911216 
L 340.684253 185.388628 
L 338.02597 183.983311 
L 335.290381 182.697597 
L 332.483276 181.533629 
L 329.610443 180.493342 
L 326.677687 179.578448 
L 323.690837 178.790413 
L 320.655772 178.130431 
L 317.578431 177.599392 
L 314.464831 177.197843 
L 311.321084 176.925941 
L 308.153419 176.783399 
L 304.968194 176.769419 
L 301.771918 176.882613 
L 298.571267 177.120919 
L 295.3731 177.481491 
L 292.184474 177.960588 
L 285.865068 179.254115 
L 279.673432 180.948458 
L 273.672323 182.967292 
L 267.924725 185.207358 
L 259.904823 188.690229 
L 252.729113 191.855991 
L 248.432724 193.544179 
L 244.494342 194.776382 
L 240.854474 195.522829 
L 237.436929 195.822318 
L 234.163719 195.767239 
L 230.967859 195.478343 
L 221.451685 194.367853 
L 218.25808 194.196936 
L 215.05942 194.196936 
L 211.865815 194.367853 
L 207.099734 194.874539 
L 200.757862 195.644085 
L 197.530658 195.831901 
L 194.194584 195.723652 
L 190.675864 195.209409 
L 186.895556 194.220807 
L 182.784039 192.752495 
L 178.294874 190.868574 
L 165.392775 185.207358 
L 159.645177 182.967292 
L 153.644068 180.948458 
L 147.452432 179.254115 
L 141.133026 177.960588 
L 137.9444 177.481491 
L 134.746233 177.120919 
L 131.545582 176.882613 
L 128.349306 176.769419 
L 125.164081 176.783399 
L 121.996416 176.925941 
L 118.852669 177.197843 
L 115.739069 177.599392 
L 112.661728 178.130431 
L 109.626663 178.790413 
L 106.639813 179.578448 
L 103.707057 180.493342 
L 100.834224 181.533629 
L 98.027119 182.697597 
L 95.29153 183.983311 
L 92.633247 185.388628 
L 90.05808 186.911216 
L 87.571871 188.54856 
L 85.180516 190.297971 
L 82.88998 192.156599 
L 80.706322 194.12143 
L 78.635714 196.189292 
L 76.684466 198.35686 
L 74.859063 200.620652 
L 73.166189 202.977031 
L 71.612773 205.422202 
L 70.206034 207.95221 
L 68.953536 210.562934 
L 67.863252 213.250087 
L 66.943644 216.009199 
L 66.203757 218.835621 
L 65.653336 221.724505 
L 65.302966 224.670794 
L 65.164249 227.66921 
L 65.25002 230.714229 
L 65.574627 233.800064 
L 66.154278 236.920633 
L 67.0075 240.069521 
L 68.155723 243.239942 
L 69.624073 246.424677 
L 71.442423 249.616003 
L 73.646848 252.805601 
L 76.281662 255.984429 
L 79.402344 259.142557 
L 83.079869 262.268939 
L 87.407335 265.351087 
L 92.510513 268.374603 
L 98.565494 271.322471 
L 105.830034 274.173933 
L 114.703786 276.902596 
L 125.856618 279.472996 
L 140.545218 281.833559 
L 161.593123 283.899566 
L 198.016537 285.497099 
L 198.016537 285.497099 
" style="fill:none;stroke:#e41a1c;stroke-linecap:square;"/>
   </g>
   <g id="line2d_22">
    <path clip-path="url(#p06f9c084d4)" d="M 232.25574 285.550254 
L 268.681522 284.005825 
L 289.73337 281.992821 
L 304.427483 279.685112 
L 315.58739 277.167366 
L 324.469768 274.491105 
L 331.744476 271.69175 
L 337.811149 268.795641 
L 342.92753 265.82349 
L 347.269691 262.792267 
L 350.963381 259.716324 
L 354.101677 256.608104 
L 356.755531 253.47861 
L 358.980395 250.337728 
L 360.820555 247.194461 
L 362.312057 244.057086 
L 363.484743 240.933289 
L 364.363705 237.830251 
L 364.970342 234.754724 
L 365.323142 231.713086 
L 365.438279 228.71139 
L 365.33006 225.755392 
L 365.011283 222.850586 
L 364.493509 220.002225 
L 363.787281 217.215339 
L 362.902302 214.494754 
L 361.847574 211.845099 
L 360.631516 209.270823 
L 359.262056 206.776197 
L 357.746714 204.365326 
L 356.092662 202.042153 
L 354.306785 199.810461 
L 352.395723 197.673879 
L 350.365911 195.635881 
L 348.223617 193.699789 
L 345.974966 191.868769 
L 343.625972 190.145836 
L 341.182554 188.533842 
L 338.650564 187.035476 
L 336.035801 185.65326 
L 333.34403 184.389534 
L 330.580998 183.246447 
L 327.752453 182.225946 
L 324.864156 181.329754 
L 321.921898 180.559352 
L 318.931517 179.915949 
L 315.898915 179.400453 
L 312.830071 179.013428 
L 309.731063 178.755051 
L 306.608084 178.625058 
L 303.467459 178.622672 
L 300.315667 178.746529 
L 297.159352 178.994593 
L 294.005346 179.364043 
L 290.860677 179.851166 
L 284.628479 181.158296 
L 278.522953 182.863176 
L 272.606705 184.889717 
L 266.942588 187.134911 
L 259.045108 190.621182 
L 251.988274 193.785944 
L 247.769119 195.471429 
L 243.906362 196.699577 
L 240.340545 197.440837 
L 236.995532 197.73422 
L 233.793411 197.67231 
L 230.667294 197.376035 
L 221.353487 196.241581 
L 218.225518 196.062444 
L 215.091839 196.054235 
L 211.962724 196.216994 
L 207.292813 196.711565 
L 201.07895 197.465063 
L 197.915996 197.644773 
L 194.64452 197.528247 
L 191.190868 197.00544 
L 187.476203 196.007856 
L 183.430994 194.529991 
L 179.008871 192.635778 
L 166.277844 186.944405 
L 160.600084 184.689989 
L 154.669579 182.655194 
L 148.549253 180.943071 
L 142.30178 179.629742 
L 139.14932 179.139922 
L 135.987433 178.768046 
L 132.823156 178.517833 
L 129.66333 178.392103 
L 126.514611 178.392898 
L 123.383486 178.521583 
L 120.27629 178.778934 
L 117.199227 179.16522 
L 114.158384 179.680263 
L 111.15975 180.3235 
L 108.209238 181.094024 
L 105.312695 181.990624 
L 102.475923 183.011821 
L 99.704693 184.155889 
L 97.004762 185.420883 
L 94.381887 186.804649 
L 91.841845 188.304846 
L 89.390443 189.918952 
L 87.033542 191.644274 
L 84.777073 193.477955 
L 82.627057 195.416982 
L 80.589631 197.458181 
L 78.67107 199.598228 
L 76.87782 201.833644 
L 75.21653 204.160796 
L 73.694092 206.575896 
L 72.317689 209.074997 
L 71.094848 211.653988 
L 70.033507 214.30859 
L 69.142091 217.034352 
L 68.429611 219.826635 
L 67.905777 222.680609 
L 67.581141 225.591236 
L 67.46727 228.553257 
L 67.576969 231.561169 
L 67.924553 234.609209 
L 68.5262 237.691317 
L 69.400407 240.801106 
L 70.568577 243.931817 
L 72.055807 247.076258 
L 73.891946 250.226738 
L 76.113045 253.374967 
L 78.763393 256.511937 
L 81.898448 259.627751 
L 85.589165 262.711396 
L 89.928624 265.75042 
L 95.042579 268.730462 
L 101.107105 271.634542 
L 108.379945 274.441939 
L 117.260741 277.126301 
L 128.41935 279.6522 
L 143.112451 281.968102 
L 164.163575 283.989328 
L 200.588924 285.542 
L 200.588924 285.542 
" style="fill:none;stroke:#377eb8;stroke-linecap:square;"/>
   </g>
   <g id="line2d_23">
    <path clip-path="url(#p06f9c084d4)" d="M 225.312563 285.671447 
L 261.743285 284.248113 
L 282.803359 282.356008 
L 297.508972 280.168902 
L 308.68364 277.771365 
L 317.584021 275.214827 
L 324.879949 272.534608 
L 330.971032 269.756956 
L 336.114983 266.902491 
L 340.487835 263.988091 
L 344.215303 261.028018 
L 347.390417 258.034626 
L 350.084083 255.018835 
L 352.351703 251.990447 
L 354.23751 248.958382 
L 355.777492 245.930843 
L 357.001431 242.915436 
L 357.934357 239.919273 
L 358.597601 236.949034 
L 359.009584 234.011034 
L 359.186407 231.111259 
L 359.142305 228.255407 
L 358.89 225.448916 
L 358.440975 222.696986 
L 357.805694 220.004599 
L 356.993777 217.376534 
L 356.014146 214.817379 
L 354.875133 212.331545 
L 353.584584 209.923271 
L 352.149932 207.59663 
L 350.578263 205.355539 
L 348.876374 203.203759 
L 347.050819 201.1449 
L 345.107947 199.182423 
L 343.053937 197.319637 
L 340.894829 195.559705 
L 338.636549 193.905635 
L 336.284933 192.360282 
L 333.845748 190.92634 
L 331.324708 189.606337 
L 328.727497 188.402625 
L 326.059782 187.317368 
L 323.327232 186.352532 
L 320.535529 185.509861 
L 317.69039 184.79086 
L 314.797581 184.196766 
L 311.86293 183.728516 
L 308.892351 183.386709 
L 305.891853 183.171558 
L 302.867565 183.082835 
L 299.825754 183.119803 
L 296.772837 183.281144 
L 293.715406 183.564863 
L 290.66024 183.968187 
L 287.614317 184.487449 
L 281.579148 185.853854 
L 275.669766 187.611677 
L 269.948496 189.685254 
L 264.477966 191.972003 
L 256.867895 195.511282 
L 250.094597 198.71914 
L 246.06225 200.428536 
L 242.384552 201.677193 
L 239.002116 202.435925 
L 235.838916 202.744073 
L 232.817192 202.694525 
L 229.870235 202.408469 
L 221.088709 201.293838 
L 218.13727 201.118141 
L 215.180121 201.111895 
L 212.22781 201.275128 
L 207.824211 201.767477 
L 201.968836 202.511855 
L 198.987102 202.683933 
L 195.898426 202.55739 
L 192.62931 202.021883 
L 189.101037 201.008581 
L 185.244157 199.511615 
L 181.012335 197.594528 
L 168.765507 191.826719 
L 163.284547 189.532889 
L 157.55237 187.452965 
L 151.631657 185.689558 
L 145.584788 184.318362 
L 142.532893 183.79701 
L 139.471683 183.391803 
L 136.408145 183.10641 
L 133.349065 182.943607 
L 130.30104 182.905389 
L 127.270498 182.993079 
L 124.26371 183.207413 
L 121.286814 183.54862 
L 118.345829 184.01649 
L 115.446673 184.610423 
L 112.595184 185.329483 
L 109.797136 186.172433 
L 107.058251 187.137767 
L 104.384222 188.223742 
L 101.780724 189.428391 
L 99.253432 190.749548 
L 96.808037 192.184861 
L 94.450263 193.7318 
L 92.185882 195.387668 
L 90.020739 197.14961 
L 87.960767 199.014614 
L 86.012013 200.979517 
L 84.180664 203.041004 
L 82.473076 205.195613 
L 80.89581 207.43973 
L 79.455669 209.76959 
L 78.159748 212.181274 
L 77.015486 214.670703 
L 76.030733 217.233633 
L 75.213832 219.865651 
L 74.573707 222.562163 
L 74.119986 225.318384 
L 73.86314 228.129328 
L 73.814656 230.98979 
L 73.987262 233.894325 
L 74.395198 236.837231 
L 75.054571 239.812513 
L 75.983806 242.813853 
L 77.20424 245.834563 
L 78.740905 248.867525 
L 80.62359 251.905125 
L 82.888285 254.939155 
L 85.579228 257.960688 
L 88.751824 260.959912 
L 92.476981 263.925904 
L 96.847734 266.846299 
L 101.989799 269.70683 
L 108.079213 272.490609 
L 115.373689 275.177011 
L 124.272839 277.73978 
L 135.446498 280.143586 
L 150.151325 282.336994 
L 171.210836 284.235424 
L 207.64122 285.665098 
L 207.64122 285.665098 
" style="fill:none;stroke:#4daf4a;stroke-linecap:square;"/>
   </g>
   <g id="patch_3">
    <path d="M 400.07375 285.8225 
C 400.07375 237.196474 380.736533 190.512303 346.35274 156.12851 
C 311.968947 121.744717 265.284776 102.4075 216.65875 102.4075 
C 168.032724 102.4075 121.348553 121.744717 86.96476 156.12851 
C 52.580967 190.512303 33.24375 237.196474 33.24375 285.8225 
" style="fill:none;stroke:#000000;stroke-linecap:square;stroke-linejoin:miter;stroke-width:0.8;"/>
   </g>
   <g id="patch_4">
    <path d="M 216.65875 285.8225 
L 400.07375 285.8225 
" style="fill:none;stroke:#000000;stroke-linecap:square;stroke-linejoin:miter;stroke-width:0.8;"/>
   </g>
   <g id="patch_5">
    <path d="M 216.65875 285.8225 
L 33.24375 285.8225 
" style="fill:none;stroke:#000000;stroke-linecap:square;stroke-linejoin:miter;stroke-width:0.8;"/>
   </g>
   <g id="legend_1">
    <g id="patch_6">
     <path d="M 427.233687 224.97125 
L 503.12275 224.97125 
Q 505.12275 224.97125 505.12275 222.97125 
L 505.12275 165.25875 
Q 505.12275 163.25875 503.12275 163.25875 
L 427.233687 163.25875 
Q 425.233687 163.25875 425.233687 165.25875 
L 425.233687 222.97125 
Q 425.233687 224.97125 427.233687 224.97125 
z
" style="fill:#ffffff;opacity:0.8;stroke:#cccccc;stroke-linejoin:miter;"/>
    </g>
    <g id="text_21">
     <!-- V-dipole angle -->
     <defs>
      <path d="M 28.609375 0 
L 0.78125 72.90625 
L 11.078125 72.90625 
L 34.1875 11.53125 
L 57.328125 72.90625 
L 67.578125 72.90625 
L 39.796875 0 
z
" id="DejaVuSans-56"/>
      <path d="M 4.890625 31.390625 
L 31.203125 31.390625 
L 31.203125 23.390625 
L 4.890625 23.390625 
z
" id="DejaVuSans-2d"/>
      <path d="M 45.40625 46.390625 
L 45.40625 75.984375 
L 54.390625 75.984375 
L 54.390625 0 
L 45.40625 0 
L 45.40625 8.203125 
Q 42.578125 3.328125 38.25 0.953125 
Q 33.9375 -1.421875 27.875 -1.421875 
Q 17.96875 -1.421875 11.734375 6.484375 
Q 5.515625 14.40625 5.515625 27.296875 
Q 5.515625 40.1875 11.734375 48.09375 
Q 17.96875 56 27.875 56 
Q 33.9375 56 38.25 53.625 
Q 42.578125 51.265625 45.40625 46.390625 
z
M 14.796875 27.296875 
Q 14.796875 17.390625 18.875 11.75 
Q 22.953125 6.109375 30.078125 6.109375 
Q 37.203125 6.109375 41.296875 11.75 
Q 45.40625 17.390625 45.40625 27.296875 
Q 45.40625 37.203125 41.296875 42.84375 
Q 37.203125 48.484375 30.078125 48.484375 
Q 22.953125 48.484375 18.875 42.84375 
Q 14.796875 37.203125 14.796875 27.296875 
z
" id="DejaVuSans-64"/>
      <path d="M 9.421875 54.6875 
L 18.40625 54.6875 
L 18.40625 0 
L 9.421875 0 
z
M 9.421875 75.984375 
L 18.40625 75.984375 
L 18.40625 64.59375 
L 9.421875 64.59375 
z
" id="DejaVuSans-69"/>
      <path d="M 18.109375 8.203125 
L 18.109375 -20.796875 
L 9.078125 -20.796875 
L 9.078125 54.6875 
L 18.109375 54.6875 
L 18.109375 46.390625 
Q 20.953125 51.265625 25.265625 53.625 
Q 29.59375 56 35.59375 56 
Q 45.5625 56 51.78125 48.09375 
Q 58.015625 40.1875 58.015625 27.296875 
Q 58.015625 14.40625 51.78125 6.484375 
Q 45.5625 -1.421875 35.59375 -1.421875 
Q 29.59375 -1.421875 25.265625 0.953125 
Q 20.953125 3.328125 18.109375 8.203125 
z
M 48.6875 27.296875 
Q 48.6875 37.203125 44.609375 42.84375 
Q 40.53125 48.484375 33.40625 48.484375 
Q 26.265625 48.484375 22.1875 42.84375 
Q 18.109375 37.203125 18.109375 27.296875 
Q 18.109375 17.390625 22.1875 11.75 
Q 26.265625 6.109375 33.40625 6.109375 
Q 40.53125 6.109375 44.609375 11.75 
Q 48.6875 17.390625 48.6875 27.296875 
z
" id="DejaVuSans-70"/>
      <path d="M 30.609375 48.390625 
Q 23.390625 48.390625 19.1875 42.75 
Q 14.984375 37.109375 14.984375 27.296875 
Q 14.984375 17.484375 19.15625 11.84375 
Q 23.34375 6.203125 30.609375 6.203125 
Q 37.796875 6.203125 41.984375 11.859375 
Q 46.1875 17.53125 46.1875 27.296875 
Q 46.1875 37.015625 41.984375 42.703125 
Q 37.796875 48.390625 30.609375 48.390625 
z
M 30.609375 56 
Q 42.328125 56 49.015625 48.375 
Q 55.71875 40.765625 55.71875 27.296875 
Q 55.71875 13.875 49.015625 6.21875 
Q 42.328125 -1.421875 30.609375 -1.421875 
Q 18.84375 -1.421875 12.171875 6.21875 
Q 5.515625 13.875 5.515625 27.296875 
Q 5.515625 40.765625 12.171875 48.375 
Q 18.84375 56 30.609375 56 
z
" id="DejaVuSans-6f"/>
      <path d="M 9.421875 75.984375 
L 18.40625 75.984375 
L 18.40625 0 
L 9.421875 0 
z
" id="DejaVuSans-6c"/>
      <path d="M 56.203125 29.59375 
L 56.203125 25.203125 
L 14.890625 25.203125 
Q 15.484375 15.921875 20.484375 11.0625 
Q 25.484375 6.203125 34.421875 6.203125 
Q 39.59375 6.203125 44.453125 7.46875 
Q 49.3125 8.734375 54.109375 11.28125 
L 54.109375 2.78125 
Q 49.265625 0.734375 44.1875 -0.34375 
Q 39.109375 -1.421875 33.890625 -1.421875 
Q 20.796875 -1.421875 13.15625 6.1875 
Q 5.515625 13.8125 5.515625 26.8125 
Q 5.515625 40.234375 12.765625 48.109375 
Q 20.015625 56 32.328125 56 
Q 43.359375 56 49.78125 48.890625 
Q 56.203125 41.796875 56.203125 29.59375 
z
M 47.21875 32.234375 
Q 47.125 39.59375 43.09375 43.984375 
Q 39.0625 48.390625 32.421875 48.390625 
Q 24.90625 48.390625 20.390625 44.140625 
Q 15.875 39.890625 15.1875 32.171875 
z
" id="DejaVuSans-65"/>
      <path id="DejaVuSans-20"/>
      <path d="M 34.28125 27.484375 
Q 23.390625 27.484375 19.1875 25 
Q 14.984375 22.515625 14.984375 16.5 
Q 14.984375 11.71875 18.140625 8.90625 
Q 21.296875 6.109375 26.703125 6.109375 
Q 34.1875 6.109375 38.703125 11.40625 
Q 43.21875 16.703125 43.21875 25.484375 
L 43.21875 27.484375 
z
M 52.203125 31.203125 
L 52.203125 0 
L 43.21875 0 
L 43.21875 8.296875 
Q 40.140625 3.328125 35.546875 0.953125 
Q 30.953125 -1.421875 24.3125 -1.421875 
Q 15.921875 -1.421875 10.953125 3.296875 
Q 6 8.015625 6 15.921875 
Q 6 25.140625 12.171875 29.828125 
Q 18.359375 34.515625 30.609375 34.515625 
L 43.21875 34.515625 
L 43.21875 35.40625 
Q 43.21875 41.609375 39.140625 45 
Q 35.0625 48.390625 27.6875 48.390625 
Q 23 48.390625 18.546875 47.265625 
Q 14.109375 46.140625 10.015625 43.890625 
L 10.015625 52.203125 
Q 14.9375 54.109375 19.578125 55.046875 
Q 24.21875 56 28.609375 56 
Q 40.484375 56 46.34375 49.84375 
Q 52.203125 43.703125 52.203125 31.203125 
z
" id="DejaVuSans-61"/>
      <path d="M 54.890625 33.015625 
L 54.890625 0 
L 45.90625 0 
L 45.90625 32.71875 
Q 45.90625 40.484375 42.875 44.328125 
Q 39.84375 48.1875 33.796875 48.1875 
Q 26.515625 48.1875 22.3125 43.546875 
Q 18.109375 38.921875 18.109375 30.90625 
L 18.109375 0 
L 9.078125 0 
L 9.078125 54.6875 
L 18.109375 54.6875 
L 18.109375 46.1875 
Q 21.34375 51.125 25.703125 53.5625 
Q 30.078125 56 35.796875 56 
Q 45.21875 56 50.046875 50.171875 
Q 54.890625 44.34375 54.890625 33.015625 
z
" id="DejaVuSans-6e"/>
      <path d="M 45.40625 27.984375 
Q 45.40625 37.75 41.375 43.109375 
Q 37.359375 48.484375 30.078125 48.484375 
Q 22.859375 48.484375 18.828125 43.109375 
Q 14.796875 37.75 14.796875 27.984375 
Q 14.796875 18.265625 18.828125 12.890625 
Q 22.859375 7.515625 30.078125 7.515625 
Q 37.359375 7.515625 41.375 12.890625 
Q 45.40625 18.265625 45.40625 27.984375 
z
M 54.390625 6.78125 
Q 54.390625 -7.171875 48.1875 -13.984375 
Q 42 -20.796875 29.203125 -20.796875 
Q 24.46875 -20.796875 20.265625 -20.09375 
Q 16.0625 -19.390625 12.109375 -17.921875 
L 12.109375 -9.1875 
Q 16.0625 -11.328125 19.921875 -12.34375 
Q 23.78125 -13.375 27.78125 -13.375 
Q 36.625 -13.375 41.015625 -8.765625 
Q 45.40625 -4.15625 45.40625 5.171875 
L 45.40625 9.625 
Q 42.625 4.78125 38.28125 2.390625 
Q 33.9375 0 27.875 0 
Q 17.828125 0 11.671875 7.65625 
Q 5.515625 15.328125 5.515625 27.984375 
Q 5.515625 40.671875 11.671875 48.328125 
Q 17.828125 56 27.875 56 
Q 33.9375 56 38.28125 53.609375 
Q 42.625 51.21875 45.40625 46.390625 
L 45.40625 54.6875 
L 54.390625 54.6875 
z
" id="DejaVuSans-67"/>
     </defs>
     <g transform="translate(429.233687 174.857187)scale(0.1 -0.1)">
      <use xlink:href="#DejaVuSans-56"/>
      <use x="68.330078" xlink:href="#DejaVuSans-2d"/>
      <use x="104.414062" xlink:href="#DejaVuSans-64"/>
      <use x="167.890625" xlink:href="#DejaVuSans-69"/>
      <use x="195.673828" xlink:href="#DejaVuSans-70"/>
      <use x="259.150391" xlink:href="#DejaVuSans-6f"/>
      <use x="320.332031" xlink:href="#DejaVuSans-6c"/>
      <use x="348.115234" xlink:href="#DejaVuSans-65"/>
      <use x="409.638672" xlink:href="#DejaVuSans-20"/>
      <use x="441.425781" xlink:href="#DejaVuSans-61"/>
      <use x="502.705078" xlink:href="#DejaVuSans-6e"/>
      <use x="566.083984" xlink:href="#DejaVuSans-67"/>
      <use x="629.560547" xlink:href="#DejaVuSans-6c"/>
      <use x="657.34375" xlink:href="#DejaVuSans-65"/>
     </g>
    </g>
    <g id="line2d_24">
     <path d="M 442.278219 186.035312 
L 462.278219 186.035312 
" style="fill:none;stroke:#e41a1c;stroke-linecap:square;"/>
    </g>
    <g id="line2d_25"/>
    <g id="text_22">
     <!-- 0$\degree$ -->
     <g transform="translate(470.278219 189.535312)scale(0.1 -0.1)">
      <use transform="translate(0 0.78125)" xlink:href="#DejaVuSans-30"/>
      <use transform="translate(63.623047 0.78125)" xlink:href="#DejaVuSans-b0"/>
     </g>
    </g>
    <g id="line2d_26">
     <path d="M 442.278219 200.713437 
L 462.278219 200.713437 
" style="fill:none;stroke:#377eb8;stroke-linecap:square;"/>
    </g>
    <g id="line2d_27"/>
    <g id="text_23">
     <!-- 30$\degree$ -->
     <g transform="translate(470.278219 204.213437)scale(0.1 -0.1)">
      <use transform="translate(0 0.78125)" xlink:href="#DejaVuSans-33"/>
      <use transform="translate(63.623047 0.78125)" xlink:href="#DejaVuSans-30"/>
      <use transform="translate(127.246094 0.78125)" xlink:href="#DejaVuSans-b0"/>
     </g>
    </g>
    <g id="line2d_28">
     <path d="M 442.278219 215.391562 
L 462.278219 215.391562 
" style="fill:none;stroke:#4daf4a;stroke-linecap:square;"/>
    </g>
    <g id="line2d_29"/>
    <g id="text_24">
     <!-- 60$\degree$ -->
     <g transform="translate(470.278219 218.891562)scale(0.1 -0.1)">
      <use transform="translate(0 0.78125)" xlink:href="#DejaVuSans-36"/>
      <use transform="translate(63.623047 0.78125)" xlink:href="#DejaVuSans-30"/>
      <use transform="translate(127.246094 0.78125)" xlink:href="#DejaVuSans-b0"/>
     </g>
    </g>
   </g>
  </g>
 </g>
 <defs>
  <clipPath id="p06f9c084d4">
   <path d="M 400.07375 285.8225 
C 400.07375 237.196474 380.736533 190.512303 346.35274 156.12851 
C 311.968947 121.744717 265.284776 102.4075 216.65875 102.4075 
C 168.032724 102.4075 121.348553 121.744717 86.96476 156.12851 
C 52.580967 190.512303 33.24375 237.196474 33.24375 285.8225 
L 216.65875 285.8225 
C 216.65875 285.8225 216.65875 285.8225 216.65875 285.8225 
C 216.65875 285.8225 216.65875 285.8225 216.65875 285.8225 
C 216.65875 285.8225 216.65875 285.8225 216.65875 285.8225 
C 216.65875 285.8225 216.65875 285.8225 216.65875 285.8225 
L 400.07375 285.8225 
z
"/>
  </clipPath>
 </defs>
</svg>
