<?xml version="1.0" encoding="utf-8" standalone="no"?>
<!DOCTYPE svg PUBLIC "-//W3C//DTD SVG 1.1//EN"
  "http://www.w3.org/Graphics/SVG/1.1/DTD/svg11.dtd">
<!-- Created with matplotlib (http://matplotlib.org/) -->
<svg height="432pt" version="1.1" viewBox="0 0 432 432" width="432pt" xmlns="http://www.w3.org/2000/svg" xmlns:xlink="http://www.w3.org/1999/xlink">
 <defs>
  <style type="text/css">
*{stroke-linecap:butt;stroke-linejoin:round;}
  </style>
 </defs>
 <g id="figure_1">
  <g id="patch_1">
   <path d="M 0 432 
L 432 432 
L 432 0 
L 0 0 
z
" style="fill:#ffffff;"/>
  </g>
  <g id="axes_1">
   <g id="patch_2">
    <path d="M 384.48 296.46 
C 384.48 253.225083 367.286677 211.716729 336.714974 181.145026 
C 306.143271 150.573323 264.634917 133.38 221.4 133.38 
C 178.165083 133.38 136.656729 150.573323 106.085026 181.145026 
C 75.513323 211.716729 58.32 253.225083 58.32 296.46 
L 221.4 296.46 
C 221.4 296.46 221.4 296.46 221.4 296.46 
C 221.4 296.46 221.4 296.46 221.4 296.46 
C 221.4 296.46 221.4 296.46 221.4 296.46 
C 221.4 296.46 221.4 296.46 221.4 296.46 
L 384.48 296.46 
z
" style="fill:#ffffff;"/>
   </g>
   <g id="matplotlib.axis_1">
    <g id="xtick_1">
     <g id="line2d_1">
      <path clip-path="url(#pbb9130f4dc)" d="M 221.4 296.46 
L 384.48 296.46 
" style="fill:none;stroke:#b0b0b0;stroke-linecap:square;stroke-width:0.8;"/>
     </g>
     <g id="text_1">
      <!-- 0° -->
      <defs>
       <path d="M 31.78125 66.40625 
Q 24.171875 66.40625 20.328125 58.90625 
Q 16.5 51.421875 16.5 36.375 
Q 16.5 21.390625 20.328125 13.890625 
Q 24.171875 6.390625 31.78125 6.390625 
Q 39.453125 6.390625 43.28125 13.890625 
Q 47.125 21.390625 47.125 36.375 
Q 47.125 51.421875 43.28125 58.90625 
Q 39.453125 66.40625 31.78125 66.40625 
z
M 31.78125 74.21875 
Q 44.046875 74.21875 50.515625 64.515625 
Q 56.984375 54.828125 56.984375 36.375 
Q 56.984375 17.96875 50.515625 8.265625 
Q 44.046875 -1.421875 31.78125 -1.421875 
Q 19.53125 -1.421875 13.0625 8.265625 
Q 6.59375 17.96875 6.59375 36.375 
Q 6.59375 54.828125 13.0625 64.515625 
Q 19.53125 74.21875 31.78125 74.21875 
z
" id="DejaVuSans-30"/>
       <path d="M 25 67.921875 
Q 21.09375 67.921875 18.40625 65.203125 
Q 15.71875 62.5 15.71875 58.59375 
Q 15.71875 54.734375 18.40625 52.078125 
Q 21.09375 49.421875 25 49.421875 
Q 28.90625 49.421875 31.59375 52.078125 
Q 34.28125 54.734375 34.28125 58.59375 
Q 34.28125 62.453125 31.5625 65.1875 
Q 28.859375 67.921875 25 67.921875 
z
M 25 74.21875 
Q 28.125 74.21875 31 73.015625 
Q 33.890625 71.828125 35.984375 69.578125 
Q 38.234375 67.390625 39.359375 64.59375 
Q 40.484375 61.8125 40.484375 58.59375 
Q 40.484375 52.15625 35.96875 47.6875 
Q 31.453125 43.21875 24.90625 43.21875 
Q 18.3125 43.21875 13.90625 47.609375 
Q 9.515625 52 9.515625 58.59375 
Q 9.515625 65.140625 14 69.671875 
Q 18.5 74.21875 25 74.21875 
z
" id="DejaVuSans-b0"/>
      </defs>
      <g transform="translate(392.79875 299.219375)scale(0.1 -0.1)">
       <use xlink:href="#DejaVuSans-30"/>
       <use x="63.623047" xlink:href="#DejaVuSans-b0"/>
      </g>
     </g>
    </g>
    <g id="xtick_2">
     <g id="line2d_2">
      <path clip-path="url(#pbb9130f4dc)" d="M 221.4 296.46 
L 378.923184 254.25179 
" style="fill:none;stroke:#b0b0b0;stroke-linecap:square;stroke-width:0.8;"/>
     </g>
     <g id="text_2">
      <!-- 15° -->
      <defs>
       <path d="M 12.40625 8.296875 
L 28.515625 8.296875 
L 28.515625 63.921875 
L 10.984375 60.40625 
L 10.984375 69.390625 
L 28.421875 72.90625 
L 38.28125 72.90625 
L 38.28125 8.296875 
L 54.390625 8.296875 
L 54.390625 0 
L 12.40625 0 
z
" id="DejaVuSans-31"/>
       <path d="M 10.796875 72.90625 
L 49.515625 72.90625 
L 49.515625 64.59375 
L 19.828125 64.59375 
L 19.828125 46.734375 
Q 21.96875 47.46875 24.109375 47.828125 
Q 26.265625 48.1875 28.421875 48.1875 
Q 40.625 48.1875 47.75 41.5 
Q 54.890625 34.8125 54.890625 23.390625 
Q 54.890625 11.625 47.5625 5.09375 
Q 40.234375 -1.421875 26.90625 -1.421875 
Q 22.3125 -1.421875 17.546875 -0.640625 
Q 12.796875 0.140625 7.71875 1.703125 
L 7.71875 11.625 
Q 12.109375 9.234375 16.796875 8.0625 
Q 21.484375 6.890625 26.703125 6.890625 
Q 35.15625 6.890625 40.078125 11.328125 
Q 45.015625 15.765625 45.015625 23.390625 
Q 45.015625 31 40.078125 35.4375 
Q 35.15625 39.890625 26.703125 39.890625 
Q 22.75 39.890625 18.8125 39.015625 
Q 14.890625 38.140625 10.796875 36.28125 
z
" id="DejaVuSans-35"/>
      </defs>
      <g transform="translate(383.583645 253.387698)scale(0.1 -0.1)">
       <use xlink:href="#DejaVuSans-31"/>
       <use x="63.623047" xlink:href="#DejaVuSans-35"/>
       <use x="127.246094" xlink:href="#DejaVuSans-b0"/>
      </g>
     </g>
    </g>
    <g id="xtick_3">
     <g id="line2d_3">
      <path clip-path="url(#pbb9130f4dc)" d="M 221.4 296.46 
L 362.631423 214.92 
" style="fill:none;stroke:#b0b0b0;stroke-linecap:square;stroke-width:0.8;"/>
     </g>
     <g id="text_3">
      <!-- 30° -->
      <defs>
       <path d="M 40.578125 39.3125 
Q 47.65625 37.796875 51.625 33 
Q 55.609375 28.21875 55.609375 21.1875 
Q 55.609375 10.40625 48.1875 4.484375 
Q 40.765625 -1.421875 27.09375 -1.421875 
Q 22.515625 -1.421875 17.65625 -0.515625 
Q 12.796875 0.390625 7.625 2.203125 
L 7.625 11.71875 
Q 11.71875 9.328125 16.59375 8.109375 
Q 21.484375 6.890625 26.8125 6.890625 
Q 36.078125 6.890625 40.9375 10.546875 
Q 45.796875 14.203125 45.796875 21.1875 
Q 45.796875 27.640625 41.28125 31.265625 
Q 36.765625 34.90625 28.71875 34.90625 
L 20.21875 34.90625 
L 20.21875 43.015625 
L 29.109375 43.015625 
Q 36.375 43.015625 40.234375 45.921875 
Q 44.09375 48.828125 44.09375 54.296875 
Q 44.09375 59.90625 40.109375 62.90625 
Q 36.140625 65.921875 28.71875 65.921875 
Q 24.65625 65.921875 20.015625 65.03125 
Q 15.375 64.15625 9.8125 62.3125 
L 9.8125 71.09375 
Q 15.4375 72.65625 20.34375 73.4375 
Q 25.25 74.21875 29.59375 74.21875 
Q 40.828125 74.21875 47.359375 69.109375 
Q 53.90625 64.015625 53.90625 55.328125 
Q 53.90625 49.265625 50.4375 45.09375 
Q 46.96875 40.921875 40.578125 39.3125 
z
" id="DejaVuSans-33"/>
      </defs>
      <g transform="translate(365.893279 210.679375)scale(0.1 -0.1)">
       <use xlink:href="#DejaVuSans-33"/>
       <use x="63.623047" xlink:href="#DejaVuSans-30"/>
       <use x="127.246094" xlink:href="#DejaVuSans-b0"/>
      </g>
     </g>
    </g>
    <g id="xtick_4">
     <g id="line2d_4">
      <path clip-path="url(#pbb9130f4dc)" d="M 221.4 296.46 
L 336.714974 181.145026 
" style="fill:none;stroke:#b0b0b0;stroke-linecap:square;stroke-width:0.8;"/>
     </g>
     <g id="text_4">
      <!-- 45° -->
      <defs>
       <path d="M 37.796875 64.3125 
L 12.890625 25.390625 
L 37.796875 25.390625 
z
M 35.203125 72.90625 
L 47.609375 72.90625 
L 47.609375 25.390625 
L 58.015625 25.390625 
L 58.015625 17.1875 
L 47.609375 17.1875 
L 47.609375 0 
L 37.796875 0 
L 37.796875 17.1875 
L 4.890625 17.1875 
L 4.890625 26.703125 
z
" id="DejaVuSans-34"/>
      </defs>
      <g transform="translate(337.751969 174.004906)scale(0.1 -0.1)">
       <use xlink:href="#DejaVuSans-34"/>
       <use x="63.623047" xlink:href="#DejaVuSans-35"/>
       <use x="127.246094" xlink:href="#DejaVuSans-b0"/>
      </g>
     </g>
    </g>
    <g id="xtick_5">
     <g id="line2d_5">
      <path clip-path="url(#pbb9130f4dc)" d="M 221.4 296.46 
L 302.94 155.228577 
" style="fill:none;stroke:#b0b0b0;stroke-linecap:square;stroke-width:0.8;"/>
     </g>
     <g id="text_5">
      <!-- 60° -->
      <defs>
       <path d="M 33.015625 40.375 
Q 26.375 40.375 22.484375 35.828125 
Q 18.609375 31.296875 18.609375 23.390625 
Q 18.609375 15.53125 22.484375 10.953125 
Q 26.375 6.390625 33.015625 6.390625 
Q 39.65625 6.390625 43.53125 10.953125 
Q 47.40625 15.53125 47.40625 23.390625 
Q 47.40625 31.296875 43.53125 35.828125 
Q 39.65625 40.375 33.015625 40.375 
z
M 52.59375 71.296875 
L 52.59375 62.3125 
Q 48.875 64.0625 45.09375 64.984375 
Q 41.3125 65.921875 37.59375 65.921875 
Q 27.828125 65.921875 22.671875 59.328125 
Q 17.53125 52.734375 16.796875 39.40625 
Q 19.671875 43.65625 24.015625 45.921875 
Q 28.375 48.1875 33.59375 48.1875 
Q 44.578125 48.1875 50.953125 41.515625 
Q 57.328125 34.859375 57.328125 23.390625 
Q 57.328125 12.15625 50.6875 5.359375 
Q 44.046875 -1.421875 33.015625 -1.421875 
Q 20.359375 -1.421875 13.671875 8.265625 
Q 6.984375 17.96875 6.984375 36.375 
Q 6.984375 53.65625 15.1875 63.9375 
Q 23.390625 74.21875 37.203125 74.21875 
Q 40.921875 74.21875 44.703125 73.484375 
Q 48.484375 72.75 52.59375 71.296875 
z
" id="DejaVuSans-36"/>
      </defs>
      <g transform="translate(301.0775 145.863596)scale(0.1 -0.1)">
       <use xlink:href="#DejaVuSans-36"/>
       <use x="63.623047" xlink:href="#DejaVuSans-30"/>
       <use x="127.246094" xlink:href="#DejaVuSans-b0"/>
      </g>
     </g>
    </g>
    <g id="xtick_6">
     <g id="line2d_6">
      <path clip-path="url(#pbb9130f4dc)" d="M 221.4 296.46 
L 263.60821 138.936816 
" style="fill:none;stroke:#b0b0b0;stroke-linecap:square;stroke-width:0.8;"/>
     </g>
     <g id="text_6">
      <!-- 75° -->
      <defs>
       <path d="M 8.203125 72.90625 
L 55.078125 72.90625 
L 55.078125 68.703125 
L 28.609375 0 
L 18.3125 0 
L 43.21875 64.59375 
L 8.203125 64.59375 
z
" id="DejaVuSans-37"/>
      </defs>
      <g transform="translate(258.369177 128.17323)scale(0.1 -0.1)">
       <use xlink:href="#DejaVuSans-37"/>
       <use x="63.623047" xlink:href="#DejaVuSans-35"/>
       <use x="127.246094" xlink:href="#DejaVuSans-b0"/>
      </g>
     </g>
    </g>
    <g id="xtick_7">
     <g id="line2d_7">
      <path clip-path="url(#pbb9130f4dc)" d="M 221.4 296.46 
L 221.4 133.38 
" style="fill:none;stroke:#b0b0b0;stroke-linecap:square;stroke-width:0.8;"/>
     </g>
     <g id="text_7">
      <!-- 90° -->
      <defs>
       <path d="M 10.984375 1.515625 
L 10.984375 10.5 
Q 14.703125 8.734375 18.5 7.8125 
Q 22.3125 6.890625 25.984375 6.890625 
Q 35.75 6.890625 40.890625 13.453125 
Q 46.046875 20.015625 46.78125 33.40625 
Q 43.953125 29.203125 39.59375 26.953125 
Q 35.25 24.703125 29.984375 24.703125 
Q 19.046875 24.703125 12.671875 31.3125 
Q 6.296875 37.9375 6.296875 49.421875 
Q 6.296875 60.640625 12.9375 67.421875 
Q 19.578125 74.21875 30.609375 74.21875 
Q 43.265625 74.21875 49.921875 64.515625 
Q 56.59375 54.828125 56.59375 36.375 
Q 56.59375 19.140625 48.40625 8.859375 
Q 40.234375 -1.421875 26.421875 -1.421875 
Q 22.703125 -1.421875 18.890625 -0.6875 
Q 15.09375 0.046875 10.984375 1.515625 
z
M 30.609375 32.421875 
Q 37.25 32.421875 41.125 36.953125 
Q 45.015625 41.5 45.015625 49.421875 
Q 45.015625 57.28125 41.125 61.84375 
Q 37.25 66.40625 30.609375 66.40625 
Q 23.96875 66.40625 20.09375 61.84375 
Q 16.21875 57.28125 16.21875 49.421875 
Q 16.21875 41.5 20.09375 36.953125 
Q 23.96875 32.421875 30.609375 32.421875 
z
" id="DejaVuSans-39"/>
      </defs>
      <g transform="translate(212.5375 122.139375)scale(0.1 -0.1)">
       <use xlink:href="#DejaVuSans-39"/>
       <use x="63.623047" xlink:href="#DejaVuSans-30"/>
       <use x="127.246094" xlink:href="#DejaVuSans-b0"/>
      </g>
     </g>
    </g>
    <g id="xtick_8">
     <g id="line2d_8">
      <path clip-path="url(#pbb9130f4dc)" d="M 221.4 296.46 
L 179.19179 138.936816 
" style="fill:none;stroke:#b0b0b0;stroke-linecap:square;stroke-width:0.8;"/>
     </g>
     <g id="text_8">
      <!-- 105° -->
      <g transform="translate(163.524573 128.17323)scale(0.1 -0.1)">
       <use xlink:href="#DejaVuSans-31"/>
       <use x="63.623047" xlink:href="#DejaVuSans-30"/>
       <use x="127.246094" xlink:href="#DejaVuSans-35"/>
       <use x="190.869141" xlink:href="#DejaVuSans-b0"/>
      </g>
     </g>
    </g>
    <g id="xtick_9">
     <g id="line2d_9">
      <path clip-path="url(#pbb9130f4dc)" d="M 221.4 296.46 
L 139.86 155.228577 
" style="fill:none;stroke:#b0b0b0;stroke-linecap:square;stroke-width:0.8;"/>
     </g>
     <g id="text_9">
      <!-- 120° -->
      <defs>
       <path d="M 19.1875 8.296875 
L 53.609375 8.296875 
L 53.609375 0 
L 7.328125 0 
L 7.328125 8.296875 
Q 12.9375 14.109375 22.625 23.890625 
Q 32.328125 33.6875 34.8125 36.53125 
Q 39.546875 41.84375 41.421875 45.53125 
Q 43.3125 49.21875 43.3125 52.78125 
Q 43.3125 58.59375 39.234375 62.25 
Q 35.15625 65.921875 28.609375 65.921875 
Q 23.96875 65.921875 18.8125 64.3125 
Q 13.671875 62.703125 7.8125 59.421875 
L 7.8125 69.390625 
Q 13.765625 71.78125 18.9375 73 
Q 24.125 74.21875 28.421875 74.21875 
Q 39.75 74.21875 46.484375 68.546875 
Q 53.21875 62.890625 53.21875 53.421875 
Q 53.21875 48.921875 51.53125 44.890625 
Q 49.859375 40.875 45.40625 35.40625 
Q 44.1875 33.984375 37.640625 27.21875 
Q 31.109375 20.453125 19.1875 8.296875 
z
" id="DejaVuSans-32"/>
      </defs>
      <g transform="translate(120.81625 145.863596)scale(0.1 -0.1)">
       <use xlink:href="#DejaVuSans-31"/>
       <use x="63.623047" xlink:href="#DejaVuSans-32"/>
       <use x="127.246094" xlink:href="#DejaVuSans-30"/>
       <use x="190.869141" xlink:href="#DejaVuSans-b0"/>
      </g>
     </g>
    </g>
    <g id="xtick_10">
     <g id="line2d_10">
      <path clip-path="url(#pbb9130f4dc)" d="M 221.4 296.46 
L 106.085026 181.145026 
" style="fill:none;stroke:#b0b0b0;stroke-linecap:square;stroke-width:0.8;"/>
     </g>
     <g id="text_10">
      <!-- 135° -->
      <g transform="translate(84.141781 174.004906)scale(0.1 -0.1)">
       <use xlink:href="#DejaVuSans-31"/>
       <use x="63.623047" xlink:href="#DejaVuSans-33"/>
       <use x="127.246094" xlink:href="#DejaVuSans-35"/>
       <use x="190.869141" xlink:href="#DejaVuSans-b0"/>
      </g>
     </g>
    </g>
    <g id="xtick_11">
     <g id="line2d_11">
      <path clip-path="url(#pbb9130f4dc)" d="M 221.4 296.46 
L 80.168577 214.92 
" style="fill:none;stroke:#b0b0b0;stroke-linecap:square;stroke-width:0.8;"/>
     </g>
     <g id="text_11">
      <!-- 150° -->
      <g transform="translate(56.000471 210.679375)scale(0.1 -0.1)">
       <use xlink:href="#DejaVuSans-31"/>
       <use x="63.623047" xlink:href="#DejaVuSans-35"/>
       <use x="127.246094" xlink:href="#DejaVuSans-30"/>
       <use x="190.869141" xlink:href="#DejaVuSans-b0"/>
      </g>
     </g>
    </g>
    <g id="xtick_12">
     <g id="line2d_12">
      <path clip-path="url(#pbb9130f4dc)" d="M 221.4 296.46 
L 63.876816 254.25179 
" style="fill:none;stroke:#b0b0b0;stroke-linecap:square;stroke-width:0.8;"/>
     </g>
     <g id="text_12">
      <!-- 165° -->
      <g transform="translate(38.310105 253.387698)scale(0.1 -0.1)">
       <use xlink:href="#DejaVuSans-31"/>
       <use x="63.623047" xlink:href="#DejaVuSans-36"/>
       <use x="127.246094" xlink:href="#DejaVuSans-35"/>
       <use x="190.869141" xlink:href="#DejaVuSans-b0"/>
      </g>
     </g>
    </g>
    <g id="xtick_13">
     <g id="line2d_13">
      <path clip-path="url(#pbb9130f4dc)" d="M 221.4 296.46 
L 58.32 296.46 
" style="fill:none;stroke:#b0b0b0;stroke-linecap:square;stroke-width:0.8;"/>
     </g>
     <g id="text_13">
      <!-- 180° -->
      <defs>
       <path d="M 31.78125 34.625 
Q 24.75 34.625 20.71875 30.859375 
Q 16.703125 27.09375 16.703125 20.515625 
Q 16.703125 13.921875 20.71875 10.15625 
Q 24.75 6.390625 31.78125 6.390625 
Q 38.8125 6.390625 42.859375 10.171875 
Q 46.921875 13.96875 46.921875 20.515625 
Q 46.921875 27.09375 42.890625 30.859375 
Q 38.875 34.625 31.78125 34.625 
z
M 21.921875 38.8125 
Q 15.578125 40.375 12.03125 44.71875 
Q 8.5 49.078125 8.5 55.328125 
Q 8.5 64.0625 14.71875 69.140625 
Q 20.953125 74.21875 31.78125 74.21875 
Q 42.671875 74.21875 48.875 69.140625 
Q 55.078125 64.0625 55.078125 55.328125 
Q 55.078125 49.078125 51.53125 44.71875 
Q 48 40.375 41.703125 38.8125 
Q 48.828125 37.15625 52.796875 32.3125 
Q 56.78125 27.484375 56.78125 20.515625 
Q 56.78125 9.90625 50.3125 4.234375 
Q 43.84375 -1.421875 31.78125 -1.421875 
Q 19.734375 -1.421875 13.25 4.234375 
Q 6.78125 9.90625 6.78125 20.515625 
Q 6.78125 27.484375 10.78125 32.3125 
Q 14.796875 37.15625 21.921875 38.8125 
z
M 18.3125 54.390625 
Q 18.3125 48.734375 21.84375 45.5625 
Q 25.390625 42.390625 31.78125 42.390625 
Q 38.140625 42.390625 41.71875 45.5625 
Q 45.3125 48.734375 45.3125 54.390625 
Q 45.3125 60.0625 41.71875 63.234375 
Q 38.140625 66.40625 31.78125 66.40625 
Q 25.390625 66.40625 21.84375 63.234375 
Q 18.3125 60.0625 18.3125 54.390625 
z
" id="DejaVuSans-38"/>
      </defs>
      <g transform="translate(32.27625 299.219375)scale(0.1 -0.1)">
       <use xlink:href="#DejaVuSans-31"/>
       <use x="63.623047" xlink:href="#DejaVuSans-38"/>
       <use x="127.246094" xlink:href="#DejaVuSans-30"/>
       <use x="190.869141" xlink:href="#DejaVuSans-b0"/>
      </g>
     </g>
    </g>
   </g>
   <g id="matplotlib.axis_2">
    <g id="ytick_1">
     <g id="line2d_14">
      <path clip-path="url(#pbb9130f4dc)" d="M 221.4 296.46 
L 221.4 296.46 
" style="fill:none;stroke:#b0b0b0;stroke-linecap:square;stroke-width:0.8;"/>
     </g>
     <g id="text_14">
      <!-- −20 -->
      <defs>
       <path d="M 10.59375 35.5 
L 73.1875 35.5 
L 73.1875 27.203125 
L 10.59375 27.203125 
z
" id="DejaVuSans-2212"/>
      </defs>
      <g transform="translate(210.847656 311.058437)scale(0.1 -0.1)">
       <use xlink:href="#DejaVuSans-2212"/>
       <use x="83.789062" xlink:href="#DejaVuSans-32"/>
       <use x="147.412109" xlink:href="#DejaVuSans-30"/>
      </g>
     </g>
    </g>
    <g id="ytick_2">
     <g id="line2d_15">
      <path clip-path="url(#pbb9130f4dc)" d="M 248.58 296.46 
L 248.476572 294.091107 
L 248.167075 291.740243 
L 247.653864 289.425298 
L 246.940845 287.163893 
L 246.033446 284.973236 
L 244.93857 282.87 
L 243.664553 280.870192 
L 242.221088 278.989033 
L 240.619162 277.240838 
L 238.870967 275.638912 
L 236.989808 274.195447 
L 234.99 272.92143 
L 232.886764 271.826554 
L 230.696107 270.919155 
L 228.434702 270.206136 
L 226.119757 269.692925 
L 223.768893 269.383428 
L 221.4 269.28 
L 219.031107 269.383428 
L 216.680243 269.692925 
L 214.365298 270.206136 
L 212.103893 270.919155 
L 209.913236 271.826554 
L 207.81 272.92143 
L 205.810192 274.195447 
L 203.929033 275.638912 
L 202.180838 277.240838 
L 200.578912 278.989033 
L 199.135447 280.870192 
L 197.86143 282.87 
L 196.766554 284.973236 
L 195.859155 287.163893 
L 195.146136 289.425298 
L 194.632925 291.740243 
L 194.323428 294.091107 
L 194.22 296.46 
L 194.22 296.46 
" style="fill:none;stroke:#b0b0b0;stroke-linecap:square;stroke-width:0.8;"/>
     </g>
     <g id="text_15">
      <!-- −15 -->
      <g transform="translate(238.027656 311.058437)scale(0.1 -0.1)">
       <use xlink:href="#DejaVuSans-2212"/>
       <use x="83.789062" xlink:href="#DejaVuSans-31"/>
       <use x="147.412109" xlink:href="#DejaVuSans-35"/>
      </g>
     </g>
    </g>
    <g id="ytick_3">
     <g id="line2d_16">
      <path clip-path="url(#pbb9130f4dc)" d="M 275.76 296.46 
L 275.627582 292.668038 
L 275.230972 288.89455 
L 274.572104 285.15792 
L 273.654186 281.476353 
L 272.481691 277.867785 
L 271.060331 274.349796 
L 269.397031 270.939526 
L 267.499895 267.653589 
L 265.378164 264.507994 
L 263.042176 261.518066 
L 260.503312 258.698371 
L 257.77394 256.062647 
L 254.867358 253.623735 
L 251.797726 251.393518 
L 248.58 249.382859 
L 245.229856 247.601556 
L 241.763614 246.058286 
L 238.198164 244.760568 
L 234.550874 243.714724 
L 230.839515 242.925851 
L 227.082167 242.39779 
L 223.297137 242.133115 
L 219.502863 242.133115 
L 215.717833 242.39779 
L 211.960485 242.925851 
L 208.249126 243.714724 
L 204.601836 244.760568 
L 201.036386 246.058286 
L 197.570144 247.601556 
L 194.22 249.382859 
L 191.002274 251.393518 
L 187.932642 253.623735 
L 185.02606 256.062647 
L 182.296688 258.698371 
L 179.757824 261.518066 
L 177.421836 264.507994 
L 175.300105 267.653589 
L 173.402969 270.939526 
L 171.739669 274.349796 
L 170.318309 277.867785 
L 169.145814 281.476353 
L 168.227896 285.15792 
L 167.569028 288.89455 
L 167.172418 292.668038 
L 167.04 296.46 
L 167.04 296.46 
" style="fill:none;stroke:#b0b0b0;stroke-linecap:square;stroke-width:0.8;"/>
     </g>
     <g id="text_16">
      <!-- −10 -->
      <g transform="translate(265.207656 311.058437)scale(0.1 -0.1)">
       <use xlink:href="#DejaVuSans-2212"/>
       <use x="83.789062" xlink:href="#DejaVuSans-31"/>
       <use x="147.412109" xlink:href="#DejaVuSans-30"/>
      </g>
     </g>
    </g>
    <g id="ytick_4">
     <g id="line2d_17">
      <path clip-path="url(#pbb9130f4dc)" d="M 302.94 296.46 
L 302.828252 292.192526 
L 302.493315 287.936749 
L 301.936107 283.704334 
L 301.158155 279.506881 
L 300.161592 275.355895 
L 298.949148 271.262754 
L 297.524148 267.238677 
L 295.890497 263.294694 
L 294.052672 259.441615 
L 292.015711 255.69 
L 289.785198 252.050133 
L 287.367246 248.531991 
L 284.768482 245.145215 
L 281.996029 241.89909 
L 279.057487 238.802513 
L 275.96091 235.863971 
L 272.714785 233.091518 
L 269.328009 230.492754 
L 265.809867 228.074802 
L 262.17 225.844289 
L 258.418385 223.807328 
L 254.565306 221.969503 
L 250.621323 220.335852 
L 246.597246 218.910852 
L 242.504105 217.698408 
L 238.353119 216.701845 
L 234.155666 215.923893 
L 229.923251 215.366685 
L 225.667474 215.031748 
L 221.4 214.92 
L 217.132526 215.031748 
L 212.876749 215.366685 
L 208.644334 215.923893 
L 204.446881 216.701845 
L 200.295895 217.698408 
L 196.202754 218.910852 
L 192.178677 220.335852 
L 188.234694 221.969503 
L 184.381615 223.807328 
L 180.63 225.844289 
L 176.990133 228.074802 
L 173.471991 230.492754 
L 170.085215 233.091518 
L 166.83909 235.863971 
L 163.742513 238.802513 
L 160.803971 241.89909 
L 158.031518 245.145215 
L 155.432754 248.531991 
L 153.014802 252.050133 
L 150.784289 255.69 
L 148.747328 259.441615 
L 146.909503 263.294694 
L 145.275852 267.238677 
L 143.850852 271.262754 
L 142.638408 275.355895 
L 141.641845 279.506881 
L 140.863893 283.704334 
L 140.306685 287.936749 
L 139.971748 292.192526 
L 139.86 296.46 
L 139.86 296.46 
" style="fill:none;stroke:#b0b0b0;stroke-linecap:square;stroke-width:0.8;"/>
     </g>
     <g id="text_17">
      <!-- −5 -->
      <g transform="translate(295.568906 311.058437)scale(0.1 -0.1)">
       <use xlink:href="#DejaVuSans-2212"/>
       <use x="83.789062" xlink:href="#DejaVuSans-35"/>
      </g>
     </g>
    </g>
    <g id="ytick_5">
     <g id="line2d_18">
      <path clip-path="url(#pbb9130f4dc)" d="M 330.12 296.46 
L 329.971003 290.770035 
L 329.52442 285.095665 
L 328.781476 279.452445 
L 327.744207 273.855841 
L 326.415456 268.321193 
L 324.798864 262.863672 
L 322.898864 257.498237 
L 320.720662 252.239592 
L 318.270229 247.102153 
L 315.554282 242.1 
L 312.580264 237.246844 
L 309.356328 232.555987 
L 305.891309 228.040287 
L 302.194705 223.71212 
L 298.276649 219.583351 
L 294.14788 215.665295 
L 289.819713 211.968691 
L 285.304013 208.503672 
L 280.613156 205.279736 
L 275.76 202.305718 
L 270.757847 199.589771 
L 265.620408 197.139338 
L 260.361763 194.961136 
L 254.996328 193.061136 
L 249.538807 191.444544 
L 244.004159 190.115793 
L 238.407555 189.078524 
L 232.764335 188.33558 
L 227.089965 187.888997 
L 221.4 187.74 
L 215.710035 187.888997 
L 210.035665 188.33558 
L 204.392445 189.078524 
L 198.795841 190.115793 
L 193.261193 191.444544 
L 187.803672 193.061136 
L 182.438237 194.961136 
L 177.179592 197.139338 
L 172.042153 199.589771 
L 167.04 202.305718 
L 162.186844 205.279736 
L 157.495987 208.503672 
L 152.980287 211.968691 
L 148.65212 215.665295 
L 144.523351 219.583351 
L 140.605295 223.71212 
L 136.908691 228.040287 
L 133.443672 232.555987 
L 130.219736 237.246844 
L 127.245718 242.1 
L 124.529771 247.102153 
L 122.079338 252.239592 
L 119.901136 257.498237 
L 118.001136 262.863672 
L 116.384544 268.321193 
L 115.055793 273.855841 
L 114.018524 279.452445 
L 113.27558 285.095665 
L 112.828997 290.770035 
L 112.68 296.46 
L 112.68 296.46 
" style="fill:none;stroke:#b0b0b0;stroke-linecap:square;stroke-width:0.8;"/>
     </g>
     <g id="text_18">
      <!-- 0 -->
      <g transform="translate(326.93875 311.058437)scale(0.1 -0.1)">
       <use xlink:href="#DejaVuSans-30"/>
      </g>
     </g>
    </g>
    <g id="ytick_6">
     <g id="line2d_19">
      <path clip-path="url(#pbb9130f4dc)" d="M 357.3 296.46 
L 357.217213 291.717158 
L 356.968954 286.980095 
L 356.555526 282.254582 
L 355.977431 277.546376 
L 355.235374 272.861213 
L 354.330259 268.204801 
L 353.263189 263.582814 
L 352.035464 259.000883 
L 350.648581 254.46459 
L 349.104227 249.979463 
L 347.404286 245.550964 
L 345.550828 241.18449 
L 343.546111 236.885361 
L 341.392578 232.658815 
L 339.092852 228.51 
L 336.649736 224.443972 
L 334.066206 220.465684 
L 331.34541 216.579984 
L 328.490661 212.791606 
L 325.50544 209.105164 
L 322.393382 205.525151 
L 319.158279 202.055927 
L 315.804073 198.701721 
L 312.334849 195.466618 
L 308.754836 192.35456 
L 305.068394 189.369339 
L 301.280016 186.51459 
L 297.394316 183.793794 
L 293.416028 181.210264 
L 289.35 178.767148 
L 285.201185 176.467422 
L 280.974639 174.313889 
L 276.67551 172.309172 
L 272.309036 170.455714 
L 267.880537 168.755773 
L 263.39541 167.211419 
L 258.859117 165.824536 
L 254.277186 164.596811 
L 249.655199 163.529741 
L 244.998787 162.624626 
L 240.313624 161.882569 
L 235.605418 161.304474 
L 230.879905 160.891046 
L 226.142842 160.642787 
L 221.4 160.56 
L 216.657158 160.642787 
L 211.920095 160.891046 
L 207.194582 161.304474 
L 202.486376 161.882569 
L 197.801213 162.624626 
L 193.144801 163.529741 
L 188.522814 164.596811 
L 183.940883 165.824536 
L 179.40459 167.211419 
L 174.919463 168.755773 
L 170.490964 170.455714 
L 166.12449 172.309172 
L 161.825361 174.313889 
L 157.598815 176.467422 
L 153.45 178.767148 
L 149.383972 181.210264 
L 145.405684 183.793794 
L 141.519984 186.51459 
L 137.731606 189.369339 
L 134.045164 192.35456 
L 130.465151 195.466618 
L 126.995927 198.701721 
L 123.641721 202.055927 
L 120.406618 205.525151 
L 117.29456 209.105164 
L 114.309339 212.791606 
L 111.45459 216.579984 
L 108.733794 220.465684 
L 106.150264 224.443972 
L 103.707148 228.51 
L 101.407422 232.658815 
L 99.253889 236.885361 
L 97.249172 241.18449 
L 95.395714 245.550964 
L 93.695773 249.979463 
L 92.151419 254.46459 
L 90.764536 259.000883 
L 89.536811 263.582814 
L 88.469741 268.204801 
L 87.564626 272.861213 
L 86.822569 277.546376 
L 86.244474 282.254582 
L 85.831046 286.980095 
L 85.582787 291.717158 
L 85.5 296.46 
L 85.5 296.46 
" style="fill:none;stroke:#b0b0b0;stroke-linecap:square;stroke-width:0.8;"/>
     </g>
     <g id="text_19">
      <!-- 5 -->
      <g transform="translate(354.11875 311.058437)scale(0.1 -0.1)">
       <use xlink:href="#DejaVuSans-35"/>
      </g>
     </g>
    </g>
    <g id="ytick_7">
     <g id="line2d_20">
      <path clip-path="url(#pbb9130f4dc)" d="M 384.48 296.46 
L 384.380656 290.76859 
L 384.082745 285.084114 
L 383.586631 279.413498 
L 382.892917 273.763651 
L 382.002448 268.141455 
L 380.916311 262.553761 
L 379.635827 257.007377 
L 378.162557 251.50906 
L 376.498297 246.065509 
L 374.645073 240.683355 
L 372.605143 235.369157 
L 370.380993 230.129388 
L 367.975333 224.970433 
L 365.391093 219.898578 
L 362.631423 214.92 
L 359.699684 210.040766 
L 356.599447 205.266821 
L 353.334491 200.603981 
L 349.908794 196.057927 
L 346.326528 191.634197 
L 342.592058 187.338181 
L 338.709935 183.175113 
L 334.684887 179.150065 
L 330.521819 175.267942 
L 326.225803 171.533472 
L 321.802073 167.951206 
L 317.256019 164.525509 
L 312.593179 161.260553 
L 307.819234 158.160316 
L 302.94 155.228577 
L 297.961422 152.468907 
L 292.889567 149.884667 
L 287.730612 147.479007 
L 282.490843 145.254857 
L 277.176645 143.214927 
L 271.794491 141.361703 
L 266.35094 139.697443 
L 260.852623 138.224173 
L 255.306239 136.943689 
L 249.718545 135.857552 
L 244.096349 134.967083 
L 238.446502 134.273369 
L 232.775886 133.777255 
L 227.09141 133.479344 
L 221.4 133.38 
L 215.70859 133.479344 
L 210.024114 133.777255 
L 204.353498 134.273369 
L 198.703651 134.967083 
L 193.081455 135.857552 
L 187.493761 136.943689 
L 181.947377 138.224173 
L 176.44906 139.697443 
L 171.005509 141.361703 
L 165.623355 143.214927 
L 160.309157 145.254857 
L 155.069388 147.479007 
L 149.910433 149.884667 
L 144.838578 152.468907 
L 139.86 155.228577 
L 134.980766 158.160316 
L 130.206821 161.260553 
L 125.543981 164.525509 
L 120.997927 167.951206 
L 116.574197 171.533472 
L 112.278181 175.267942 
L 108.115113 179.150065 
L 104.090065 183.175113 
L 100.207942 187.338181 
L 96.473472 191.634197 
L 92.891206 196.057927 
L 89.465509 200.603981 
L 86.200553 205.266821 
L 83.100316 210.040766 
L 80.168577 214.92 
L 77.408907 219.898578 
L 74.824667 224.970433 
L 72.419007 230.129388 
L 70.194857 235.369157 
L 68.154927 240.683355 
L 66.301703 246.065509 
L 64.637443 251.50906 
L 63.164173 257.007377 
L 61.883689 262.553761 
L 60.797552 268.141455 
L 59.907083 273.763651 
L 59.213369 279.413498 
L 58.717255 285.084114 
L 58.419344 290.76859 
L 58.32 296.46 
L 58.32 296.46 
" style="fill:none;stroke:#b0b0b0;stroke-linecap:square;stroke-width:0.8;"/>
     </g>
     <g id="text_20">
      <!-- 10 -->
      <g transform="translate(378.1175 311.058437)scale(0.1 -0.1)">
       <use xlink:href="#DejaVuSans-31"/>
       <use x="63.623047" xlink:href="#DejaVuSans-30"/>
      </g>
     </g>
    </g>
   </g>
   <g id="line2d_21">
    <path clip-path="url(#pbb9130f4dc)" d="M 274.689555 295.529827 
L 306.757671 293.479244 
L 324.942064 291.03359 
L 337.257029 288.358487 
L 346.20973 285.540564 
L 352.913039 282.637423 
L 357.956731 279.692942 
L 361.688747 276.743702 
L 364.328975 273.822274 
L 366.022364 270.959175 
L 366.866229 268.184229 
L 366.925158 265.527673 
L 366.239322 263.021208 
L 364.828867 260.699167 
L 362.695629 258.59995 
L 359.822608 256.767956 
L 356.171081 255.256346 
L 351.674605 254.131215 
L 346.228223 253.478196 
L 339.669482 253.413429 
L 331.744555 254.102694 
L 322.046613 255.796129 
L 309.908733 258.890272 
L 294.312115 263.997435 
L 264.867634 275.259418 
L 278.919816 267.15219 
L 295.071459 257.28819 
L 306.91196 249.059947 
L 315.428929 242.172372 
L 321.634823 236.232842 
L 326.168558 230.993339 
L 329.432658 226.302772 
L 331.692423 222.066821 
L 333.131101 218.225041 
L 333.880605 214.738057 
L 334.039301 211.580198 
L 333.682752 208.7351 
L 332.870475 206.192989 
L 331.650348 203.948974 
L 330.061548 202.001957 
L 328.136584 200.353948 
L 325.902705 199.009651 
L 323.382914 197.976245 
L 320.596683 197.263317 
L 317.560477 196.882911 
L 314.288142 196.849663 
L 310.791215 197.180998 
L 307.079207 197.897347 
L 303.159964 199.022269 
L 299.040234 200.582296 
L 294.726728 202.606068 
L 290.228214 205.121876 
L 285.559675 208.151783 
L 280.750568 211.698605 
L 275.860774 215.718582 
L 271.009436 220.068168 
L 262.45057 228.140378 
L 259.554476 230.37451 
L 258.029045 230.379454 
L 257.751941 228.091942 
L 258.244457 224.148683 
L 259.680646 214.366889 
L 260.124355 209.483675 
L 260.272978 204.881003 
L 260.122476 200.618508 
L 259.6919 196.706189 
L 259.008437 193.131668 
L 258.10061 189.873691 
L 256.99543 186.908531 
L 255.717381 184.212904 
L 254.288211 181.765178 
L 252.727072 179.545777 
L 251.050778 177.537226 
L 249.274096 175.724025 
L 247.41002 174.092477 
L 245.470016 172.630503 
L 243.46424 171.327477 
L 241.401726 170.174075 
L 239.290546 169.162151 
L 237.137956 168.284633 
L 234.950517 167.535443 
L 232.734207 166.909425 
L 230.494521 166.402294 
L 228.236564 166.010596 
L 225.965134 165.731674 
L 221.4 165.505397 
L 216.834371 165.717488 
L 214.562322 165.989338 
L 212.3035 166.37399 
L 210.062704 166.874109 
L 207.845039 167.493158 
L 205.656002 168.23543 
L 203.501575 169.106089 
L 201.38832 170.111222 
L 199.323493 171.257909 
L 197.315173 172.554304 
L 195.372394 174.009739 
L 193.505316 175.634849 
L 191.72541 177.441719 
L 190.045672 179.444055 
L 188.480874 181.657364 
L 187.047834 184.099129 
L 185.76571 186.788931 
L 184.656253 189.748412 
L 183.743953 193.000862 
L 183.055827 196.570013 
L 182.620403 200.477128 
L 182.464873 204.73459 
L 182.608296 209.332406 
L 183.046637 214.210948 
L 184.958304 227.923139 
L 184.675233 230.206767 
L 183.143702 230.198147 
L 180.241381 227.960555 
L 171.669718 219.882082 
L 166.811824 215.529701 
L 161.91538 211.507159 
L 157.099537 207.958005 
L 152.424184 204.926 
L 147.918785 202.408334 
L 143.598333 200.382943 
L 139.471604 198.821539 
L 135.545317 197.695486 
L 131.826231 196.978251 
L 128.322197 196.646276 
L 125.042737 196.679133 
L 121.999395 197.059395 
L 119.206027 197.772428 
L 116.679107 198.806187 
L 114.438115 200.151086 
L 112.506062 201.799944 
L 110.910207 203.748055 
L 109.683066 205.993411 
L 108.863827 208.537106 
L 108.500374 211.384029 
L 108.652233 214.543953 
L 109.394978 218.033239 
L 110.82698 221.877556 
L 113.080161 226.116274 
L 116.337778 230.809837 
L 120.865138 236.05256 
L 127.064773 241.995531 
L 135.575607 248.886762 
L 147.410105 257.118875 
L 163.555882 266.98695 
L 177.602346 275.098457 
L 167.369186 271.265017 
L 148.146894 263.845616 
L 132.545037 258.743306 
L 120.40209 255.654196 
L 110.699261 253.965968 
L 102.769633 253.282078 
L 96.206381 253.35238 
L 90.755685 254.011089 
L 86.255097 255.142057 
L 82.599665 256.659645 
L 79.722951 258.497749 
L 77.586236 260.603202 
L 76.172526 262.931596 
L 75.483659 265.444524 
L 75.539785 268.107646 
L 76.381079 270.889252 
L 78.072132 273.759096 
L 80.710263 276.687347 
L 84.440422 279.643478 
L 89.4825 282.594912 
L 96.184439 285.505058 
L 105.136018 288.33003 
L 117.450108 291.012217 
L 135.633876 293.464981 
L 167.701617 295.522691 
L 167.701617 295.522691 
" style="fill:none;stroke:#ff7f00;stroke-linecap:square;"/>
   </g>
   <g id="patch_3">
    <path d="M 384.48 296.46 
C 384.48 253.225083 367.286677 211.716729 336.714974 181.145026 
C 306.143271 150.573323 264.634917 133.38 221.4 133.38 
C 178.165083 133.38 136.656729 150.573323 106.085026 181.145026 
C 75.513323 211.716729 58.32 253.225083 58.32 296.46 
" style="fill:none;stroke:#000000;stroke-linecap:square;stroke-linejoin:miter;stroke-width:0.8;"/>
   </g>
   <g id="patch_4">
    <path d="M 221.4 296.46 
L 384.48 296.46 
" style="fill:none;stroke:#000000;stroke-linecap:square;stroke-linejoin:miter;stroke-width:0.8;"/>
   </g>
   <g id="patch_5">
    <path d="M 221.4 296.46 
L 58.32 296.46 
" style="fill:none;stroke:#000000;stroke-linecap:square;stroke-linejoin:miter;stroke-width:0.8;"/>
   </g>
  </g>
 </g>
 <defs>
  <clipPath id="pbb9130f4dc">
   <path d="M 384.48 296.46 
C 384.48 253.225083 367.286677 211.716729 336.714974 181.145026 
C 306.143271 150.573323 264.634917 133.38 221.4 133.38 
C 178.165083 133.38 136.656729 150.573323 106.085026 181.145026 
C 75.513323 211.716729 58.32 253.225083 58.32 296.46 
L 221.4 296.46 
C 221.4 296.46 221.4 296.46 221.4 296.46 
C 221.4 296.46 221.4 296.46 221.4 296.46 
C 221.4 296.46 221.4 296.46 221.4 296.46 
C 221.4 296.46 221.4 296.46 221.4 296.46 
L 384.48 296.46 
z
"/>
  </clipPath>
 </defs>
</svg>
