<?xml version="1.0" encoding="utf-8" standalone="no"?>
<!DOCTYPE svg PUBLIC "-//W3C//DTD SVG 1.1//EN"
  "http://www.w3.org/Graphics/SVG/1.1/DTD/svg11.dtd">
<!-- Created with matplotlib (http://matplotlib.org/) -->
<svg height="424pt" version="1.1" viewBox="0 0 422 424" width="422pt" xmlns="http://www.w3.org/2000/svg" xmlns:xlink="http://www.w3.org/1999/xlink">
 <defs>
  <style type="text/css">
*{stroke-linecap:butt;stroke-linejoin:round;}
  </style>
 </defs>
 <g id="figure_1">
  <g id="patch_1">
   <path d="M 0 424.398125 
L 422.452 424.398125 
L 422.452 0 
L 0 0 
z
" style="fill:#ffffff;"/>
  </g>
  <g id="axes_1">
   <g id="patch_2">
    <path d="M 103.78 398.359062 
C 153.133766 398.359062 200.516616 378.732444 235.414998 343.834061 
C 270.313381 308.935678 289.94 261.552829 289.94 212.199062 
C 289.94 162.845296 270.313381 115.462447 235.414998 80.564064 
C 200.516616 45.665681 153.133766 26.039062 103.78 26.039062 
L 103.78 212.199062 
C 103.78 212.199062 103.78 212.199062 103.78 212.199062 
C 103.78 212.199062 103.78 212.199062 103.78 212.199062 
C 103.78 212.199062 103.78 212.199062 103.78 212.199062 
C 103.78 212.199062 103.78 212.199062 103.78 212.199062 
L 103.78 398.359062 
z
" style="fill:#ffffff;"/>
   </g>
   <g id="matplotlib.axis_1">
    <g id="xtick_1">
     <g id="line2d_1">
      <path clip-path="url(#p0bef199497)" d="M 103.78 212.199062 
L 103.78 398.359062 
" style="fill:none;stroke:#b0b0b0;stroke-linecap:square;stroke-width:0.8;"/>
     </g>
     <g id="text_1">
      <!-- -90° -->
      <defs>
       <path d="M 4.890625 31.390625 
L 31.203125 31.390625 
L 31.203125 23.390625 
L 4.890625 23.390625 
z
" id="DejaVuSans-2d"/>
       <path d="M 10.984375 1.515625 
L 10.984375 10.5 
Q 14.703125 8.734375 18.5 7.8125 
Q 22.3125 6.890625 25.984375 6.890625 
Q 35.75 6.890625 40.890625 13.453125 
Q 46.046875 20.015625 46.78125 33.40625 
Q 43.953125 29.203125 39.59375 26.953125 
Q 35.25 24.703125 29.984375 24.703125 
Q 19.046875 24.703125 12.671875 31.3125 
Q 6.296875 37.9375 6.296875 49.421875 
Q 6.296875 60.640625 12.9375 67.421875 
Q 19.578125 74.21875 30.609375 74.21875 
Q 43.265625 74.21875 49.921875 64.515625 
Q 56.59375 54.828125 56.59375 36.375 
Q 56.59375 19.140625 48.40625 8.859375 
Q 40.234375 -1.421875 26.421875 -1.421875 
Q 22.703125 -1.421875 18.890625 -0.6875 
Q 15.09375 0.046875 10.984375 1.515625 
z
M 30.609375 32.421875 
Q 37.25 32.421875 41.125 36.953125 
Q 45.015625 41.5 45.015625 49.421875 
Q 45.015625 57.28125 41.125 61.84375 
Q 37.25 66.40625 30.609375 66.40625 
Q 23.96875 66.40625 20.09375 61.84375 
Q 16.21875 57.28125 16.21875 49.421875 
Q 16.21875 41.5 20.09375 36.953125 
Q 23.96875 32.421875 30.609375 32.421875 
z
" id="DejaVuSans-39"/>
       <path d="M 31.78125 66.40625 
Q 24.171875 66.40625 20.328125 58.90625 
Q 16.5 51.421875 16.5 36.375 
Q 16.5 21.390625 20.328125 13.890625 
Q 24.171875 6.390625 31.78125 6.390625 
Q 39.453125 6.390625 43.28125 13.890625 
Q 47.125 21.390625 47.125 36.375 
Q 47.125 51.421875 43.28125 58.90625 
Q 39.453125 66.40625 31.78125 66.40625 
z
M 31.78125 74.21875 
Q 44.046875 74.21875 50.515625 64.515625 
Q 56.984375 54.828125 56.984375 36.375 
Q 56.984375 17.96875 50.515625 8.265625 
Q 44.046875 -1.421875 31.78125 -1.421875 
Q 19.53125 -1.421875 13.0625 8.265625 
Q 6.59375 17.96875 6.59375 36.375 
Q 6.59375 54.828125 13.0625 64.515625 
Q 19.53125 74.21875 31.78125 74.21875 
z
" id="DejaVuSans-30"/>
       <path d="M 25 67.921875 
Q 21.09375 67.921875 18.40625 65.203125 
Q 15.71875 62.5 15.71875 58.59375 
Q 15.71875 54.734375 18.40625 52.078125 
Q 21.09375 49.421875 25 49.421875 
Q 28.90625 49.421875 31.59375 52.078125 
Q 34.28125 54.734375 34.28125 58.59375 
Q 34.28125 62.453125 31.5625 65.1875 
Q 28.859375 67.921875 25 67.921875 
z
M 25 74.21875 
Q 28.125 74.21875 31 73.015625 
Q 33.890625 71.828125 35.984375 69.578125 
Q 38.234375 67.390625 39.359375 64.59375 
Q 40.484375 61.8125 40.484375 58.59375 
Q 40.484375 52.15625 35.96875 47.6875 
Q 31.453125 43.21875 24.90625 43.21875 
Q 18.3125 43.21875 13.90625 47.609375 
Q 9.515625 52 9.515625 58.59375 
Q 9.515625 65.140625 14 69.671875 
Q 18.5 74.21875 25 74.21875 
z
" id="DejaVuSans-b0"/>
      </defs>
      <g transform="translate(93.113594 415.118437)scale(0.1 -0.1)">
       <use xlink:href="#DejaVuSans-2d"/>
       <use x="36.083984" xlink:href="#DejaVuSans-39"/>
       <use x="99.707031" xlink:href="#DejaVuSans-30"/>
       <use x="163.330078" xlink:href="#DejaVuSans-b0"/>
      </g>
     </g>
    </g>
    <g id="xtick_2">
     <g id="line2d_2">
      <path clip-path="url(#p0bef199497)" d="M 103.78 212.199062 
L 151.961753 392.015814 
" style="fill:none;stroke:#b0b0b0;stroke-linecap:square;stroke-width:0.8;"/>
     </g>
     <g id="text_2">
      <!-- -75° -->
      <defs>
       <path d="M 8.203125 72.90625 
L 55.078125 72.90625 
L 55.078125 68.703125 
L 28.609375 0 
L 18.3125 0 
L 43.21875 64.59375 
L 8.203125 64.59375 
z
" id="DejaVuSans-37"/>
       <path d="M 10.796875 72.90625 
L 49.515625 72.90625 
L 49.515625 64.59375 
L 19.828125 64.59375 
L 19.828125 46.734375 
Q 21.96875 47.46875 24.109375 47.828125 
Q 26.265625 48.1875 28.421875 48.1875 
Q 40.625 48.1875 47.75 41.5 
Q 54.890625 34.8125 54.890625 23.390625 
Q 54.890625 11.625 47.5625 5.09375 
Q 40.234375 -1.421875 26.90625 -1.421875 
Q 22.3125 -1.421875 17.546875 -0.640625 
Q 12.796875 0.140625 7.71875 1.703125 
L 7.71875 11.625 
Q 12.109375 9.234375 16.796875 8.0625 
Q 21.484375 6.890625 26.703125 6.890625 
Q 35.15625 6.890625 40.078125 11.328125 
Q 45.015625 15.765625 45.015625 23.390625 
Q 45.015625 31 40.078125 35.4375 
Q 35.15625 39.890625 26.703125 39.890625 
Q 22.75 39.890625 18.8125 39.015625 
Q 14.890625 38.140625 10.796875 36.28125 
z
" id="DejaVuSans-35"/>
      </defs>
      <g transform="translate(144.918814 408.298151)scale(0.1 -0.1)">
       <use xlink:href="#DejaVuSans-2d"/>
       <use x="36.083984" xlink:href="#DejaVuSans-37"/>
       <use x="99.707031" xlink:href="#DejaVuSans-35"/>
       <use x="163.330078" xlink:href="#DejaVuSans-b0"/>
      </g>
     </g>
    </g>
    <g id="xtick_3">
     <g id="line2d_3">
      <path clip-path="url(#p0bef199497)" d="M 103.78 212.199062 
L 196.86 373.418352 
" style="fill:none;stroke:#b0b0b0;stroke-linecap:square;stroke-width:0.8;"/>
     </g>
     <g id="text_3">
      <!-- -60° -->
      <defs>
       <path d="M 33.015625 40.375 
Q 26.375 40.375 22.484375 35.828125 
Q 18.609375 31.296875 18.609375 23.390625 
Q 18.609375 15.53125 22.484375 10.953125 
Q 26.375 6.390625 33.015625 6.390625 
Q 39.65625 6.390625 43.53125 10.953125 
Q 47.40625 15.53125 47.40625 23.390625 
Q 47.40625 31.296875 43.53125 35.828125 
Q 39.65625 40.375 33.015625 40.375 
z
M 52.59375 71.296875 
L 52.59375 62.3125 
Q 48.875 64.0625 45.09375 64.984375 
Q 41.3125 65.921875 37.59375 65.921875 
Q 27.828125 65.921875 22.671875 59.328125 
Q 17.53125 52.734375 16.796875 39.40625 
Q 19.671875 43.65625 24.015625 45.921875 
Q 28.375 48.1875 33.59375 48.1875 
Q 44.578125 48.1875 50.953125 41.515625 
Q 57.328125 34.859375 57.328125 23.390625 
Q 57.328125 12.15625 50.6875 5.359375 
Q 44.046875 -1.421875 33.015625 -1.421875 
Q 20.359375 -1.421875 13.671875 8.265625 
Q 6.984375 17.96875 6.984375 36.375 
Q 6.984375 53.65625 15.1875 63.9375 
Q 23.390625 74.21875 37.203125 74.21875 
Q 40.921875 74.21875 44.703125 73.484375 
Q 48.484375 72.75 52.59375 71.296875 
z
" id="DejaVuSans-36"/>
      </defs>
      <g transform="translate(193.193594 388.302082)scale(0.1 -0.1)">
       <use xlink:href="#DejaVuSans-2d"/>
       <use x="36.083984" xlink:href="#DejaVuSans-36"/>
       <use x="99.707031" xlink:href="#DejaVuSans-30"/>
       <use x="163.330078" xlink:href="#DejaVuSans-b0"/>
      </g>
     </g>
    </g>
    <g id="xtick_4">
     <g id="line2d_4">
      <path clip-path="url(#p0bef199497)" d="M 103.78 212.199062 
L 235.414998 343.834061 
" style="fill:none;stroke:#b0b0b0;stroke-linecap:square;stroke-width:0.8;"/>
     </g>
     <g id="text_4">
      <!-- -45° -->
      <defs>
       <path d="M 37.796875 64.3125 
L 12.890625 25.390625 
L 37.796875 25.390625 
z
M 35.203125 72.90625 
L 47.609375 72.90625 
L 47.609375 25.390625 
L 58.015625 25.390625 
L 58.015625 17.1875 
L 47.609375 17.1875 
L 47.609375 0 
L 37.796875 0 
L 37.796875 17.1875 
L 4.890625 17.1875 
L 4.890625 26.703125 
z
" id="DejaVuSans-34"/>
      </defs>
      <g transform="translate(234.648087 356.492931)scale(0.1 -0.1)">
       <use xlink:href="#DejaVuSans-2d"/>
       <use x="36.083984" xlink:href="#DejaVuSans-34"/>
       <use x="99.707031" xlink:href="#DejaVuSans-35"/>
       <use x="163.330078" xlink:href="#DejaVuSans-b0"/>
      </g>
     </g>
    </g>
    <g id="xtick_5">
     <g id="line2d_5">
      <path clip-path="url(#p0bef199497)" d="M 103.78 212.199062 
L 264.999289 305.279062 
" style="fill:none;stroke:#b0b0b0;stroke-linecap:square;stroke-width:0.8;"/>
     </g>
     <g id="text_5">
      <!-- -30° -->
      <defs>
       <path d="M 40.578125 39.3125 
Q 47.65625 37.796875 51.625 33 
Q 55.609375 28.21875 55.609375 21.1875 
Q 55.609375 10.40625 48.1875 4.484375 
Q 40.765625 -1.421875 27.09375 -1.421875 
Q 22.515625 -1.421875 17.65625 -0.515625 
Q 12.796875 0.390625 7.625 2.203125 
L 7.625 11.71875 
Q 11.71875 9.328125 16.59375 8.109375 
Q 21.484375 6.890625 26.8125 6.890625 
Q 36.078125 6.890625 40.9375 10.546875 
Q 45.796875 14.203125 45.796875 21.1875 
Q 45.796875 27.640625 41.28125 31.265625 
Q 36.765625 34.90625 28.71875 34.90625 
L 20.21875 34.90625 
L 20.21875 43.015625 
L 29.109375 43.015625 
Q 36.375 43.015625 40.234375 45.921875 
Q 44.09375 48.828125 44.09375 54.296875 
Q 44.09375 59.90625 40.109375 62.90625 
Q 36.140625 65.921875 28.71875 65.921875 
Q 24.65625 65.921875 20.015625 65.03125 
Q 15.375 64.15625 9.8125 62.3125 
L 9.8125 71.09375 
Q 15.4375 72.65625 20.34375 73.4375 
Q 25.25 74.21875 29.59375 74.21875 
Q 40.828125 74.21875 47.359375 69.109375 
Q 53.90625 64.015625 53.90625 55.328125 
Q 53.90625 49.265625 50.4375 45.09375 
Q 46.96875 40.921875 40.578125 39.3125 
z
" id="DejaVuSans-33"/>
      </defs>
      <g transform="translate(266.457239 315.038437)scale(0.1 -0.1)">
       <use xlink:href="#DejaVuSans-2d"/>
       <use x="36.083984" xlink:href="#DejaVuSans-33"/>
       <use x="99.707031" xlink:href="#DejaVuSans-30"/>
       <use x="163.330078" xlink:href="#DejaVuSans-b0"/>
      </g>
     </g>
    </g>
    <g id="xtick_6">
     <g id="line2d_6">
      <path clip-path="url(#p0bef199497)" d="M 103.78 212.199062 
L 283.596752 260.380816 
" style="fill:none;stroke:#b0b0b0;stroke-linecap:square;stroke-width:0.8;"/>
     </g>
     <g id="text_6">
      <!-- -15° -->
      <defs>
       <path d="M 12.40625 8.296875 
L 28.515625 8.296875 
L 28.515625 63.921875 
L 10.984375 60.40625 
L 10.984375 69.390625 
L 28.421875 72.90625 
L 38.28125 72.90625 
L 38.28125 8.296875 
L 54.390625 8.296875 
L 54.390625 0 
L 12.40625 0 
z
" id="DejaVuSans-31"/>
      </defs>
      <g transform="translate(286.453307 266.763658)scale(0.1 -0.1)">
       <use xlink:href="#DejaVuSans-2d"/>
       <use x="36.083984" xlink:href="#DejaVuSans-31"/>
       <use x="99.707031" xlink:href="#DejaVuSans-35"/>
       <use x="163.330078" xlink:href="#DejaVuSans-b0"/>
      </g>
     </g>
    </g>
    <g id="xtick_7">
     <g id="line2d_7">
      <path clip-path="url(#p0bef199497)" d="M 103.78 212.199062 
L 289.94 212.199062 
" style="fill:none;stroke:#b0b0b0;stroke-linecap:square;stroke-width:0.8;"/>
     </g>
     <g id="text_7">
      <!-- 0° -->
      <g transform="translate(298.25875 214.958437)scale(0.1 -0.1)">
       <use xlink:href="#DejaVuSans-30"/>
       <use x="63.623047" xlink:href="#DejaVuSans-b0"/>
      </g>
     </g>
    </g>
    <g id="xtick_8">
     <g id="line2d_8">
      <path clip-path="url(#p0bef199497)" d="M 103.78 212.199062 
L 283.596752 164.017309 
" style="fill:none;stroke:#b0b0b0;stroke-linecap:square;stroke-width:0.8;"/>
     </g>
     <g id="text_8">
      <!-- 15° -->
      <g transform="translate(288.257213 163.153217)scale(0.1 -0.1)">
       <use xlink:href="#DejaVuSans-31"/>
       <use x="63.623047" xlink:href="#DejaVuSans-35"/>
       <use x="127.246094" xlink:href="#DejaVuSans-b0"/>
      </g>
     </g>
    </g>
    <g id="xtick_9">
     <g id="line2d_9">
      <path clip-path="url(#p0bef199497)" d="M 103.78 212.199062 
L 264.999289 119.119062 
" style="fill:none;stroke:#b0b0b0;stroke-linecap:square;stroke-width:0.8;"/>
     </g>
     <g id="text_9">
      <!-- 30° -->
      <g transform="translate(268.261145 114.878437)scale(0.1 -0.1)">
       <use xlink:href="#DejaVuSans-33"/>
       <use x="63.623047" xlink:href="#DejaVuSans-30"/>
       <use x="127.246094" xlink:href="#DejaVuSans-b0"/>
      </g>
     </g>
    </g>
    <g id="xtick_10">
     <g id="line2d_10">
      <path clip-path="url(#p0bef199497)" d="M 103.78 212.199062 
L 235.414998 80.564064 
" style="fill:none;stroke:#b0b0b0;stroke-linecap:square;stroke-width:0.8;"/>
     </g>
     <g id="text_10">
      <!-- 45° -->
      <g transform="translate(236.451993 73.423944)scale(0.1 -0.1)">
       <use xlink:href="#DejaVuSans-34"/>
       <use x="63.623047" xlink:href="#DejaVuSans-35"/>
       <use x="127.246094" xlink:href="#DejaVuSans-b0"/>
      </g>
     </g>
    </g>
    <g id="xtick_11">
     <g id="line2d_11">
      <path clip-path="url(#p0bef199497)" d="M 103.78 212.199062 
L 196.86 50.979773 
" style="fill:none;stroke:#b0b0b0;stroke-linecap:square;stroke-width:0.8;"/>
     </g>
     <g id="text_11">
      <!-- 60° -->
      <g transform="translate(194.9975 41.614793)scale(0.1 -0.1)">
       <use xlink:href="#DejaVuSans-36"/>
       <use x="63.623047" xlink:href="#DejaVuSans-30"/>
       <use x="127.246094" xlink:href="#DejaVuSans-b0"/>
      </g>
     </g>
    </g>
    <g id="xtick_12">
     <g id="line2d_12">
      <path clip-path="url(#p0bef199497)" d="M 103.78 212.199062 
L 151.961753 32.382311 
" style="fill:none;stroke:#b0b0b0;stroke-linecap:square;stroke-width:0.8;"/>
     </g>
     <g id="text_12">
      <!-- 75° -->
      <g transform="translate(146.72272 21.618724)scale(0.1 -0.1)">
       <use xlink:href="#DejaVuSans-37"/>
       <use x="63.623047" xlink:href="#DejaVuSans-35"/>
       <use x="127.246094" xlink:href="#DejaVuSans-b0"/>
      </g>
     </g>
    </g>
    <g id="xtick_13">
     <g id="line2d_13">
      <path clip-path="url(#p0bef199497)" d="M 103.78 212.199062 
L 103.78 26.039062 
" style="fill:none;stroke:#b0b0b0;stroke-linecap:square;stroke-width:0.8;"/>
     </g>
     <g id="text_13">
      <!-- 90° -->
      <g transform="translate(94.9175 14.798437)scale(0.1 -0.1)">
       <use xlink:href="#DejaVuSans-39"/>
       <use x="63.623047" xlink:href="#DejaVuSans-30"/>
       <use x="127.246094" xlink:href="#DejaVuSans-b0"/>
      </g>
     </g>
    </g>
   </g>
   <g id="matplotlib.axis_2">
    <g id="ytick_1">
     <g id="line2d_14">
      <path clip-path="url(#p0bef199497)" d="M 103.78 212.199062 
L 103.78 212.199062 
" style="fill:none;stroke:#b0b0b0;stroke-linecap:square;stroke-width:0.8;"/>
     </g>
     <g id="text_14">
      <!-- −20 -->
      <defs>
       <path d="M 10.59375 35.5 
L 73.1875 35.5 
L 73.1875 27.203125 
L 10.59375 27.203125 
z
" id="DejaVuSans-2212"/>
       <path d="M 19.1875 8.296875 
L 53.609375 8.296875 
L 53.609375 0 
L 7.328125 0 
L 7.328125 8.296875 
Q 12.9375 14.109375 22.625 23.890625 
Q 32.328125 33.6875 34.8125 36.53125 
Q 39.546875 41.84375 41.421875 45.53125 
Q 43.3125 49.21875 43.3125 52.78125 
Q 43.3125 58.59375 39.234375 62.25 
Q 35.15625 65.921875 28.609375 65.921875 
Q 23.96875 65.921875 18.8125 64.3125 
Q 13.671875 62.703125 7.8125 59.421875 
L 7.8125 69.390625 
Q 13.765625 71.78125 18.9375 73 
Q 24.125 74.21875 28.421875 74.21875 
Q 39.75 74.21875 46.484375 68.546875 
Q 53.21875 62.890625 53.21875 53.421875 
Q 53.21875 48.921875 51.53125 44.890625 
Q 49.859375 40.875 45.40625 35.40625 
Q 44.1875 33.984375 37.640625 27.21875 
Q 31.109375 20.453125 19.1875 8.296875 
z
" id="DejaVuSans-32"/>
      </defs>
      <g transform="translate(75.675313 214.958437)scale(0.1 -0.1)">
       <use xlink:href="#DejaVuSans-2212"/>
       <use x="83.789062" xlink:href="#DejaVuSans-32"/>
       <use x="147.412109" xlink:href="#DejaVuSans-30"/>
      </g>
     </g>
    </g>
    <g id="ytick_2">
     <g id="line2d_15">
      <path clip-path="url(#p0bef199497)" d="M 103.78 243.225729 
L 106.484152 243.107663 
L 109.167724 242.754364 
L 111.810292 242.168521 
L 114.391745 241.354592 
L 116.892436 240.318772 
L 119.293333 239.068944 
L 121.576165 237.61462 
L 123.723557 235.966868 
L 125.719166 234.138229 
L 127.547806 232.142619 
L 129.195557 229.995227 
L 130.649882 227.712396 
L 131.89971 225.311498 
L 132.93553 222.810807 
L 133.749459 220.229355 
L 134.335302 217.586787 
L 134.688601 214.903215 
L 134.806667 212.199062 
L 134.688601 209.49491 
L 134.335302 206.811338 
L 133.749459 204.16877 
L 132.93553 201.587318 
L 131.89971 199.086627 
L 130.649882 196.685729 
L 129.195557 194.402898 
L 127.547806 192.255506 
L 125.719166 190.259896 
L 123.723557 188.431257 
L 121.576165 186.783505 
L 119.293333 185.329181 
L 116.892436 184.079353 
L 114.391745 183.043533 
L 111.810292 182.229604 
L 109.167724 181.643761 
L 106.484152 181.290462 
L 103.78 181.172396 
L 103.78 181.172396 
" style="fill:none;stroke:#b0b0b0;stroke-linecap:square;stroke-width:0.8;"/>
     </g>
     <g id="text_15">
      <!-- −15 -->
      <g transform="translate(75.675313 245.985104)scale(0.1 -0.1)">
       <use xlink:href="#DejaVuSans-2212"/>
       <use x="83.789062" xlink:href="#DejaVuSans-31"/>
       <use x="147.412109" xlink:href="#DejaVuSans-35"/>
      </g>
     </g>
    </g>
    <g id="ytick_3">
     <g id="line2d_16">
      <path clip-path="url(#p0bef199497)" d="M 103.78 274.252396 
L 107.027621 274.167354 
L 110.26634 273.912461 
L 113.48728 273.488416 
L 116.681613 272.896382 
L 119.840584 272.13798 
L 122.955535 271.21529 
L 126.017926 270.13084 
L 129.019364 268.887603 
L 131.951624 267.488987 
L 134.806667 265.938826 
L 137.576668 264.241367 
L 140.254034 262.401264 
L 142.831428 260.42356 
L 145.301785 258.313676 
L 147.658333 256.077395 
L 149.894614 253.720847 
L 152.004497 251.25049 
L 153.982201 248.673097 
L 155.822304 245.99573 
L 157.519763 243.225729 
L 159.069925 240.370686 
L 160.468541 237.438427 
L 161.711777 234.436988 
L 162.796227 231.374597 
L 163.718917 228.259647 
L 164.477319 225.100676 
L 165.069354 221.906343 
L 165.493399 218.685402 
L 165.748291 215.446683 
L 165.833333 212.199062 
L 165.748291 208.951442 
L 165.493399 205.712723 
L 165.069354 202.491782 
L 164.477319 199.297449 
L 163.718917 196.138478 
L 162.796227 193.023528 
L 161.711777 189.961137 
L 160.468541 186.959698 
L 159.069925 184.027439 
L 157.519763 181.172396 
L 155.822304 178.402395 
L 153.982201 175.725028 
L 152.004497 173.147635 
L 149.894614 170.677278 
L 147.658333 168.32073 
L 145.301785 166.084449 
L 142.831428 163.974565 
L 140.254034 161.996861 
L 137.576668 160.156758 
L 134.806667 158.459299 
L 131.951624 156.909138 
L 129.019364 155.510522 
L 126.017926 154.267285 
L 122.955535 153.182835 
L 119.840584 152.260145 
L 116.681613 151.501743 
L 113.48728 150.909709 
L 110.26634 150.485664 
L 107.027621 150.230771 
L 103.78 150.145729 
L 103.78 150.145729 
" style="fill:none;stroke:#b0b0b0;stroke-linecap:square;stroke-width:0.8;"/>
     </g>
     <g id="text_16">
      <!-- −10 -->
      <g transform="translate(75.675313 277.011771)scale(0.1 -0.1)">
       <use xlink:href="#DejaVuSans-2212"/>
       <use x="83.789062" xlink:href="#DejaVuSans-31"/>
       <use x="147.412109" xlink:href="#DejaVuSans-30"/>
      </g>
     </g>
    </g>
    <g id="ytick_4">
     <g id="line2d_17">
      <path clip-path="url(#p0bef199497)" d="M 103.78 305.279062 
L 108.651431 305.1515 
L 113.509509 304.769161 
L 118.34092 304.133093 
L 123.13242 303.245041 
L 127.870877 302.107438 
L 132.543302 300.723403 
L 137.136889 299.096729 
L 141.639047 297.231874 
L 146.037436 295.13395 
L 150.32 292.808707 
L 154.475001 290.262519 
L 158.491051 287.502364 
L 162.357142 284.535809 
L 166.062677 281.370983 
L 169.597499 278.016562 
L 172.95192 274.481739 
L 176.116746 270.776204 
L 179.083302 266.910114 
L 181.843456 262.894064 
L 184.389645 258.739062 
L 186.714887 254.456498 
L 188.812811 250.058109 
L 190.677666 245.555951 
L 192.304341 240.962364 
L 193.688376 236.289939 
L 194.825979 231.551483 
L 195.714031 226.759983 
L 196.350098 221.928572 
L 196.732437 217.070493 
L 196.86 212.199062 
L 196.732437 207.327632 
L 196.350098 202.469553 
L 195.714031 197.638142 
L 194.825979 192.846642 
L 193.688376 188.108186 
L 192.304341 183.435761 
L 190.677666 178.842174 
L 188.812811 174.340016 
L 186.714887 169.941627 
L 184.389645 165.659062 
L 181.843456 161.504061 
L 179.083302 157.488011 
L 176.116746 153.621921 
L 172.95192 149.916386 
L 169.597499 146.381563 
L 166.062677 143.027142 
L 162.357142 139.862316 
L 158.491051 136.895761 
L 154.475001 134.135606 
L 150.32 131.589418 
L 146.037436 129.264175 
L 141.639047 127.166251 
L 137.136889 125.301396 
L 132.543302 123.674722 
L 127.870877 122.290687 
L 123.13242 121.153084 
L 118.34092 120.265032 
L 113.509509 119.628964 
L 108.651431 119.246625 
L 103.78 119.119062 
L 103.78 119.119062 
" style="fill:none;stroke:#b0b0b0;stroke-linecap:square;stroke-width:0.8;"/>
     </g>
     <g id="text_17">
      <!-- −5 -->
      <g transform="translate(82.037813 308.038437)scale(0.1 -0.1)">
       <use xlink:href="#DejaVuSans-2212"/>
       <use x="83.789062" xlink:href="#DejaVuSans-35"/>
      </g>
     </g>
    </g>
    <g id="ytick_5">
     <g id="line2d_18">
      <path clip-path="url(#p0bef199497)" d="M 103.78 336.305729 
L 108.11126 336.230127 
L 112.437243 336.003412 
L 116.752679 335.62586 
L 121.05231 335.097932 
L 125.330897 334.42027 
L 129.583227 333.593701 
L 133.80412 332.619231 
L 137.988433 331.498047 
L 142.131069 330.231517 
L 146.22698 328.821181 
L 150.271176 327.26876 
L 154.258729 325.576144 
L 158.184782 323.745396 
L 162.044551 321.778745 
L 165.833333 319.678589 
L 169.546513 317.447485 
L 173.179567 315.088152 
L 176.728068 312.603465 
L 180.187693 309.99645 
L 183.554228 307.270285 
L 186.823569 304.42829 
L 189.991735 301.473927 
L 193.054865 298.410797 
L 196.009227 295.242632 
L 198.851222 291.97329 
L 201.577388 288.606756 
L 204.184402 285.147131 
L 206.66909 281.59863 
L 209.028422 277.965576 
L 211.259526 274.252396 
L 213.359683 270.463613 
L 215.326333 266.603844 
L 217.157082 262.677791 
L 218.849698 258.690238 
L 220.402119 254.646042 
L 221.812454 250.550132 
L 223.078985 246.407496 
L 224.200168 242.223183 
L 225.174638 238.002289 
L 226.001208 233.749959 
L 226.678869 229.471372 
L 227.206797 225.171742 
L 227.584349 220.856306 
L 227.811064 216.530323 
L 227.886667 212.199062 
L 227.811064 207.867802 
L 227.584349 203.541819 
L 227.206797 199.226383 
L 226.678869 194.926753 
L 226.001208 190.648166 
L 225.174638 186.395836 
L 224.200168 182.174942 
L 223.078985 177.990629 
L 221.812454 173.847993 
L 220.402119 169.752083 
L 218.849698 165.707887 
L 217.157082 161.720334 
L 215.326333 157.794281 
L 213.359683 153.934512 
L 211.259526 150.145729 
L 209.028422 146.432549 
L 206.66909 142.799495 
L 204.184402 139.250994 
L 201.577388 135.791369 
L 198.851222 132.424835 
L 196.009227 129.155493 
L 193.054865 125.987328 
L 189.991735 122.924198 
L 186.823569 119.969835 
L 183.554228 117.12784 
L 180.187693 114.401675 
L 176.728068 111.79466 
L 173.179567 109.309973 
L 169.546513 106.95064 
L 165.833333 104.719536 
L 162.044551 102.61938 
L 158.184782 100.652729 
L 154.258729 98.821981 
L 150.271176 97.129365 
L 146.22698 95.576944 
L 142.131069 94.166608 
L 137.988433 92.900078 
L 133.80412 91.778894 
L 129.583227 90.804424 
L 125.330897 89.977855 
L 121.05231 89.300193 
L 116.752679 88.772265 
L 112.437243 88.394713 
L 108.11126 88.167998 
L 103.78 88.092396 
L 103.78 88.092396 
" style="fill:none;stroke:#b0b0b0;stroke-linecap:square;stroke-width:0.8;"/>
     </g>
     <g id="text_18">
      <!-- 0 -->
      <g transform="translate(90.4175 339.065104)scale(0.1 -0.1)">
       <use xlink:href="#DejaVuSans-30"/>
      </g>
     </g>
    </g>
    <g id="ytick_6">
     <g id="line2d_19">
      <path clip-path="url(#p0bef199497)" d="M 103.78 367.332396 
L 109.194075 367.237893 
L 114.601554 366.954499 
L 119.995849 366.482559 
L 125.370387 365.822649 
L 130.718621 364.975572 
L 136.034034 363.94236 
L 141.31015 362.724273 
L 146.540542 361.322794 
L 151.718836 359.73963 
L 156.838725 357.976711 
L 161.89397 356.036184 
L 166.878411 353.920414 
L 171.785977 351.631979 
L 176.610688 349.173666 
L 181.346667 346.54847 
L 185.988142 343.75959 
L 190.529459 340.810425 
L 194.965085 337.704566 
L 199.289617 334.445797 
L 203.497785 331.03809 
L 207.584461 327.485596 
L 211.544669 323.792644 
L 215.373581 319.963731 
L 219.066534 316.003524 
L 222.619028 311.916847 
L 226.026735 307.708679 
L 229.285503 303.384148 
L 232.391362 298.948522 
L 235.340528 294.407204 
L 238.129408 289.765729 
L 240.754603 285.029751 
L 243.212916 280.20504 
L 245.501352 275.297474 
L 247.617122 270.313032 
L 249.557649 265.257787 
L 251.320568 260.137899 
L 252.903731 254.959604 
L 254.30521 249.729213 
L 255.523298 244.453096 
L 256.556509 239.137683 
L 257.403586 233.78945 
L 258.063497 228.414911 
L 258.535436 223.020617 
L 258.81883 217.613138 
L 258.913333 212.199062 
L 258.81883 206.784987 
L 258.535436 201.377508 
L 258.063497 195.983214 
L 257.403586 190.608675 
L 256.556509 185.260442 
L 255.523298 179.945029 
L 254.30521 174.668912 
L 252.903731 169.438521 
L 251.320568 164.260226 
L 249.557649 159.140338 
L 247.617122 154.085093 
L 245.501352 149.100651 
L 243.212916 144.193085 
L 240.754603 139.368374 
L 238.129408 134.632396 
L 235.340528 129.990921 
L 232.391362 125.449603 
L 229.285503 121.013977 
L 226.026735 116.689446 
L 222.619028 112.481278 
L 219.066534 108.394601 
L 215.373581 104.434394 
L 211.544669 100.605481 
L 207.584461 96.912529 
L 203.497785 93.360035 
L 199.289617 89.952328 
L 194.965085 86.693559 
L 190.529459 83.5877 
L 185.988142 80.638535 
L 181.346667 77.849655 
L 176.610688 75.224459 
L 171.785977 72.766146 
L 166.878411 70.477711 
L 161.89397 68.361941 
L 156.838725 66.421414 
L 151.718836 64.658495 
L 146.540542 63.075331 
L 141.31015 61.673852 
L 136.034034 60.455765 
L 130.718621 59.422553 
L 125.370387 58.575476 
L 119.995849 57.915566 
L 114.601554 57.443626 
L 109.194075 57.160232 
L 103.78 57.065729 
L 103.78 57.065729 
" style="fill:none;stroke:#b0b0b0;stroke-linecap:square;stroke-width:0.8;"/>
     </g>
     <g id="text_19">
      <!-- 5 -->
      <g transform="translate(90.4175 370.091771)scale(0.1 -0.1)">
       <use xlink:href="#DejaVuSans-35"/>
      </g>
     </g>
    </g>
    <g id="ytick_7">
     <g id="line2d_20">
      <path clip-path="url(#p0bef199497)" d="M 103.78 398.359062 
L 110.27689 398.245659 
L 116.765865 397.905586 
L 123.239019 397.339259 
L 129.688464 396.547366 
L 136.106345 395.530874 
L 142.48484 394.29102 
L 148.81618 392.829315 
L 155.09265 391.14754 
L 161.306604 389.247744 
L 167.45047 387.132241 
L 173.516763 384.803609 
L 179.498093 382.264685 
L 185.387173 379.518562 
L 191.176826 376.568586 
L 196.86 373.418352 
L 202.42977 370.071696 
L 207.879351 366.532697 
L 213.202103 362.805666 
L 218.39154 358.895144 
L 223.441341 354.805896 
L 228.345354 350.542903 
L 233.097602 346.11136 
L 237.692297 341.516665 
L 242.123841 336.764416 
L 246.386834 331.860404 
L 250.476082 326.810603 
L 254.386604 321.621165 
L 258.113635 316.298413 
L 261.652634 310.848833 
L 264.999289 305.279062 
L 268.149524 299.595889 
L 271.0995 293.806235 
L 273.845622 287.917156 
L 276.384546 281.935826 
L 278.713178 275.869532 
L 280.828681 269.725666 
L 282.728477 263.511713 
L 284.410252 257.235243 
L 285.871957 250.903903 
L 287.111811 244.525407 
L 288.128304 238.107527 
L 288.920196 231.658081 
L 289.486524 225.184928 
L 289.826596 218.695953 
L 289.94 212.199062 
L 289.826596 205.702172 
L 289.486524 199.213197 
L 288.920196 192.740044 
L 288.128304 186.290598 
L 287.111811 179.872718 
L 285.871957 173.494222 
L 284.410252 167.162882 
L 282.728477 160.886412 
L 280.828681 154.672459 
L 278.713178 148.528593 
L 276.384546 142.462299 
L 273.845622 136.480969 
L 271.0995 130.59189 
L 268.149524 124.802236 
L 264.999289 119.119062 
L 261.652634 113.549292 
L 258.113635 108.099712 
L 254.386604 102.77696 
L 250.476082 97.587522 
L 246.386834 92.537721 
L 242.123841 87.633709 
L 237.692297 82.88146 
L 233.097602 78.286765 
L 228.345354 73.855222 
L 223.441341 69.592229 
L 218.39154 65.502981 
L 213.202103 61.592459 
L 207.879351 57.865428 
L 202.42977 54.326429 
L 196.86 50.979773 
L 191.176826 47.829539 
L 185.387173 44.879563 
L 179.498093 42.13344 
L 173.516763 39.594516 
L 167.45047 37.265884 
L 161.306604 35.150381 
L 155.09265 33.250585 
L 148.81618 31.56881 
L 142.48484 30.107105 
L 136.106345 28.867251 
L 129.688464 27.850759 
L 123.239019 27.058866 
L 116.765865 26.492539 
L 110.27689 26.152466 
L 103.78 26.039062 
L 103.78 26.039062 
" style="fill:none;stroke:#b0b0b0;stroke-linecap:square;stroke-width:0.8;"/>
     </g>
     <g id="text_20">
      <!-- 10 -->
      <g transform="translate(84.055 401.118437)scale(0.1 -0.1)">
       <use xlink:href="#DejaVuSans-31"/>
       <use x="63.623047" xlink:href="#DejaVuSans-30"/>
      </g>
     </g>
    </g>
   </g>
   <g id="line2d_21">
    <path clip-path="url(#p0bef199497)" d="M 208.705441 212.199062 
L 208.858001 208.529658 
L 209.304038 204.820103 
L 210.010334 201.033804 
L 211.444903 195.146617 
L 215.440908 180.180812 
L 216.478604 175.581066 
L 217.379716 170.852147 
L 218.107456 166.007772 
L 218.632217 161.063561 
L 218.930711 156.036308 
L 218.985049 150.943451 
L 218.781871 145.802702 
L 218.311569 140.631795 
L 217.56764 135.44833 
L 216.546145 130.269663 
L 215.245281 125.11284 
L 213.665043 119.994564 
L 211.806949 114.931161 
L 209.673842 109.938568 
L 207.269723 105.032317 
L 204.599629 100.227521 
L 201.669531 95.538863 
L 198.486263 90.980574 
L 195.057456 86.566422 
L 191.39149 82.309687 
L 187.497449 78.223138 
L 183.385084 74.319013 
L 179.064779 70.608987 
L 174.547517 67.104151 
L 169.844849 63.814981 
L 164.968863 60.751312 
L 159.932146 57.92231 
L 154.747754 55.336446 
L 149.429175 53.001469 
L 143.990293 50.924386 
L 138.445346 49.111433 
L 132.808888 47.56806 
L 127.095746 46.29891 
L 121.320978 45.307805 
L 115.499827 44.597731 
L 109.647675 44.170828 
L 103.78 44.028384 
L 97.912325 44.170828 
L 92.060173 44.597731 
L 86.239022 45.307805 
L 80.464254 46.29891 
L 74.751112 47.56806 
L 69.114654 49.111433 
L 63.569707 50.924386 
L 58.130825 53.001469 
L 52.812246 55.336446 
L 47.627854 57.92231 
L 42.591137 60.751312 
L 37.715151 63.814981 
L 33.012483 67.104151 
L 28.495221 70.608987 
L 24.174916 74.319013 
L 20.062551 78.223138 
L 16.16851 82.309687 
L 12.502544 86.566422 
L 9.073737 90.980574 
L 5.890469 95.538863 
L 2.960371 100.227521 
L 0.290277 105.032317 
L -1 107.588941 
M -1 316.809184 
L 0.290277 319.365808 
L 2.960371 324.170604 
L 5.890469 328.859262 
L 9.073737 333.417551 
L 12.502544 337.831703 
L 16.16851 342.088438 
L 20.062551 346.174987 
L 24.174916 350.079112 
L 28.495221 353.789138 
L 33.012483 357.293974 
L 37.715151 360.583144 
L 42.591137 363.646813 
L 47.627854 366.475815 
L 52.812246 369.061679 
L 58.130825 371.396656 
L 63.569707 373.473739 
L 69.114654 375.286692 
L 74.751112 376.830065 
L 80.464254 378.099215 
L 86.239022 379.09032 
L 92.060173 379.800394 
L 97.912325 380.227297 
L 103.78 380.369741 
L 109.647675 380.227297 
L 115.499827 379.800394 
L 121.320978 379.09032 
L 127.095746 378.099215 
L 132.808888 376.830065 
L 138.445346 375.286692 
L 143.990293 373.473739 
L 149.429175 371.396656 
L 154.747754 369.061679 
L 159.932146 366.475815 
L 164.968863 363.646813 
L 169.844849 360.583144 
L 174.547517 357.293974 
L 179.064779 353.789138 
L 183.385084 350.079112 
L 187.497449 346.174987 
L 191.39149 342.088438 
L 195.057456 337.831703 
L 198.486263 333.417551 
L 201.669531 328.859262 
L 204.599629 324.170604 
L 207.269723 319.365808 
L 209.673842 314.459557 
L 211.806949 309.466964 
L 213.665043 304.403561 
L 215.245281 299.285285 
L 216.546145 294.128462 
L 217.56764 288.949795 
L 218.311569 283.76633 
L 218.781871 278.595423 
L 218.985049 273.454674 
L 218.930711 268.361817 
L 218.632217 263.334564 
L 218.107456 258.390353 
L 217.379716 253.545978 
L 216.478604 248.817059 
L 214.884456 241.969412 
L 212.560671 233.343883 
L 210.445897 225.295988 
L 209.627461 221.459515 
L 209.045948 217.715817 
L 208.743766 214.031212 
L 208.743766 214.031212 
" style="fill:none;stroke:#e41a1c;stroke-linecap:square;"/>
   </g>
   <g id="line2d_22">
    <path clip-path="url(#p0bef199497)" d="M 220.486659 212.199062 
L 220.663547 206.073455 
L 221.075999 199.870756 
L 222.084455 189.203006 
L 222.903185 180.280101 
L 223.351088 173.348061 
L 223.543264 166.226253 
L 223.486189 161.3868 
L 223.255622 156.486665 
L 222.833586 151.53823 
L 222.205248 146.554876 
L 221.358682 141.550663 
L 220.284601 136.54009 
L 218.976088 131.537894 
L 217.428337 126.558898 
L 215.638423 121.617897 
L 213.605096 116.729563 
L 211.328596 111.908374 
L 208.810503 107.168559 
L 206.053604 102.52405 
L 203.061778 97.988442 
L 199.839905 93.574959 
L 196.39378 89.296425 
L 192.730046 85.165231 
L 188.85613 81.193311 
L 184.780186 77.392116 
L 180.511051 73.772582 
L 176.058197 70.345114 
L 171.431686 67.119553 
L 166.642133 64.105157 
L 161.700665 61.310572 
L 156.618878 58.743818 
L 151.408807 56.412256 
L 146.082877 54.322578 
L 140.653871 52.480782 
L 135.134886 50.892156 
L 129.539297 49.561265 
L 123.880708 48.491931 
L 118.172921 47.687228 
L 112.429883 47.149471 
L 106.665651 46.880205 
L 100.894349 46.880205 
L 95.130117 47.149471 
L 89.387079 47.687228 
L 83.679292 48.491931 
L 78.020703 49.561265 
L 72.425114 50.892156 
L 66.906129 52.480782 
L 61.477123 54.322578 
L 56.151193 56.412256 
L 50.941122 58.743818 
L 45.859335 61.310572 
L 40.917867 64.105157 
L 36.128314 67.119553 
L 31.501803 70.345114 
L 27.048949 73.772582 
L 22.779814 77.392116 
L 18.70387 81.193311 
L 14.829954 85.165231 
L 11.16622 89.296425 
L 7.720095 93.574959 
L 4.498222 97.988442 
L 1.506396 102.52405 
L -1 106.734897 
M -1 317.75654 
L 1.454468 321.929761 
L 4.428557 326.489823 
L 7.635076 330.928155 
L 11.068259 335.231699 
L 14.721461 339.387838 
L 18.587227 343.384429 
L 22.657349 347.209826 
L 26.92292 350.852905 
L 31.37438 354.303094 
L 36.001562 357.550392 
L 40.793738 360.585396 
L 45.739657 363.399325 
L 50.827585 365.984043 
L 56.045348 368.332074 
L 61.380371 370.436633 
L 66.819718 372.291634 
L 72.350132 373.891715 
L 77.95808 375.23225 
L 83.629789 376.30936 
L 89.351294 377.119932 
L 95.108475 377.661619 
L 100.887106 377.932855 
L 106.672894 377.932855 
L 112.451525 377.661619 
L 118.208706 377.119932 
L 123.930211 376.30936 
L 129.60192 375.23225 
L 135.209868 373.891715 
L 140.740282 372.291634 
L 146.179629 370.436633 
L 151.514652 368.332074 
L 156.732415 365.984043 
L 161.820343 363.399325 
L 166.766262 360.585396 
L 171.558438 357.550392 
L 176.18562 354.303094 
L 180.63708 350.852905 
L 184.902651 347.209826 
L 188.972773 343.384429 
L 192.838539 339.387838 
L 196.491741 335.231699 
L 199.924924 330.928155 
L 203.131443 326.489823 
L 206.105532 321.929761 
L 208.842378 317.26144 
L 211.33821 312.498716 
L 213.590401 307.655788 
L 215.597589 302.747161 
L 217.359819 297.787595 
L 218.878707 292.792045 
L 220.157632 287.77558 
L 221.201954 282.75329 
L 222.019258 277.740154 
L 222.61962 272.750873 
L 223.015878 267.799666 
L 223.2239 262.89999 
L 223.262804 258.064214 
L 223.054233 250.95361 
L 222.606591 244.038552 
L 221.420522 230.831491 
L 220.770742 222.434426 
L 220.515492 216.275556 
L 220.486277 214.236178 
L 220.486277 214.236178 
" style="fill:none;stroke:#377eb8;stroke-linecap:square;"/>
   </g>
   <g id="line2d_23">
    <path clip-path="url(#p0bef199497)" d="M 232.873992 212.199062 
L 232.801675 200.911129 
L 232.563937 191.801691 
L 232.084758 182.577575 
L 231.505784 175.574283 
L 230.68657 168.501626 
L 229.58105 161.372139 
L 228.663826 156.597201 
L 227.589147 151.813307 
L 226.34703 147.029017 
L 224.928851 142.253741 
L 223.327388 137.497563 
L 221.536828 132.771079 
L 219.552737 128.085246 
L 217.372014 123.451255 
L 214.99283 118.880418 
L 212.41456 114.384066 
L 209.637704 109.973466 
L 206.66382 105.659748 
L 203.495441 101.453846 
L 200.136012 97.366439 
L 196.589818 93.407913 
L 192.861922 89.588316 
L 188.958105 85.917329 
L 184.884809 82.404237 
L 180.649086 79.0579 
L 176.258549 75.886736 
L 171.721327 72.898699 
L 167.046018 70.10126 
L 162.241653 67.501394 
L 157.317654 65.105568 
L 152.283798 62.919723 
L 147.150181 60.949268 
L 141.927183 59.199069 
L 136.625435 57.673439 
L 131.255787 56.37613 
L 125.829273 55.310331 
L 120.357083 54.478655 
L 114.850528 53.883142 
L 109.321012 53.52525 
L 103.78 53.405856 
L 98.238988 53.52525 
L 92.709472 53.883142 
L 87.202917 54.478655 
L 81.730727 55.310331 
L 76.304213 56.37613 
L 70.934565 57.673439 
L 65.632817 59.199069 
L 60.409819 60.949268 
L 55.276202 62.919723 
L 50.242346 65.105568 
L 45.318347 67.501394 
L 40.513982 70.10126 
L 35.838673 72.898699 
L 31.301451 75.886736 
L 26.910914 79.0579 
L 22.675191 82.404237 
L 18.601895 85.917329 
L 14.698078 89.588316 
L 10.970182 93.407913 
L 7.423988 97.366439 
L 4.064559 101.453846 
L 0.89618 105.659748 
L -1 108.374608 
M -1 316.129615 
L 0.845891 318.790453 
L 4.003189 323.012437 
L 7.352818 327.116503 
L 10.890582 331.092095 
L 14.611483 334.928997 
L 18.509781 338.617361 
L 22.579052 342.147744 
L 26.812241 345.511131 
L 31.201718 348.698958 
L 35.739319 351.703133 
L 40.416394 354.516051 
L 45.223852 357.130616 
L 50.152194 359.540248 
L 55.191561 361.738901 
L 60.331763 363.721072 
L 65.562319 365.481809 
L 70.87249 367.016726 
L 76.251313 368.322002 
L 81.687636 369.394397 
L 87.170148 370.231249 
L 92.68741 370.830485 
L 98.227892 371.190621 
L 103.78 371.310765 
L 109.332108 371.190621 
L 114.87259 370.830485 
L 120.389852 370.231249 
L 125.872364 369.394397 
L 131.308687 368.322002 
L 136.68751 367.016726 
L 141.997681 365.481809 
L 147.228237 363.721072 
L 152.368439 361.738901 
L 157.407806 359.540248 
L 162.336148 357.130616 
L 167.143606 354.516051 
L 171.820681 351.703133 
L 176.358282 348.698958 
L 180.747759 345.511131 
L 184.980948 342.147744 
L 189.050219 338.617361 
L 192.948517 334.928997 
L 196.669418 331.092095 
L 200.207182 327.116503 
L 203.556811 323.012437 
L 206.714109 318.790453 
L 209.675753 314.461403 
L 212.439356 310.036386 
L 215.003545 305.526698 
L 217.368034 300.94376 
L 219.533701 296.299049 
L 221.502662 291.604 
L 223.278338 286.869911 
L 224.865516 282.107818 
L 226.270391 277.328359 
L 227.500583 272.541623 
L 228.565125 267.75698 
L 229.87441 260.602172 
L 230.874756 253.494652 
L 231.611 246.451276 
L 232.13036 239.480774 
L 232.565086 230.298626 
L 232.824026 218.961973 
L 232.864922 214.452248 
L 232.864922 214.452248 
" style="fill:none;stroke:#4daf4a;stroke-linecap:square;"/>
   </g>
   <g id="patch_3">
    <path d="M 103.78 398.359062 
C 153.133766 398.359062 200.516616 378.732444 235.414998 343.834061 
C 270.313381 308.935678 289.94 261.552829 289.94 212.199062 
C 289.94 162.845296 270.313381 115.462447 235.414998 80.564064 
C 200.516616 45.665681 153.133766 26.039062 103.78 26.039062 
" style="fill:none;stroke:#000000;stroke-linecap:square;stroke-linejoin:miter;stroke-width:0.8;"/>
   </g>
   <g id="patch_4">
    <path d="M 103.78 212.199062 
L 103.78 398.359062 
" style="fill:none;stroke:#000000;stroke-linecap:square;stroke-linejoin:miter;stroke-width:0.8;"/>
   </g>
   <g id="patch_5">
    <path d="M 103.78 212.199062 
L 103.78 26.039062 
" style="fill:none;stroke:#000000;stroke-linecap:square;stroke-linejoin:miter;stroke-width:0.8;"/>
   </g>
   <g id="legend_1">
    <g id="patch_6">
     <path d="M 337.362937 243.055312 
L 413.252 243.055312 
Q 415.252 243.055312 415.252 241.055312 
L 415.252 183.342812 
Q 415.252 181.342812 413.252 181.342812 
L 337.362937 181.342812 
Q 335.362937 181.342812 335.362937 183.342812 
L 335.362937 241.055312 
Q 335.362937 243.055312 337.362937 243.055312 
z
" style="fill:#ffffff;opacity:0.8;stroke:#cccccc;stroke-linejoin:miter;"/>
    </g>
    <g id="text_21">
     <!-- V-dipole angle -->
     <defs>
      <path d="M 28.609375 0 
L 0.78125 72.90625 
L 11.078125 72.90625 
L 34.1875 11.53125 
L 57.328125 72.90625 
L 67.578125 72.90625 
L 39.796875 0 
z
" id="DejaVuSans-56"/>
      <path d="M 45.40625 46.390625 
L 45.40625 75.984375 
L 54.390625 75.984375 
L 54.390625 0 
L 45.40625 0 
L 45.40625 8.203125 
Q 42.578125 3.328125 38.25 0.953125 
Q 33.9375 -1.421875 27.875 -1.421875 
Q 17.96875 -1.421875 11.734375 6.484375 
Q 5.515625 14.40625 5.515625 27.296875 
Q 5.515625 40.1875 11.734375 48.09375 
Q 17.96875 56 27.875 56 
Q 33.9375 56 38.25 53.625 
Q 42.578125 51.265625 45.40625 46.390625 
z
M 14.796875 27.296875 
Q 14.796875 17.390625 18.875 11.75 
Q 22.953125 6.109375 30.078125 6.109375 
Q 37.203125 6.109375 41.296875 11.75 
Q 45.40625 17.390625 45.40625 27.296875 
Q 45.40625 37.203125 41.296875 42.84375 
Q 37.203125 48.484375 30.078125 48.484375 
Q 22.953125 48.484375 18.875 42.84375 
Q 14.796875 37.203125 14.796875 27.296875 
z
" id="DejaVuSans-64"/>
      <path d="M 9.421875 54.6875 
L 18.40625 54.6875 
L 18.40625 0 
L 9.421875 0 
z
M 9.421875 75.984375 
L 18.40625 75.984375 
L 18.40625 64.59375 
L 9.421875 64.59375 
z
" id="DejaVuSans-69"/>
      <path d="M 18.109375 8.203125 
L 18.109375 -20.796875 
L 9.078125 -20.796875 
L 9.078125 54.6875 
L 18.109375 54.6875 
L 18.109375 46.390625 
Q 20.953125 51.265625 25.265625 53.625 
Q 29.59375 56 35.59375 56 
Q 45.5625 56 51.78125 48.09375 
Q 58.015625 40.1875 58.015625 27.296875 
Q 58.015625 14.40625 51.78125 6.484375 
Q 45.5625 -1.421875 35.59375 -1.421875 
Q 29.59375 -1.421875 25.265625 0.953125 
Q 20.953125 3.328125 18.109375 8.203125 
z
M 48.6875 27.296875 
Q 48.6875 37.203125 44.609375 42.84375 
Q 40.53125 48.484375 33.40625 48.484375 
Q 26.265625 48.484375 22.1875 42.84375 
Q 18.109375 37.203125 18.109375 27.296875 
Q 18.109375 17.390625 22.1875 11.75 
Q 26.265625 6.109375 33.40625 6.109375 
Q 40.53125 6.109375 44.609375 11.75 
Q 48.6875 17.390625 48.6875 27.296875 
z
" id="DejaVuSans-70"/>
      <path d="M 30.609375 48.390625 
Q 23.390625 48.390625 19.1875 42.75 
Q 14.984375 37.109375 14.984375 27.296875 
Q 14.984375 17.484375 19.15625 11.84375 
Q 23.34375 6.203125 30.609375 6.203125 
Q 37.796875 6.203125 41.984375 11.859375 
Q 46.1875 17.53125 46.1875 27.296875 
Q 46.1875 37.015625 41.984375 42.703125 
Q 37.796875 48.390625 30.609375 48.390625 
z
M 30.609375 56 
Q 42.328125 56 49.015625 48.375 
Q 55.71875 40.765625 55.71875 27.296875 
Q 55.71875 13.875 49.015625 6.21875 
Q 42.328125 -1.421875 30.609375 -1.421875 
Q 18.84375 -1.421875 12.171875 6.21875 
Q 5.515625 13.875 5.515625 27.296875 
Q 5.515625 40.765625 12.171875 48.375 
Q 18.84375 56 30.609375 56 
z
" id="DejaVuSans-6f"/>
      <path d="M 9.421875 75.984375 
L 18.40625 75.984375 
L 18.40625 0 
L 9.421875 0 
z
" id="DejaVuSans-6c"/>
      <path d="M 56.203125 29.59375 
L 56.203125 25.203125 
L 14.890625 25.203125 
Q 15.484375 15.921875 20.484375 11.0625 
Q 25.484375 6.203125 34.421875 6.203125 
Q 39.59375 6.203125 44.453125 7.46875 
Q 49.3125 8.734375 54.109375 11.28125 
L 54.109375 2.78125 
Q 49.265625 0.734375 44.1875 -0.34375 
Q 39.109375 -1.421875 33.890625 -1.421875 
Q 20.796875 -1.421875 13.15625 6.1875 
Q 5.515625 13.8125 5.515625 26.8125 
Q 5.515625 40.234375 12.765625 48.109375 
Q 20.015625 56 32.328125 56 
Q 43.359375 56 49.78125 48.890625 
Q 56.203125 41.796875 56.203125 29.59375 
z
M 47.21875 32.234375 
Q 47.125 39.59375 43.09375 43.984375 
Q 39.0625 48.390625 32.421875 48.390625 
Q 24.90625 48.390625 20.390625 44.140625 
Q 15.875 39.890625 15.1875 32.171875 
z
" id="DejaVuSans-65"/>
      <path id="DejaVuSans-20"/>
      <path d="M 34.28125 27.484375 
Q 23.390625 27.484375 19.1875 25 
Q 14.984375 22.515625 14.984375 16.5 
Q 14.984375 11.71875 18.140625 8.90625 
Q 21.296875 6.109375 26.703125 6.109375 
Q 34.1875 6.109375 38.703125 11.40625 
Q 43.21875 16.703125 43.21875 25.484375 
L 43.21875 27.484375 
z
M 52.203125 31.203125 
L 52.203125 0 
L 43.21875 0 
L 43.21875 8.296875 
Q 40.140625 3.328125 35.546875 0.953125 
Q 30.953125 -1.421875 24.3125 -1.421875 
Q 15.921875 -1.421875 10.953125 3.296875 
Q 6 8.015625 6 15.921875 
Q 6 25.140625 12.171875 29.828125 
Q 18.359375 34.515625 30.609375 34.515625 
L 43.21875 34.515625 
L 43.21875 35.40625 
Q 43.21875 41.609375 39.140625 45 
Q 35.0625 48.390625 27.6875 48.390625 
Q 23 48.390625 18.546875 47.265625 
Q 14.109375 46.140625 10.015625 43.890625 
L 10.015625 52.203125 
Q 14.9375 54.109375 19.578125 55.046875 
Q 24.21875 56 28.609375 56 
Q 40.484375 56 46.34375 49.84375 
Q 52.203125 43.703125 52.203125 31.203125 
z
" id="DejaVuSans-61"/>
      <path d="M 54.890625 33.015625 
L 54.890625 0 
L 45.90625 0 
L 45.90625 32.71875 
Q 45.90625 40.484375 42.875 44.328125 
Q 39.84375 48.1875 33.796875 48.1875 
Q 26.515625 48.1875 22.3125 43.546875 
Q 18.109375 38.921875 18.109375 30.90625 
L 18.109375 0 
L 9.078125 0 
L 9.078125 54.6875 
L 18.109375 54.6875 
L 18.109375 46.1875 
Q 21.34375 51.125 25.703125 53.5625 
Q 30.078125 56 35.796875 56 
Q 45.21875 56 50.046875 50.171875 
Q 54.890625 44.34375 54.890625 33.015625 
z
" id="DejaVuSans-6e"/>
      <path d="M 45.40625 27.984375 
Q 45.40625 37.75 41.375 43.109375 
Q 37.359375 48.484375 30.078125 48.484375 
Q 22.859375 48.484375 18.828125 43.109375 
Q 14.796875 37.75 14.796875 27.984375 
Q 14.796875 18.265625 18.828125 12.890625 
Q 22.859375 7.515625 30.078125 7.515625 
Q 37.359375 7.515625 41.375 12.890625 
Q 45.40625 18.265625 45.40625 27.984375 
z
M 54.390625 6.78125 
Q 54.390625 -7.171875 48.1875 -13.984375 
Q 42 -20.796875 29.203125 -20.796875 
Q 24.46875 -20.796875 20.265625 -20.09375 
Q 16.0625 -19.390625 12.109375 -17.921875 
L 12.109375 -9.1875 
Q 16.0625 -11.328125 19.921875 -12.34375 
Q 23.78125 -13.375 27.78125 -13.375 
Q 36.625 -13.375 41.015625 -8.765625 
Q 45.40625 -4.15625 45.40625 5.171875 
L 45.40625 9.625 
Q 42.625 4.78125 38.28125 2.390625 
Q 33.9375 0 27.875 0 
Q 17.828125 0 11.671875 7.65625 
Q 5.515625 15.328125 5.515625 27.984375 
Q 5.515625 40.671875 11.671875 48.328125 
Q 17.828125 56 27.875 56 
Q 33.9375 56 38.28125 53.609375 
Q 42.625 51.21875 45.40625 46.390625 
L 45.40625 54.6875 
L 54.390625 54.6875 
z
" id="DejaVuSans-67"/>
     </defs>
     <g transform="translate(339.362937 192.94125)scale(0.1 -0.1)">
      <use xlink:href="#DejaVuSans-56"/>
      <use x="68.330078" xlink:href="#DejaVuSans-2d"/>
      <use x="104.414062" xlink:href="#DejaVuSans-64"/>
      <use x="167.890625" xlink:href="#DejaVuSans-69"/>
      <use x="195.673828" xlink:href="#DejaVuSans-70"/>
      <use x="259.150391" xlink:href="#DejaVuSans-6f"/>
      <use x="320.332031" xlink:href="#DejaVuSans-6c"/>
      <use x="348.115234" xlink:href="#DejaVuSans-65"/>
      <use x="409.638672" xlink:href="#DejaVuSans-20"/>
      <use x="441.425781" xlink:href="#DejaVuSans-61"/>
      <use x="502.705078" xlink:href="#DejaVuSans-6e"/>
      <use x="566.083984" xlink:href="#DejaVuSans-67"/>
      <use x="629.560547" xlink:href="#DejaVuSans-6c"/>
      <use x="657.34375" xlink:href="#DejaVuSans-65"/>
     </g>
    </g>
    <g id="line2d_24">
     <path d="M 352.407469 204.119375 
L 372.407469 204.119375 
" style="fill:none;stroke:#e41a1c;stroke-linecap:square;"/>
    </g>
    <g id="line2d_25"/>
    <g id="text_22">
     <!-- 0$\degree$ -->
     <g transform="translate(380.407469 207.619375)scale(0.1 -0.1)">
      <use transform="translate(0 0.78125)" xlink:href="#DejaVuSans-30"/>
      <use transform="translate(63.623047 0.78125)" xlink:href="#DejaVuSans-b0"/>
     </g>
    </g>
    <g id="line2d_26">
     <path d="M 352.407469 218.7975 
L 372.407469 218.7975 
" style="fill:none;stroke:#377eb8;stroke-linecap:square;"/>
    </g>
    <g id="line2d_27"/>
    <g id="text_23">
     <!-- 30$\degree$ -->
     <g transform="translate(380.407469 222.2975)scale(0.1 -0.1)">
      <use transform="translate(0 0.78125)" xlink:href="#DejaVuSans-33"/>
      <use transform="translate(63.623047 0.78125)" xlink:href="#DejaVuSans-30"/>
      <use transform="translate(127.246094 0.78125)" xlink:href="#DejaVuSans-b0"/>
     </g>
    </g>
    <g id="line2d_28">
     <path d="M 352.407469 233.475625 
L 372.407469 233.475625 
" style="fill:none;stroke:#4daf4a;stroke-linecap:square;"/>
    </g>
    <g id="line2d_29"/>
    <g id="text_24">
     <!-- 60$\degree$ -->
     <g transform="translate(380.407469 236.975625)scale(0.1 -0.1)">
      <use transform="translate(0 0.78125)" xlink:href="#DejaVuSans-36"/>
      <use transform="translate(63.623047 0.78125)" xlink:href="#DejaVuSans-30"/>
      <use transform="translate(127.246094 0.78125)" xlink:href="#DejaVuSans-b0"/>
     </g>
    </g>
   </g>
  </g>
 </g>
 <defs>
  <clipPath id="p0bef199497">
   <path d="M 103.78 398.359062 
C 153.133766 398.359062 200.516616 378.732444 235.414998 343.834061 
C 270.313381 308.935678 289.94 261.552829 289.94 212.199062 
C 289.94 162.845296 270.313381 115.462447 235.414998 80.564064 
C 200.516616 45.665681 153.133766 26.039062 103.78 26.039062 
L 103.78 212.199062 
C 103.78 212.199062 103.78 212.199062 103.78 212.199062 
C 103.78 212.199062 103.78 212.199062 103.78 212.199062 
C 103.78 212.199062 103.78 212.199062 103.78 212.199062 
C 103.78 212.199062 103.78 212.199062 103.78 212.199062 
L 103.78 398.359062 
z
"/>
  </clipPath>
 </defs>
</svg>
