<?xml version="1.0" encoding="utf-8" standalone="no"?>
<!DOCTYPE svg PUBLIC "-//W3C//DTD SVG 1.1//EN"
  "http://www.w3.org/Graphics/SVG/1.1/DTD/svg11.dtd">
<!-- Created with matplotlib (http://matplotlib.org/) -->
<svg height="432pt" version="1.1" viewBox="0 0 432 432" width="432pt" xmlns="http://www.w3.org/2000/svg" xmlns:xlink="http://www.w3.org/1999/xlink">
 <defs>
  <style type="text/css">
*{stroke-linecap:butt;stroke-linejoin:round;}
  </style>
 </defs>
 <g id="figure_1">
  <g id="patch_1">
   <path d="M 0 432 
L 432 432 
L 432 0 
L 0 0 
z
" style="fill:#ffffff;"/>
  </g>
  <g id="axes_1">
   <g id="patch_2">
    <path d="M 384.48 296.46 
C 384.48 253.225083 367.286677 211.716729 336.714974 181.145026 
C 306.143271 150.573323 264.634917 133.38 221.4 133.38 
C 178.165083 133.38 136.656729 150.573323 106.085026 181.145026 
C 75.513323 211.716729 58.32 253.225083 58.32 296.46 
L 221.4 296.46 
C 221.4 296.46 221.4 296.46 221.4 296.46 
C 221.4 296.46 221.4 296.46 221.4 296.46 
C 221.4 296.46 221.4 296.46 221.4 296.46 
C 221.4 296.46 221.4 296.46 221.4 296.46 
L 384.48 296.46 
z
" style="fill:#ffffff;"/>
   </g>
   <g id="matplotlib.axis_1">
    <g id="xtick_1">
     <g id="line2d_1">
      <path clip-path="url(#p29bf86de1f)" d="M 221.4 296.46 
L 384.48 296.46 
" style="fill:none;stroke:#b0b0b0;stroke-linecap:square;stroke-width:0.8;"/>
     </g>
     <g id="text_1">
      <!-- 0° -->
      <defs>
       <path d="M 31.78125 66.40625 
Q 24.171875 66.40625 20.328125 58.90625 
Q 16.5 51.421875 16.5 36.375 
Q 16.5 21.390625 20.328125 13.890625 
Q 24.171875 6.390625 31.78125 6.390625 
Q 39.453125 6.390625 43.28125 13.890625 
Q 47.125 21.390625 47.125 36.375 
Q 47.125 51.421875 43.28125 58.90625 
Q 39.453125 66.40625 31.78125 66.40625 
z
M 31.78125 74.21875 
Q 44.046875 74.21875 50.515625 64.515625 
Q 56.984375 54.828125 56.984375 36.375 
Q 56.984375 17.96875 50.515625 8.265625 
Q 44.046875 -1.421875 31.78125 -1.421875 
Q 19.53125 -1.421875 13.0625 8.265625 
Q 6.59375 17.96875 6.59375 36.375 
Q 6.59375 54.828125 13.0625 64.515625 
Q 19.53125 74.21875 31.78125 74.21875 
z
" id="DejaVuSans-30"/>
       <path d="M 25 67.921875 
Q 21.09375 67.921875 18.40625 65.203125 
Q 15.71875 62.5 15.71875 58.59375 
Q 15.71875 54.734375 18.40625 52.078125 
Q 21.09375 49.421875 25 49.421875 
Q 28.90625 49.421875 31.59375 52.078125 
Q 34.28125 54.734375 34.28125 58.59375 
Q 34.28125 62.453125 31.5625 65.1875 
Q 28.859375 67.921875 25 67.921875 
z
M 25 74.21875 
Q 28.125 74.21875 31 73.015625 
Q 33.890625 71.828125 35.984375 69.578125 
Q 38.234375 67.390625 39.359375 64.59375 
Q 40.484375 61.8125 40.484375 58.59375 
Q 40.484375 52.15625 35.96875 47.6875 
Q 31.453125 43.21875 24.90625 43.21875 
Q 18.3125 43.21875 13.90625 47.609375 
Q 9.515625 52 9.515625 58.59375 
Q 9.515625 65.140625 14 69.671875 
Q 18.5 74.21875 25 74.21875 
z
" id="DejaVuSans-b0"/>
      </defs>
      <g transform="translate(392.79875 299.219375)scale(0.1 -0.1)">
       <use xlink:href="#DejaVuSans-30"/>
       <use x="63.623047" xlink:href="#DejaVuSans-b0"/>
      </g>
     </g>
    </g>
    <g id="xtick_2">
     <g id="line2d_2">
      <path clip-path="url(#p29bf86de1f)" d="M 221.4 296.46 
L 378.923184 254.25179 
" style="fill:none;stroke:#b0b0b0;stroke-linecap:square;stroke-width:0.8;"/>
     </g>
     <g id="text_2">
      <!-- 15° -->
      <defs>
       <path d="M 12.40625 8.296875 
L 28.515625 8.296875 
L 28.515625 63.921875 
L 10.984375 60.40625 
L 10.984375 69.390625 
L 28.421875 72.90625 
L 38.28125 72.90625 
L 38.28125 8.296875 
L 54.390625 8.296875 
L 54.390625 0 
L 12.40625 0 
z
" id="DejaVuSans-31"/>
       <path d="M 10.796875 72.90625 
L 49.515625 72.90625 
L 49.515625 64.59375 
L 19.828125 64.59375 
L 19.828125 46.734375 
Q 21.96875 47.46875 24.109375 47.828125 
Q 26.265625 48.1875 28.421875 48.1875 
Q 40.625 48.1875 47.75 41.5 
Q 54.890625 34.8125 54.890625 23.390625 
Q 54.890625 11.625 47.5625 5.09375 
Q 40.234375 -1.421875 26.90625 -1.421875 
Q 22.3125 -1.421875 17.546875 -0.640625 
Q 12.796875 0.140625 7.71875 1.703125 
L 7.71875 11.625 
Q 12.109375 9.234375 16.796875 8.0625 
Q 21.484375 6.890625 26.703125 6.890625 
Q 35.15625 6.890625 40.078125 11.328125 
Q 45.015625 15.765625 45.015625 23.390625 
Q 45.015625 31 40.078125 35.4375 
Q 35.15625 39.890625 26.703125 39.890625 
Q 22.75 39.890625 18.8125 39.015625 
Q 14.890625 38.140625 10.796875 36.28125 
z
" id="DejaVuSans-35"/>
      </defs>
      <g transform="translate(383.583645 253.387698)scale(0.1 -0.1)">
       <use xlink:href="#DejaVuSans-31"/>
       <use x="63.623047" xlink:href="#DejaVuSans-35"/>
       <use x="127.246094" xlink:href="#DejaVuSans-b0"/>
      </g>
     </g>
    </g>
    <g id="xtick_3">
     <g id="line2d_3">
      <path clip-path="url(#p29bf86de1f)" d="M 221.4 296.46 
L 362.631423 214.92 
" style="fill:none;stroke:#b0b0b0;stroke-linecap:square;stroke-width:0.8;"/>
     </g>
     <g id="text_3">
      <!-- 30° -->
      <defs>
       <path d="M 40.578125 39.3125 
Q 47.65625 37.796875 51.625 33 
Q 55.609375 28.21875 55.609375 21.1875 
Q 55.609375 10.40625 48.1875 4.484375 
Q 40.765625 -1.421875 27.09375 -1.421875 
Q 22.515625 -1.421875 17.65625 -0.515625 
Q 12.796875 0.390625 7.625 2.203125 
L 7.625 11.71875 
Q 11.71875 9.328125 16.59375 8.109375 
Q 21.484375 6.890625 26.8125 6.890625 
Q 36.078125 6.890625 40.9375 10.546875 
Q 45.796875 14.203125 45.796875 21.1875 
Q 45.796875 27.640625 41.28125 31.265625 
Q 36.765625 34.90625 28.71875 34.90625 
L 20.21875 34.90625 
L 20.21875 43.015625 
L 29.109375 43.015625 
Q 36.375 43.015625 40.234375 45.921875 
Q 44.09375 48.828125 44.09375 54.296875 
Q 44.09375 59.90625 40.109375 62.90625 
Q 36.140625 65.921875 28.71875 65.921875 
Q 24.65625 65.921875 20.015625 65.03125 
Q 15.375 64.15625 9.8125 62.3125 
L 9.8125 71.09375 
Q 15.4375 72.65625 20.34375 73.4375 
Q 25.25 74.21875 29.59375 74.21875 
Q 40.828125 74.21875 47.359375 69.109375 
Q 53.90625 64.015625 53.90625 55.328125 
Q 53.90625 49.265625 50.4375 45.09375 
Q 46.96875 40.921875 40.578125 39.3125 
z
" id="DejaVuSans-33"/>
      </defs>
      <g transform="translate(365.893279 210.679375)scale(0.1 -0.1)">
       <use xlink:href="#DejaVuSans-33"/>
       <use x="63.623047" xlink:href="#DejaVuSans-30"/>
       <use x="127.246094" xlink:href="#DejaVuSans-b0"/>
      </g>
     </g>
    </g>
    <g id="xtick_4">
     <g id="line2d_4">
      <path clip-path="url(#p29bf86de1f)" d="M 221.4 296.46 
L 336.714974 181.145026 
" style="fill:none;stroke:#b0b0b0;stroke-linecap:square;stroke-width:0.8;"/>
     </g>
     <g id="text_4">
      <!-- 45° -->
      <defs>
       <path d="M 37.796875 64.3125 
L 12.890625 25.390625 
L 37.796875 25.390625 
z
M 35.203125 72.90625 
L 47.609375 72.90625 
L 47.609375 25.390625 
L 58.015625 25.390625 
L 58.015625 17.1875 
L 47.609375 17.1875 
L 47.609375 0 
L 37.796875 0 
L 37.796875 17.1875 
L 4.890625 17.1875 
L 4.890625 26.703125 
z
" id="DejaVuSans-34"/>
      </defs>
      <g transform="translate(337.751969 174.004906)scale(0.1 -0.1)">
       <use xlink:href="#DejaVuSans-34"/>
       <use x="63.623047" xlink:href="#DejaVuSans-35"/>
       <use x="127.246094" xlink:href="#DejaVuSans-b0"/>
      </g>
     </g>
    </g>
    <g id="xtick_5">
     <g id="line2d_5">
      <path clip-path="url(#p29bf86de1f)" d="M 221.4 296.46 
L 302.94 155.228577 
" style="fill:none;stroke:#b0b0b0;stroke-linecap:square;stroke-width:0.8;"/>
     </g>
     <g id="text_5">
      <!-- 60° -->
      <defs>
       <path d="M 33.015625 40.375 
Q 26.375 40.375 22.484375 35.828125 
Q 18.609375 31.296875 18.609375 23.390625 
Q 18.609375 15.53125 22.484375 10.953125 
Q 26.375 6.390625 33.015625 6.390625 
Q 39.65625 6.390625 43.53125 10.953125 
Q 47.40625 15.53125 47.40625 23.390625 
Q 47.40625 31.296875 43.53125 35.828125 
Q 39.65625 40.375 33.015625 40.375 
z
M 52.59375 71.296875 
L 52.59375 62.3125 
Q 48.875 64.0625 45.09375 64.984375 
Q 41.3125 65.921875 37.59375 65.921875 
Q 27.828125 65.921875 22.671875 59.328125 
Q 17.53125 52.734375 16.796875 39.40625 
Q 19.671875 43.65625 24.015625 45.921875 
Q 28.375 48.1875 33.59375 48.1875 
Q 44.578125 48.1875 50.953125 41.515625 
Q 57.328125 34.859375 57.328125 23.390625 
Q 57.328125 12.15625 50.6875 5.359375 
Q 44.046875 -1.421875 33.015625 -1.421875 
Q 20.359375 -1.421875 13.671875 8.265625 
Q 6.984375 17.96875 6.984375 36.375 
Q 6.984375 53.65625 15.1875 63.9375 
Q 23.390625 74.21875 37.203125 74.21875 
Q 40.921875 74.21875 44.703125 73.484375 
Q 48.484375 72.75 52.59375 71.296875 
z
" id="DejaVuSans-36"/>
      </defs>
      <g transform="translate(301.0775 145.863596)scale(0.1 -0.1)">
       <use xlink:href="#DejaVuSans-36"/>
       <use x="63.623047" xlink:href="#DejaVuSans-30"/>
       <use x="127.246094" xlink:href="#DejaVuSans-b0"/>
      </g>
     </g>
    </g>
    <g id="xtick_6">
     <g id="line2d_6">
      <path clip-path="url(#p29bf86de1f)" d="M 221.4 296.46 
L 263.60821 138.936816 
" style="fill:none;stroke:#b0b0b0;stroke-linecap:square;stroke-width:0.8;"/>
     </g>
     <g id="text_6">
      <!-- 75° -->
      <defs>
       <path d="M 8.203125 72.90625 
L 55.078125 72.90625 
L 55.078125 68.703125 
L 28.609375 0 
L 18.3125 0 
L 43.21875 64.59375 
L 8.203125 64.59375 
z
" id="DejaVuSans-37"/>
      </defs>
      <g transform="translate(258.369177 128.17323)scale(0.1 -0.1)">
       <use xlink:href="#DejaVuSans-37"/>
       <use x="63.623047" xlink:href="#DejaVuSans-35"/>
       <use x="127.246094" xlink:href="#DejaVuSans-b0"/>
      </g>
     </g>
    </g>
    <g id="xtick_7">
     <g id="line2d_7">
      <path clip-path="url(#p29bf86de1f)" d="M 221.4 296.46 
L 221.4 133.38 
" style="fill:none;stroke:#b0b0b0;stroke-linecap:square;stroke-width:0.8;"/>
     </g>
     <g id="text_7">
      <!-- 90° -->
      <defs>
       <path d="M 10.984375 1.515625 
L 10.984375 10.5 
Q 14.703125 8.734375 18.5 7.8125 
Q 22.3125 6.890625 25.984375 6.890625 
Q 35.75 6.890625 40.890625 13.453125 
Q 46.046875 20.015625 46.78125 33.40625 
Q 43.953125 29.203125 39.59375 26.953125 
Q 35.25 24.703125 29.984375 24.703125 
Q 19.046875 24.703125 12.671875 31.3125 
Q 6.296875 37.9375 6.296875 49.421875 
Q 6.296875 60.640625 12.9375 67.421875 
Q 19.578125 74.21875 30.609375 74.21875 
Q 43.265625 74.21875 49.921875 64.515625 
Q 56.59375 54.828125 56.59375 36.375 
Q 56.59375 19.140625 48.40625 8.859375 
Q 40.234375 -1.421875 26.421875 -1.421875 
Q 22.703125 -1.421875 18.890625 -0.6875 
Q 15.09375 0.046875 10.984375 1.515625 
z
M 30.609375 32.421875 
Q 37.25 32.421875 41.125 36.953125 
Q 45.015625 41.5 45.015625 49.421875 
Q 45.015625 57.28125 41.125 61.84375 
Q 37.25 66.40625 30.609375 66.40625 
Q 23.96875 66.40625 20.09375 61.84375 
Q 16.21875 57.28125 16.21875 49.421875 
Q 16.21875 41.5 20.09375 36.953125 
Q 23.96875 32.421875 30.609375 32.421875 
z
" id="DejaVuSans-39"/>
      </defs>
      <g transform="translate(212.5375 122.139375)scale(0.1 -0.1)">
       <use xlink:href="#DejaVuSans-39"/>
       <use x="63.623047" xlink:href="#DejaVuSans-30"/>
       <use x="127.246094" xlink:href="#DejaVuSans-b0"/>
      </g>
     </g>
    </g>
    <g id="xtick_8">
     <g id="line2d_8">
      <path clip-path="url(#p29bf86de1f)" d="M 221.4 296.46 
L 179.19179 138.936816 
" style="fill:none;stroke:#b0b0b0;stroke-linecap:square;stroke-width:0.8;"/>
     </g>
     <g id="text_8">
      <!-- 105° -->
      <g transform="translate(163.524573 128.17323)scale(0.1 -0.1)">
       <use xlink:href="#DejaVuSans-31"/>
       <use x="63.623047" xlink:href="#DejaVuSans-30"/>
       <use x="127.246094" xlink:href="#DejaVuSans-35"/>
       <use x="190.869141" xlink:href="#DejaVuSans-b0"/>
      </g>
     </g>
    </g>
    <g id="xtick_9">
     <g id="line2d_9">
      <path clip-path="url(#p29bf86de1f)" d="M 221.4 296.46 
L 139.86 155.228577 
" style="fill:none;stroke:#b0b0b0;stroke-linecap:square;stroke-width:0.8;"/>
     </g>
     <g id="text_9">
      <!-- 120° -->
      <defs>
       <path d="M 19.1875 8.296875 
L 53.609375 8.296875 
L 53.609375 0 
L 7.328125 0 
L 7.328125 8.296875 
Q 12.9375 14.109375 22.625 23.890625 
Q 32.328125 33.6875 34.8125 36.53125 
Q 39.546875 41.84375 41.421875 45.53125 
Q 43.3125 49.21875 43.3125 52.78125 
Q 43.3125 58.59375 39.234375 62.25 
Q 35.15625 65.921875 28.609375 65.921875 
Q 23.96875 65.921875 18.8125 64.3125 
Q 13.671875 62.703125 7.8125 59.421875 
L 7.8125 69.390625 
Q 13.765625 71.78125 18.9375 73 
Q 24.125 74.21875 28.421875 74.21875 
Q 39.75 74.21875 46.484375 68.546875 
Q 53.21875 62.890625 53.21875 53.421875 
Q 53.21875 48.921875 51.53125 44.890625 
Q 49.859375 40.875 45.40625 35.40625 
Q 44.1875 33.984375 37.640625 27.21875 
Q 31.109375 20.453125 19.1875 8.296875 
z
" id="DejaVuSans-32"/>
      </defs>
      <g transform="translate(120.81625 145.863596)scale(0.1 -0.1)">
       <use xlink:href="#DejaVuSans-31"/>
       <use x="63.623047" xlink:href="#DejaVuSans-32"/>
       <use x="127.246094" xlink:href="#DejaVuSans-30"/>
       <use x="190.869141" xlink:href="#DejaVuSans-b0"/>
      </g>
     </g>
    </g>
    <g id="xtick_10">
     <g id="line2d_10">
      <path clip-path="url(#p29bf86de1f)" d="M 221.4 296.46 
L 106.085026 181.145026 
" style="fill:none;stroke:#b0b0b0;stroke-linecap:square;stroke-width:0.8;"/>
     </g>
     <g id="text_10">
      <!-- 135° -->
      <g transform="translate(84.141781 174.004906)scale(0.1 -0.1)">
       <use xlink:href="#DejaVuSans-31"/>
       <use x="63.623047" xlink:href="#DejaVuSans-33"/>
       <use x="127.246094" xlink:href="#DejaVuSans-35"/>
       <use x="190.869141" xlink:href="#DejaVuSans-b0"/>
      </g>
     </g>
    </g>
    <g id="xtick_11">
     <g id="line2d_11">
      <path clip-path="url(#p29bf86de1f)" d="M 221.4 296.46 
L 80.168577 214.92 
" style="fill:none;stroke:#b0b0b0;stroke-linecap:square;stroke-width:0.8;"/>
     </g>
     <g id="text_11">
      <!-- 150° -->
      <g transform="translate(56.000471 210.679375)scale(0.1 -0.1)">
       <use xlink:href="#DejaVuSans-31"/>
       <use x="63.623047" xlink:href="#DejaVuSans-35"/>
       <use x="127.246094" xlink:href="#DejaVuSans-30"/>
       <use x="190.869141" xlink:href="#DejaVuSans-b0"/>
      </g>
     </g>
    </g>
    <g id="xtick_12">
     <g id="line2d_12">
      <path clip-path="url(#p29bf86de1f)" d="M 221.4 296.46 
L 63.876816 254.25179 
" style="fill:none;stroke:#b0b0b0;stroke-linecap:square;stroke-width:0.8;"/>
     </g>
     <g id="text_12">
      <!-- 165° -->
      <g transform="translate(38.310105 253.387698)scale(0.1 -0.1)">
       <use xlink:href="#DejaVuSans-31"/>
       <use x="63.623047" xlink:href="#DejaVuSans-36"/>
       <use x="127.246094" xlink:href="#DejaVuSans-35"/>
       <use x="190.869141" xlink:href="#DejaVuSans-b0"/>
      </g>
     </g>
    </g>
    <g id="xtick_13">
     <g id="line2d_13">
      <path clip-path="url(#p29bf86de1f)" d="M 221.4 296.46 
L 58.32 296.46 
" style="fill:none;stroke:#b0b0b0;stroke-linecap:square;stroke-width:0.8;"/>
     </g>
     <g id="text_13">
      <!-- 180° -->
      <defs>
       <path d="M 31.78125 34.625 
Q 24.75 34.625 20.71875 30.859375 
Q 16.703125 27.09375 16.703125 20.515625 
Q 16.703125 13.921875 20.71875 10.15625 
Q 24.75 6.390625 31.78125 6.390625 
Q 38.8125 6.390625 42.859375 10.171875 
Q 46.921875 13.96875 46.921875 20.515625 
Q 46.921875 27.09375 42.890625 30.859375 
Q 38.875 34.625 31.78125 34.625 
z
M 21.921875 38.8125 
Q 15.578125 40.375 12.03125 44.71875 
Q 8.5 49.078125 8.5 55.328125 
Q 8.5 64.0625 14.71875 69.140625 
Q 20.953125 74.21875 31.78125 74.21875 
Q 42.671875 74.21875 48.875 69.140625 
Q 55.078125 64.0625 55.078125 55.328125 
Q 55.078125 49.078125 51.53125 44.71875 
Q 48 40.375 41.703125 38.8125 
Q 48.828125 37.15625 52.796875 32.3125 
Q 56.78125 27.484375 56.78125 20.515625 
Q 56.78125 9.90625 50.3125 4.234375 
Q 43.84375 -1.421875 31.78125 -1.421875 
Q 19.734375 -1.421875 13.25 4.234375 
Q 6.78125 9.90625 6.78125 20.515625 
Q 6.78125 27.484375 10.78125 32.3125 
Q 14.796875 37.15625 21.921875 38.8125 
z
M 18.3125 54.390625 
Q 18.3125 48.734375 21.84375 45.5625 
Q 25.390625 42.390625 31.78125 42.390625 
Q 38.140625 42.390625 41.71875 45.5625 
Q 45.3125 48.734375 45.3125 54.390625 
Q 45.3125 60.0625 41.71875 63.234375 
Q 38.140625 66.40625 31.78125 66.40625 
Q 25.390625 66.40625 21.84375 63.234375 
Q 18.3125 60.0625 18.3125 54.390625 
z
" id="DejaVuSans-38"/>
      </defs>
      <g transform="translate(32.27625 299.219375)scale(0.1 -0.1)">
       <use xlink:href="#DejaVuSans-31"/>
       <use x="63.623047" xlink:href="#DejaVuSans-38"/>
       <use x="127.246094" xlink:href="#DejaVuSans-30"/>
       <use x="190.869141" xlink:href="#DejaVuSans-b0"/>
      </g>
     </g>
    </g>
   </g>
   <g id="matplotlib.axis_2">
    <g id="ytick_1">
     <g id="line2d_14">
      <path clip-path="url(#p29bf86de1f)" d="M 221.4 296.46 
L 221.4 296.46 
" style="fill:none;stroke:#b0b0b0;stroke-linecap:square;stroke-width:0.8;"/>
     </g>
     <g id="text_14">
      <!-- −20 -->
      <defs>
       <path d="M 10.59375 35.5 
L 73.1875 35.5 
L 73.1875 27.203125 
L 10.59375 27.203125 
z
" id="DejaVuSans-2212"/>
      </defs>
      <g transform="translate(210.847656 311.058437)scale(0.1 -0.1)">
       <use xlink:href="#DejaVuSans-2212"/>
       <use x="83.789062" xlink:href="#DejaVuSans-32"/>
       <use x="147.412109" xlink:href="#DejaVuSans-30"/>
      </g>
     </g>
    </g>
    <g id="ytick_2">
     <g id="line2d_15">
      <path clip-path="url(#p29bf86de1f)" d="M 248.58 296.46 
L 248.476572 294.091107 
L 248.167075 291.740243 
L 247.653864 289.425298 
L 246.940845 287.163893 
L 246.033446 284.973236 
L 244.93857 282.87 
L 243.664553 280.870192 
L 242.221088 278.989033 
L 240.619162 277.240838 
L 238.870967 275.638912 
L 236.989808 274.195447 
L 234.99 272.92143 
L 232.886764 271.826554 
L 230.696107 270.919155 
L 228.434702 270.206136 
L 226.119757 269.692925 
L 223.768893 269.383428 
L 221.4 269.28 
L 219.031107 269.383428 
L 216.680243 269.692925 
L 214.365298 270.206136 
L 212.103893 270.919155 
L 209.913236 271.826554 
L 207.81 272.92143 
L 205.810192 274.195447 
L 203.929033 275.638912 
L 202.180838 277.240838 
L 200.578912 278.989033 
L 199.135447 280.870192 
L 197.86143 282.87 
L 196.766554 284.973236 
L 195.859155 287.163893 
L 195.146136 289.425298 
L 194.632925 291.740243 
L 194.323428 294.091107 
L 194.22 296.46 
L 194.22 296.46 
" style="fill:none;stroke:#b0b0b0;stroke-linecap:square;stroke-width:0.8;"/>
     </g>
     <g id="text_15">
      <!-- −15 -->
      <g transform="translate(238.027656 311.058437)scale(0.1 -0.1)">
       <use xlink:href="#DejaVuSans-2212"/>
       <use x="83.789062" xlink:href="#DejaVuSans-31"/>
       <use x="147.412109" xlink:href="#DejaVuSans-35"/>
      </g>
     </g>
    </g>
    <g id="ytick_3">
     <g id="line2d_16">
      <path clip-path="url(#p29bf86de1f)" d="M 275.76 296.46 
L 275.627582 292.668038 
L 275.230972 288.89455 
L 274.572104 285.15792 
L 273.654186 281.476353 
L 272.481691 277.867785 
L 271.060331 274.349796 
L 269.397031 270.939526 
L 267.499895 267.653589 
L 265.378164 264.507994 
L 263.042176 261.518066 
L 260.503312 258.698371 
L 257.77394 256.062647 
L 254.867358 253.623735 
L 251.797726 251.393518 
L 248.58 249.382859 
L 245.229856 247.601556 
L 241.763614 246.058286 
L 238.198164 244.760568 
L 234.550874 243.714724 
L 230.839515 242.925851 
L 227.082167 242.39779 
L 223.297137 242.133115 
L 219.502863 242.133115 
L 215.717833 242.39779 
L 211.960485 242.925851 
L 208.249126 243.714724 
L 204.601836 244.760568 
L 201.036386 246.058286 
L 197.570144 247.601556 
L 194.22 249.382859 
L 191.002274 251.393518 
L 187.932642 253.623735 
L 185.02606 256.062647 
L 182.296688 258.698371 
L 179.757824 261.518066 
L 177.421836 264.507994 
L 175.300105 267.653589 
L 173.402969 270.939526 
L 171.739669 274.349796 
L 170.318309 277.867785 
L 169.145814 281.476353 
L 168.227896 285.15792 
L 167.569028 288.89455 
L 167.172418 292.668038 
L 167.04 296.46 
L 167.04 296.46 
" style="fill:none;stroke:#b0b0b0;stroke-linecap:square;stroke-width:0.8;"/>
     </g>
     <g id="text_16">
      <!-- −10 -->
      <g transform="translate(265.207656 311.058437)scale(0.1 -0.1)">
       <use xlink:href="#DejaVuSans-2212"/>
       <use x="83.789062" xlink:href="#DejaVuSans-31"/>
       <use x="147.412109" xlink:href="#DejaVuSans-30"/>
      </g>
     </g>
    </g>
    <g id="ytick_4">
     <g id="line2d_17">
      <path clip-path="url(#p29bf86de1f)" d="M 302.94 296.46 
L 302.828252 292.192526 
L 302.493315 287.936749 
L 301.936107 283.704334 
L 301.158155 279.506881 
L 300.161592 275.355895 
L 298.949148 271.262754 
L 297.524148 267.238677 
L 295.890497 263.294694 
L 294.052672 259.441615 
L 292.015711 255.69 
L 289.785198 252.050133 
L 287.367246 248.531991 
L 284.768482 245.145215 
L 281.996029 241.89909 
L 279.057487 238.802513 
L 275.96091 235.863971 
L 272.714785 233.091518 
L 269.328009 230.492754 
L 265.809867 228.074802 
L 262.17 225.844289 
L 258.418385 223.807328 
L 254.565306 221.969503 
L 250.621323 220.335852 
L 246.597246 218.910852 
L 242.504105 217.698408 
L 238.353119 216.701845 
L 234.155666 215.923893 
L 229.923251 215.366685 
L 225.667474 215.031748 
L 221.4 214.92 
L 217.132526 215.031748 
L 212.876749 215.366685 
L 208.644334 215.923893 
L 204.446881 216.701845 
L 200.295895 217.698408 
L 196.202754 218.910852 
L 192.178677 220.335852 
L 188.234694 221.969503 
L 184.381615 223.807328 
L 180.63 225.844289 
L 176.990133 228.074802 
L 173.471991 230.492754 
L 170.085215 233.091518 
L 166.83909 235.863971 
L 163.742513 238.802513 
L 160.803971 241.89909 
L 158.031518 245.145215 
L 155.432754 248.531991 
L 153.014802 252.050133 
L 150.784289 255.69 
L 148.747328 259.441615 
L 146.909503 263.294694 
L 145.275852 267.238677 
L 143.850852 271.262754 
L 142.638408 275.355895 
L 141.641845 279.506881 
L 140.863893 283.704334 
L 140.306685 287.936749 
L 139.971748 292.192526 
L 139.86 296.46 
L 139.86 296.46 
" style="fill:none;stroke:#b0b0b0;stroke-linecap:square;stroke-width:0.8;"/>
     </g>
     <g id="text_17">
      <!-- −5 -->
      <g transform="translate(295.568906 311.058437)scale(0.1 -0.1)">
       <use xlink:href="#DejaVuSans-2212"/>
       <use x="83.789062" xlink:href="#DejaVuSans-35"/>
      </g>
     </g>
    </g>
    <g id="ytick_5">
     <g id="line2d_18">
      <path clip-path="url(#p29bf86de1f)" d="M 330.12 296.46 
L 329.971003 290.770035 
L 329.52442 285.095665 
L 328.781476 279.452445 
L 327.744207 273.855841 
L 326.415456 268.321193 
L 324.798864 262.863672 
L 322.898864 257.498237 
L 320.720662 252.239592 
L 318.270229 247.102153 
L 315.554282 242.1 
L 312.580264 237.246844 
L 309.356328 232.555987 
L 305.891309 228.040287 
L 302.194705 223.71212 
L 298.276649 219.583351 
L 294.14788 215.665295 
L 289.819713 211.968691 
L 285.304013 208.503672 
L 280.613156 205.279736 
L 275.76 202.305718 
L 270.757847 199.589771 
L 265.620408 197.139338 
L 260.361763 194.961136 
L 254.996328 193.061136 
L 249.538807 191.444544 
L 244.004159 190.115793 
L 238.407555 189.078524 
L 232.764335 188.33558 
L 227.089965 187.888997 
L 221.4 187.74 
L 215.710035 187.888997 
L 210.035665 188.33558 
L 204.392445 189.078524 
L 198.795841 190.115793 
L 193.261193 191.444544 
L 187.803672 193.061136 
L 182.438237 194.961136 
L 177.179592 197.139338 
L 172.042153 199.589771 
L 167.04 202.305718 
L 162.186844 205.279736 
L 157.495987 208.503672 
L 152.980287 211.968691 
L 148.65212 215.665295 
L 144.523351 219.583351 
L 140.605295 223.71212 
L 136.908691 228.040287 
L 133.443672 232.555987 
L 130.219736 237.246844 
L 127.245718 242.1 
L 124.529771 247.102153 
L 122.079338 252.239592 
L 119.901136 257.498237 
L 118.001136 262.863672 
L 116.384544 268.321193 
L 115.055793 273.855841 
L 114.018524 279.452445 
L 113.27558 285.095665 
L 112.828997 290.770035 
L 112.68 296.46 
L 112.68 296.46 
" style="fill:none;stroke:#b0b0b0;stroke-linecap:square;stroke-width:0.8;"/>
     </g>
     <g id="text_18">
      <!-- 0 -->
      <g transform="translate(326.93875 311.058437)scale(0.1 -0.1)">
       <use xlink:href="#DejaVuSans-30"/>
      </g>
     </g>
    </g>
    <g id="ytick_6">
     <g id="line2d_19">
      <path clip-path="url(#p29bf86de1f)" d="M 357.3 296.46 
L 357.217213 291.717158 
L 356.968954 286.980095 
L 356.555526 282.254582 
L 355.977431 277.546376 
L 355.235374 272.861213 
L 354.330259 268.204801 
L 353.263189 263.582814 
L 352.035464 259.000883 
L 350.648581 254.46459 
L 349.104227 249.979463 
L 347.404286 245.550964 
L 345.550828 241.18449 
L 343.546111 236.885361 
L 341.392578 232.658815 
L 339.092852 228.51 
L 336.649736 224.443972 
L 334.066206 220.465684 
L 331.34541 216.579984 
L 328.490661 212.791606 
L 325.50544 209.105164 
L 322.393382 205.525151 
L 319.158279 202.055927 
L 315.804073 198.701721 
L 312.334849 195.466618 
L 308.754836 192.35456 
L 305.068394 189.369339 
L 301.280016 186.51459 
L 297.394316 183.793794 
L 293.416028 181.210264 
L 289.35 178.767148 
L 285.201185 176.467422 
L 280.974639 174.313889 
L 276.67551 172.309172 
L 272.309036 170.455714 
L 267.880537 168.755773 
L 263.39541 167.211419 
L 258.859117 165.824536 
L 254.277186 164.596811 
L 249.655199 163.529741 
L 244.998787 162.624626 
L 240.313624 161.882569 
L 235.605418 161.304474 
L 230.879905 160.891046 
L 226.142842 160.642787 
L 221.4 160.56 
L 216.657158 160.642787 
L 211.920095 160.891046 
L 207.194582 161.304474 
L 202.486376 161.882569 
L 197.801213 162.624626 
L 193.144801 163.529741 
L 188.522814 164.596811 
L 183.940883 165.824536 
L 179.40459 167.211419 
L 174.919463 168.755773 
L 170.490964 170.455714 
L 166.12449 172.309172 
L 161.825361 174.313889 
L 157.598815 176.467422 
L 153.45 178.767148 
L 149.383972 181.210264 
L 145.405684 183.793794 
L 141.519984 186.51459 
L 137.731606 189.369339 
L 134.045164 192.35456 
L 130.465151 195.466618 
L 126.995927 198.701721 
L 123.641721 202.055927 
L 120.406618 205.525151 
L 117.29456 209.105164 
L 114.309339 212.791606 
L 111.45459 216.579984 
L 108.733794 220.465684 
L 106.150264 224.443972 
L 103.707148 228.51 
L 101.407422 232.658815 
L 99.253889 236.885361 
L 97.249172 241.18449 
L 95.395714 245.550964 
L 93.695773 249.979463 
L 92.151419 254.46459 
L 90.764536 259.000883 
L 89.536811 263.582814 
L 88.469741 268.204801 
L 87.564626 272.861213 
L 86.822569 277.546376 
L 86.244474 282.254582 
L 85.831046 286.980095 
L 85.582787 291.717158 
L 85.5 296.46 
L 85.5 296.46 
" style="fill:none;stroke:#b0b0b0;stroke-linecap:square;stroke-width:0.8;"/>
     </g>
     <g id="text_19">
      <!-- 5 -->
      <g transform="translate(354.11875 311.058437)scale(0.1 -0.1)">
       <use xlink:href="#DejaVuSans-35"/>
      </g>
     </g>
    </g>
    <g id="ytick_7">
     <g id="line2d_20">
      <path clip-path="url(#p29bf86de1f)" d="M 384.48 296.46 
L 384.380656 290.76859 
L 384.082745 285.084114 
L 383.586631 279.413498 
L 382.892917 273.763651 
L 382.002448 268.141455 
L 380.916311 262.553761 
L 379.635827 257.007377 
L 378.162557 251.50906 
L 376.498297 246.065509 
L 374.645073 240.683355 
L 372.605143 235.369157 
L 370.380993 230.129388 
L 367.975333 224.970433 
L 365.391093 219.898578 
L 362.631423 214.92 
L 359.699684 210.040766 
L 356.599447 205.266821 
L 353.334491 200.603981 
L 349.908794 196.057927 
L 346.326528 191.634197 
L 342.592058 187.338181 
L 338.709935 183.175113 
L 334.684887 179.150065 
L 330.521819 175.267942 
L 326.225803 171.533472 
L 321.802073 167.951206 
L 317.256019 164.525509 
L 312.593179 161.260553 
L 307.819234 158.160316 
L 302.94 155.228577 
L 297.961422 152.468907 
L 292.889567 149.884667 
L 287.730612 147.479007 
L 282.490843 145.254857 
L 277.176645 143.214927 
L 271.794491 141.361703 
L 266.35094 139.697443 
L 260.852623 138.224173 
L 255.306239 136.943689 
L 249.718545 135.857552 
L 244.096349 134.967083 
L 238.446502 134.273369 
L 232.775886 133.777255 
L 227.09141 133.479344 
L 221.4 133.38 
L 215.70859 133.479344 
L 210.024114 133.777255 
L 204.353498 134.273369 
L 198.703651 134.967083 
L 193.081455 135.857552 
L 187.493761 136.943689 
L 181.947377 138.224173 
L 176.44906 139.697443 
L 171.005509 141.361703 
L 165.623355 143.214927 
L 160.309157 145.254857 
L 155.069388 147.479007 
L 149.910433 149.884667 
L 144.838578 152.468907 
L 139.86 155.228577 
L 134.980766 158.160316 
L 130.206821 161.260553 
L 125.543981 164.525509 
L 120.997927 167.951206 
L 116.574197 171.533472 
L 112.278181 175.267942 
L 108.115113 179.150065 
L 104.090065 183.175113 
L 100.207942 187.338181 
L 96.473472 191.634197 
L 92.891206 196.057927 
L 89.465509 200.603981 
L 86.200553 205.266821 
L 83.100316 210.040766 
L 80.168577 214.92 
L 77.408907 219.898578 
L 74.824667 224.970433 
L 72.419007 230.129388 
L 70.194857 235.369157 
L 68.154927 240.683355 
L 66.301703 246.065509 
L 64.637443 251.50906 
L 63.164173 257.007377 
L 61.883689 262.553761 
L 60.797552 268.141455 
L 59.907083 273.763651 
L 59.213369 279.413498 
L 58.717255 285.084114 
L 58.419344 290.76859 
L 58.32 296.46 
L 58.32 296.46 
" style="fill:none;stroke:#b0b0b0;stroke-linecap:square;stroke-width:0.8;"/>
     </g>
     <g id="text_20">
      <!-- 10 -->
      <g transform="translate(378.1175 311.058437)scale(0.1 -0.1)">
       <use xlink:href="#DejaVuSans-31"/>
       <use x="63.623047" xlink:href="#DejaVuSans-30"/>
      </g>
     </g>
    </g>
   </g>
   <g id="line2d_21">
    <path clip-path="url(#p29bf86de1f)" d="M 280.688569 295.425114 
L 312.589645 293.275587 
L 330.493352 290.74266 
L 342.410418 287.998127 
L 350.842721 285.135229 
L 356.895793 282.218818 
L 361.149532 279.300915 
L 363.938747 276.427486 
L 365.465899 273.642203 
L 365.85269 270.989093 
L 365.165054 268.514904 
L 363.424503 266.27176 
L 360.610745 264.320667 
L 356.656611 262.736739 
L 351.433267 261.617691 
L 344.719182 261.098794 
L 336.136658 261.381483 
L 325.014969 262.793456 
L 310.072529 265.9276 
L 288.743622 271.948926 
L 260.663302 281.388231 
L 269.21795 277.140294 
L 294.308819 265.512043 
L 310.740496 256.683048 
L 321.693027 249.692593 
L 329.296991 243.835121 
L 334.635246 238.76376 
L 338.309936 234.297884 
L 340.686213 230.338573 
L 342.00064 226.831188 
L 342.413976 223.747467 
L 342.038973 221.076403 
L 340.955899 218.819491 
L 339.221501 216.988394 
L 336.87417 215.604116 
L 333.936683 214.697314 
L 330.417177 214.309664 
L 326.308653 214.496377 
L 321.587025 215.330147 
L 316.207732 216.906867 
L 310.101345 219.353097 
L 303.171089 222.83298 
L 295.305551 227.541958 
L 286.46259 233.629787 
L 277.042076 240.817924 
L 269.069354 247.096939 
L 266.827711 247.744744 
L 270.961039 241.41689 
L 276.999503 232.500089 
L 282.301066 223.880936 
L 286.350268 216.253099 
L 289.254057 209.610767 
L 291.212752 203.815349 
L 292.404407 198.730818 
L 292.970113 194.247286 
L 293.019542 190.279662 
L 292.638609 186.762163 
L 291.895708 183.643284 
L 290.846297 180.881952 
L 289.536155 178.444718 
L 288.003703 176.303738 
L 286.28168 174.435308 
L 284.398344 172.818788 
L 282.378369 171.435815 
L 280.243505 170.269697 
L 278.013069 169.304966 
L 275.704327 168.527022 
L 273.332774 167.921873 
L 270.912351 167.475917 
L 268.455605 167.175789 
L 265.973816 167.008239 
L 260.974401 167.017966 
L 255.981816 167.398904 
L 251.047112 168.044248 
L 243.825893 169.27644 
L 234.597816 170.891166 
L 230.138429 171.494648 
L 225.750497 171.878057 
L 221.4 172.00474 
L 217.04895 171.862243 
L 212.659365 171.463098 
L 208.19723 170.844031 
L 201.313118 169.636418 
L 191.729939 167.944846 
L 186.787802 167.285517 
L 181.786825 166.891143 
L 176.7781 166.868594 
L 174.291326 167.029983 
L 171.829382 167.324125 
L 169.403554 167.76428 
L 167.026397 168.363819 
L 164.711859 169.13635 
L 162.47544 170.095874 
L 160.334414 171.256994 
L 158.308106 172.635187 
L 156.418274 174.247148 
L 154.689598 176.111249 
L 153.150346 178.248132 
L 151.833264 180.681508 
L 150.776782 183.439226 
L 150.026688 186.554737 
L 149.638447 190.069122 
L 149.680463 194.033887 
L 150.23866 198.514819 
L 151.422719 203.597012 
L 153.37374 209.390358 
L 156.269788 216.030886 
L 160.311189 223.657189 
L 165.604901 232.27508 
L 171.635473 241.190894 
L 175.760879 247.518035 
L 173.511295 246.869794 
L 165.530619 240.590619 
L 156.10215 233.402599 
L 147.251242 227.315164 
L 139.377775 222.606857 
L 132.439617 219.127919 
L 126.325366 216.68291 
L 120.938256 215.107684 
L 116.208867 214.27568 
L 112.092647 214.091001 
L 108.565522 214.480953 
L 105.620499 215.390321 
L 103.265727 216.777427 
L 101.52399 218.611609 
L 100.433689 220.871859 
L 100.05158 223.546513 
L 100.45794 226.634069 
L 101.765529 230.14553 
L 104.135114 234.109154 
L 107.803266 238.579573 
L 113.135147 243.655703 
L 120.732907 249.518164 
L 131.679413 256.513821 
L 148.10525 265.348225 
L 173.190473 276.982087 
L 181.739673 281.235827 
L 153.654112 271.802513 
L 132.320177 265.787357 
L 117.372929 262.659556 
L 106.246656 261.25409 
L 97.65978 260.978063 
L 90.941578 261.503771 
L 85.71436 262.62977 
L 81.756596 264.22078 
L 78.939459 266.179077 
L 77.195784 268.42954 
L 76.505283 270.911152 
L 76.88947 273.571781 
L 78.414284 276.364668 
L 81.201429 279.24578 
L 85.453369 282.171433 
L 91.504915 285.095653 
L 99.935967 287.966407 
L 111.852058 290.718836 
L 129.755068 293.259688 
L 161.655726 295.41716 
L 161.655726 295.41716 
" style="fill:none;stroke:#a65628;stroke-linecap:square;"/>
   </g>
   <g id="patch_3">
    <path d="M 384.48 296.46 
C 384.48 253.225083 367.286677 211.716729 336.714974 181.145026 
C 306.143271 150.573323 264.634917 133.38 221.4 133.38 
C 178.165083 133.38 136.656729 150.573323 106.085026 181.145026 
C 75.513323 211.716729 58.32 253.225083 58.32 296.46 
" style="fill:none;stroke:#000000;stroke-linecap:square;stroke-linejoin:miter;stroke-width:0.8;"/>
   </g>
   <g id="patch_4">
    <path d="M 221.4 296.46 
L 384.48 296.46 
" style="fill:none;stroke:#000000;stroke-linecap:square;stroke-linejoin:miter;stroke-width:0.8;"/>
   </g>
   <g id="patch_5">
    <path d="M 221.4 296.46 
L 58.32 296.46 
" style="fill:none;stroke:#000000;stroke-linecap:square;stroke-linejoin:miter;stroke-width:0.8;"/>
   </g>
  </g>
 </g>
 <defs>
  <clipPath id="p29bf86de1f">
   <path d="M 384.48 296.46 
C 384.48 253.225083 367.286677 211.716729 336.714974 181.145026 
C 306.143271 150.573323 264.634917 133.38 221.4 133.38 
C 178.165083 133.38 136.656729 150.573323 106.085026 181.145026 
C 75.513323 211.716729 58.32 253.225083 58.32 296.46 
L 221.4 296.46 
C 221.4 296.46 221.4 296.46 221.4 296.46 
C 221.4 296.46 221.4 296.46 221.4 296.46 
C 221.4 296.46 221.4 296.46 221.4 296.46 
C 221.4 296.46 221.4 296.46 221.4 296.46 
L 384.48 296.46 
z
"/>
  </clipPath>
 </defs>
</svg>
