<?xml version="1.0" encoding="utf-8" standalone="no"?>
<!DOCTYPE svg PUBLIC "-//W3C//DTD SVG 1.1//EN"
  "http://www.w3.org/Graphics/SVG/1.1/DTD/svg11.dtd">
<!-- Created with matplotlib (http://matplotlib.org/) -->
<svg height="378pt" version="1.1" viewBox="0 0 371 378" width="371pt" xmlns="http://www.w3.org/2000/svg" xmlns:xlink="http://www.w3.org/1999/xlink">
 <defs>
  <style type="text/css">
*{stroke-linecap:butt;stroke-linejoin:round;}
  </style>
 </defs>
 <g id="figure_1">
  <g id="patch_1">
   <path d="M 0 378.238125 
L 371.676 378.238125 
L 371.676 0 
L 0 0 
z
" style="fill:#ffffff;"/>
  </g>
  <g id="axes_1">
   <g id="patch_2">
    <path d="M 92.24 352.199062 
C 135.474917 352.199062 176.983271 335.00574 207.554974 304.434036 
C 238.126677 273.862333 255.32 232.35398 255.32 189.119062 
C 255.32 145.884145 238.126677 104.375792 207.554974 73.804089 
C 176.983271 43.232385 135.474917 26.039062 92.24 26.039062 
L 92.24 189.119062 
C 92.24 189.119062 92.24 189.119062 92.24 189.119062 
C 92.24 189.119062 92.24 189.119062 92.24 189.119062 
C 92.24 189.119062 92.24 189.119062 92.24 189.119062 
C 92.24 189.119062 92.24 189.119062 92.24 189.119062 
L 92.24 352.199062 
z
" style="fill:#ffffff;"/>
   </g>
   <g id="matplotlib.axis_1">
    <g id="xtick_1">
     <g id="line2d_1">
      <path clip-path="url(#p6fe34ed2c6)" d="M 92.24 189.119062 
L 92.24 352.199062 
" style="fill:none;stroke:#b0b0b0;stroke-linecap:square;stroke-width:0.8;"/>
     </g>
     <g id="text_1">
      <!-- -90° -->
      <defs>
       <path d="M 4.890625 31.390625 
L 31.203125 31.390625 
L 31.203125 23.390625 
L 4.890625 23.390625 
z
" id="DejaVuSans-2d"/>
       <path d="M 10.984375 1.515625 
L 10.984375 10.5 
Q 14.703125 8.734375 18.5 7.8125 
Q 22.3125 6.890625 25.984375 6.890625 
Q 35.75 6.890625 40.890625 13.453125 
Q 46.046875 20.015625 46.78125 33.40625 
Q 43.953125 29.203125 39.59375 26.953125 
Q 35.25 24.703125 29.984375 24.703125 
Q 19.046875 24.703125 12.671875 31.3125 
Q 6.296875 37.9375 6.296875 49.421875 
Q 6.296875 60.640625 12.9375 67.421875 
Q 19.578125 74.21875 30.609375 74.21875 
Q 43.265625 74.21875 49.921875 64.515625 
Q 56.59375 54.828125 56.59375 36.375 
Q 56.59375 19.140625 48.40625 8.859375 
Q 40.234375 -1.421875 26.421875 -1.421875 
Q 22.703125 -1.421875 18.890625 -0.6875 
Q 15.09375 0.046875 10.984375 1.515625 
z
M 30.609375 32.421875 
Q 37.25 32.421875 41.125 36.953125 
Q 45.015625 41.5 45.015625 49.421875 
Q 45.015625 57.28125 41.125 61.84375 
Q 37.25 66.40625 30.609375 66.40625 
Q 23.96875 66.40625 20.09375 61.84375 
Q 16.21875 57.28125 16.21875 49.421875 
Q 16.21875 41.5 20.09375 36.953125 
Q 23.96875 32.421875 30.609375 32.421875 
z
" id="DejaVuSans-39"/>
       <path d="M 31.78125 66.40625 
Q 24.171875 66.40625 20.328125 58.90625 
Q 16.5 51.421875 16.5 36.375 
Q 16.5 21.390625 20.328125 13.890625 
Q 24.171875 6.390625 31.78125 6.390625 
Q 39.453125 6.390625 43.28125 13.890625 
Q 47.125 21.390625 47.125 36.375 
Q 47.125 51.421875 43.28125 58.90625 
Q 39.453125 66.40625 31.78125 66.40625 
z
M 31.78125 74.21875 
Q 44.046875 74.21875 50.515625 64.515625 
Q 56.984375 54.828125 56.984375 36.375 
Q 56.984375 17.96875 50.515625 8.265625 
Q 44.046875 -1.421875 31.78125 -1.421875 
Q 19.53125 -1.421875 13.0625 8.265625 
Q 6.59375 17.96875 6.59375 36.375 
Q 6.59375 54.828125 13.0625 64.515625 
Q 19.53125 74.21875 31.78125 74.21875 
z
" id="DejaVuSans-30"/>
       <path d="M 25 67.921875 
Q 21.09375 67.921875 18.40625 65.203125 
Q 15.71875 62.5 15.71875 58.59375 
Q 15.71875 54.734375 18.40625 52.078125 
Q 21.09375 49.421875 25 49.421875 
Q 28.90625 49.421875 31.59375 52.078125 
Q 34.28125 54.734375 34.28125 58.59375 
Q 34.28125 62.453125 31.5625 65.1875 
Q 28.859375 67.921875 25 67.921875 
z
M 25 74.21875 
Q 28.125 74.21875 31 73.015625 
Q 33.890625 71.828125 35.984375 69.578125 
Q 38.234375 67.390625 39.359375 64.59375 
Q 40.484375 61.8125 40.484375 58.59375 
Q 40.484375 52.15625 35.96875 47.6875 
Q 31.453125 43.21875 24.90625 43.21875 
Q 18.3125 43.21875 13.90625 47.609375 
Q 9.515625 52 9.515625 58.59375 
Q 9.515625 65.140625 14 69.671875 
Q 18.5 74.21875 25 74.21875 
z
" id="DejaVuSans-b0"/>
      </defs>
      <g transform="translate(81.573594 368.958437)scale(0.1 -0.1)">
       <use xlink:href="#DejaVuSans-2d"/>
       <use x="36.083984" xlink:href="#DejaVuSans-39"/>
       <use x="99.707031" xlink:href="#DejaVuSans-30"/>
       <use x="163.330078" xlink:href="#DejaVuSans-b0"/>
      </g>
     </g>
    </g>
    <g id="xtick_2">
     <g id="line2d_2">
      <path clip-path="url(#p6fe34ed2c6)" d="M 92.24 189.119062 
L 134.44821 346.642246 
" style="fill:none;stroke:#b0b0b0;stroke-linecap:square;stroke-width:0.8;"/>
     </g>
     <g id="text_2">
      <!-- -75° -->
      <defs>
       <path d="M 8.203125 72.90625 
L 55.078125 72.90625 
L 55.078125 68.703125 
L 28.609375 0 
L 18.3125 0 
L 43.21875 64.59375 
L 8.203125 64.59375 
z
" id="DejaVuSans-37"/>
       <path d="M 10.796875 72.90625 
L 49.515625 72.90625 
L 49.515625 64.59375 
L 19.828125 64.59375 
L 19.828125 46.734375 
Q 21.96875 47.46875 24.109375 47.828125 
Q 26.265625 48.1875 28.421875 48.1875 
Q 40.625 48.1875 47.75 41.5 
Q 54.890625 34.8125 54.890625 23.390625 
Q 54.890625 11.625 47.5625 5.09375 
Q 40.234375 -1.421875 26.90625 -1.421875 
Q 22.3125 -1.421875 17.546875 -0.640625 
Q 12.796875 0.140625 7.71875 1.703125 
L 7.71875 11.625 
Q 12.109375 9.234375 16.796875 8.0625 
Q 21.484375 6.890625 26.703125 6.890625 
Q 35.15625 6.890625 40.078125 11.328125 
Q 45.015625 15.765625 45.015625 23.390625 
Q 45.015625 31 40.078125 35.4375 
Q 35.15625 39.890625 26.703125 39.890625 
Q 22.75 39.890625 18.8125 39.015625 
Q 14.890625 38.140625 10.796875 36.28125 
z
" id="DejaVuSans-35"/>
      </defs>
      <g transform="translate(127.40527 362.924583)scale(0.1 -0.1)">
       <use xlink:href="#DejaVuSans-2d"/>
       <use x="36.083984" xlink:href="#DejaVuSans-37"/>
       <use x="99.707031" xlink:href="#DejaVuSans-35"/>
       <use x="163.330078" xlink:href="#DejaVuSans-b0"/>
      </g>
     </g>
    </g>
    <g id="xtick_3">
     <g id="line2d_3">
      <path clip-path="url(#p6fe34ed2c6)" d="M 92.24 189.119062 
L 173.78 330.350485 
" style="fill:none;stroke:#b0b0b0;stroke-linecap:square;stroke-width:0.8;"/>
     </g>
     <g id="text_3">
      <!-- -60° -->
      <defs>
       <path d="M 33.015625 40.375 
Q 26.375 40.375 22.484375 35.828125 
Q 18.609375 31.296875 18.609375 23.390625 
Q 18.609375 15.53125 22.484375 10.953125 
Q 26.375 6.390625 33.015625 6.390625 
Q 39.65625 6.390625 43.53125 10.953125 
Q 47.40625 15.53125 47.40625 23.390625 
Q 47.40625 31.296875 43.53125 35.828125 
Q 39.65625 40.375 33.015625 40.375 
z
M 52.59375 71.296875 
L 52.59375 62.3125 
Q 48.875 64.0625 45.09375 64.984375 
Q 41.3125 65.921875 37.59375 65.921875 
Q 27.828125 65.921875 22.671875 59.328125 
Q 17.53125 52.734375 16.796875 39.40625 
Q 19.671875 43.65625 24.015625 45.921875 
Q 28.375 48.1875 33.59375 48.1875 
Q 44.578125 48.1875 50.953125 41.515625 
Q 57.328125 34.859375 57.328125 23.390625 
Q 57.328125 12.15625 50.6875 5.359375 
Q 44.046875 -1.421875 33.015625 -1.421875 
Q 20.359375 -1.421875 13.671875 8.265625 
Q 6.984375 17.96875 6.984375 36.375 
Q 6.984375 53.65625 15.1875 63.9375 
Q 23.390625 74.21875 37.203125 74.21875 
Q 40.921875 74.21875 44.703125 73.484375 
Q 48.484375 72.75 52.59375 71.296875 
z
" id="DejaVuSans-36"/>
      </defs>
      <g transform="translate(170.113594 345.234216)scale(0.1 -0.1)">
       <use xlink:href="#DejaVuSans-2d"/>
       <use x="36.083984" xlink:href="#DejaVuSans-36"/>
       <use x="99.707031" xlink:href="#DejaVuSans-30"/>
       <use x="163.330078" xlink:href="#DejaVuSans-b0"/>
      </g>
     </g>
    </g>
    <g id="xtick_4">
     <g id="line2d_4">
      <path clip-path="url(#p6fe34ed2c6)" d="M 92.24 189.119062 
L 207.554974 304.434036 
" style="fill:none;stroke:#b0b0b0;stroke-linecap:square;stroke-width:0.8;"/>
     </g>
     <g id="text_4">
      <!-- -45° -->
      <defs>
       <path d="M 37.796875 64.3125 
L 12.890625 25.390625 
L 37.796875 25.390625 
z
M 35.203125 72.90625 
L 47.609375 72.90625 
L 47.609375 25.390625 
L 58.015625 25.390625 
L 58.015625 17.1875 
L 47.609375 17.1875 
L 47.609375 0 
L 37.796875 0 
L 37.796875 17.1875 
L 4.890625 17.1875 
L 4.890625 26.703125 
z
" id="DejaVuSans-34"/>
      </defs>
      <g transform="translate(206.788063 317.092906)scale(0.1 -0.1)">
       <use xlink:href="#DejaVuSans-2d"/>
       <use x="36.083984" xlink:href="#DejaVuSans-34"/>
       <use x="99.707031" xlink:href="#DejaVuSans-35"/>
       <use x="163.330078" xlink:href="#DejaVuSans-b0"/>
      </g>
     </g>
    </g>
    <g id="xtick_5">
     <g id="line2d_5">
      <path clip-path="url(#p6fe34ed2c6)" d="M 92.24 189.119062 
L 233.471423 270.659062 
" style="fill:none;stroke:#b0b0b0;stroke-linecap:square;stroke-width:0.8;"/>
     </g>
     <g id="text_5">
      <!-- -30° -->
      <defs>
       <path d="M 40.578125 39.3125 
Q 47.65625 37.796875 51.625 33 
Q 55.609375 28.21875 55.609375 21.1875 
Q 55.609375 10.40625 48.1875 4.484375 
Q 40.765625 -1.421875 27.09375 -1.421875 
Q 22.515625 -1.421875 17.65625 -0.515625 
Q 12.796875 0.390625 7.625 2.203125 
L 7.625 11.71875 
Q 11.71875 9.328125 16.59375 8.109375 
Q 21.484375 6.890625 26.8125 6.890625 
Q 36.078125 6.890625 40.9375 10.546875 
Q 45.796875 14.203125 45.796875 21.1875 
Q 45.796875 27.640625 41.28125 31.265625 
Q 36.765625 34.90625 28.71875 34.90625 
L 20.21875 34.90625 
L 20.21875 43.015625 
L 29.109375 43.015625 
Q 36.375 43.015625 40.234375 45.921875 
Q 44.09375 48.828125 44.09375 54.296875 
Q 44.09375 59.90625 40.109375 62.90625 
Q 36.140625 65.921875 28.71875 65.921875 
Q 24.65625 65.921875 20.015625 65.03125 
Q 15.375 64.15625 9.8125 62.3125 
L 9.8125 71.09375 
Q 15.4375 72.65625 20.34375 73.4375 
Q 25.25 74.21875 29.59375 74.21875 
Q 40.828125 74.21875 47.359375 69.109375 
Q 53.90625 64.015625 53.90625 55.328125 
Q 53.90625 49.265625 50.4375 45.09375 
Q 46.96875 40.921875 40.578125 39.3125 
z
" id="DejaVuSans-33"/>
      </defs>
      <g transform="translate(234.929372 280.418437)scale(0.1 -0.1)">
       <use xlink:href="#DejaVuSans-2d"/>
       <use x="36.083984" xlink:href="#DejaVuSans-33"/>
       <use x="99.707031" xlink:href="#DejaVuSans-30"/>
       <use x="163.330078" xlink:href="#DejaVuSans-b0"/>
      </g>
     </g>
    </g>
    <g id="xtick_6">
     <g id="line2d_6">
      <path clip-path="url(#p6fe34ed2c6)" d="M 92.24 189.119062 
L 249.763184 231.327272 
" style="fill:none;stroke:#b0b0b0;stroke-linecap:square;stroke-width:0.8;"/>
     </g>
     <g id="text_6">
      <!-- -15° -->
      <defs>
       <path d="M 12.40625 8.296875 
L 28.515625 8.296875 
L 28.515625 63.921875 
L 10.984375 60.40625 
L 10.984375 69.390625 
L 28.421875 72.90625 
L 38.28125 72.90625 
L 38.28125 8.296875 
L 54.390625 8.296875 
L 54.390625 0 
L 12.40625 0 
z
" id="DejaVuSans-31"/>
      </defs>
      <g transform="translate(252.619739 237.710114)scale(0.1 -0.1)">
       <use xlink:href="#DejaVuSans-2d"/>
       <use x="36.083984" xlink:href="#DejaVuSans-31"/>
       <use x="99.707031" xlink:href="#DejaVuSans-35"/>
       <use x="163.330078" xlink:href="#DejaVuSans-b0"/>
      </g>
     </g>
    </g>
    <g id="xtick_7">
     <g id="line2d_7">
      <path clip-path="url(#p6fe34ed2c6)" d="M 92.24 189.119062 
L 255.32 189.119062 
" style="fill:none;stroke:#b0b0b0;stroke-linecap:square;stroke-width:0.8;"/>
     </g>
     <g id="text_7">
      <!-- 0° -->
      <g transform="translate(263.63875 191.878437)scale(0.1 -0.1)">
       <use xlink:href="#DejaVuSans-30"/>
       <use x="63.623047" xlink:href="#DejaVuSans-b0"/>
      </g>
     </g>
    </g>
    <g id="xtick_8">
     <g id="line2d_8">
      <path clip-path="url(#p6fe34ed2c6)" d="M 92.24 189.119062 
L 249.763184 146.910853 
" style="fill:none;stroke:#b0b0b0;stroke-linecap:square;stroke-width:0.8;"/>
     </g>
     <g id="text_8">
      <!-- 15° -->
      <g transform="translate(254.423645 146.046761)scale(0.1 -0.1)">
       <use xlink:href="#DejaVuSans-31"/>
       <use x="63.623047" xlink:href="#DejaVuSans-35"/>
       <use x="127.246094" xlink:href="#DejaVuSans-b0"/>
      </g>
     </g>
    </g>
    <g id="xtick_9">
     <g id="line2d_9">
      <path clip-path="url(#p6fe34ed2c6)" d="M 92.24 189.119062 
L 233.471423 107.579062 
" style="fill:none;stroke:#b0b0b0;stroke-linecap:square;stroke-width:0.8;"/>
     </g>
     <g id="text_9">
      <!-- 30° -->
      <g transform="translate(236.733279 103.338437)scale(0.1 -0.1)">
       <use xlink:href="#DejaVuSans-33"/>
       <use x="63.623047" xlink:href="#DejaVuSans-30"/>
       <use x="127.246094" xlink:href="#DejaVuSans-b0"/>
      </g>
     </g>
    </g>
    <g id="xtick_10">
     <g id="line2d_10">
      <path clip-path="url(#p6fe34ed2c6)" d="M 92.24 189.119062 
L 207.554974 73.804089 
" style="fill:none;stroke:#b0b0b0;stroke-linecap:square;stroke-width:0.8;"/>
     </g>
     <g id="text_10">
      <!-- 45° -->
      <g transform="translate(208.591969 66.663969)scale(0.1 -0.1)">
       <use xlink:href="#DejaVuSans-34"/>
       <use x="63.623047" xlink:href="#DejaVuSans-35"/>
       <use x="127.246094" xlink:href="#DejaVuSans-b0"/>
      </g>
     </g>
    </g>
    <g id="xtick_11">
     <g id="line2d_11">
      <path clip-path="url(#p6fe34ed2c6)" d="M 92.24 189.119062 
L 173.78 47.88764 
" style="fill:none;stroke:#b0b0b0;stroke-linecap:square;stroke-width:0.8;"/>
     </g>
     <g id="text_11">
      <!-- 60° -->
      <g transform="translate(171.9175 38.522659)scale(0.1 -0.1)">
       <use xlink:href="#DejaVuSans-36"/>
       <use x="63.623047" xlink:href="#DejaVuSans-30"/>
       <use x="127.246094" xlink:href="#DejaVuSans-b0"/>
      </g>
     </g>
    </g>
    <g id="xtick_12">
     <g id="line2d_12">
      <path clip-path="url(#p6fe34ed2c6)" d="M 92.24 189.119062 
L 134.44821 31.595879 
" style="fill:none;stroke:#b0b0b0;stroke-linecap:square;stroke-width:0.8;"/>
     </g>
     <g id="text_12">
      <!-- 75° -->
      <g transform="translate(129.209177 20.832292)scale(0.1 -0.1)">
       <use xlink:href="#DejaVuSans-37"/>
       <use x="63.623047" xlink:href="#DejaVuSans-35"/>
       <use x="127.246094" xlink:href="#DejaVuSans-b0"/>
      </g>
     </g>
    </g>
    <g id="xtick_13">
     <g id="line2d_13">
      <path clip-path="url(#p6fe34ed2c6)" d="M 92.24 189.119062 
L 92.24 26.039062 
" style="fill:none;stroke:#b0b0b0;stroke-linecap:square;stroke-width:0.8;"/>
     </g>
     <g id="text_13">
      <!-- 90° -->
      <g transform="translate(83.3775 14.798437)scale(0.1 -0.1)">
       <use xlink:href="#DejaVuSans-39"/>
       <use x="63.623047" xlink:href="#DejaVuSans-30"/>
       <use x="127.246094" xlink:href="#DejaVuSans-b0"/>
      </g>
     </g>
    </g>
   </g>
   <g id="matplotlib.axis_2">
    <g id="ytick_1">
     <g id="line2d_14">
      <path clip-path="url(#p6fe34ed2c6)" d="M 92.24 189.119062 
L 92.24 189.119062 
" style="fill:none;stroke:#b0b0b0;stroke-linecap:square;stroke-width:0.8;"/>
     </g>
     <g id="text_14">
      <!-- −20 -->
      <defs>
       <path d="M 10.59375 35.5 
L 73.1875 35.5 
L 73.1875 27.203125 
L 10.59375 27.203125 
z
" id="DejaVuSans-2212"/>
       <path d="M 19.1875 8.296875 
L 53.609375 8.296875 
L 53.609375 0 
L 7.328125 0 
L 7.328125 8.296875 
Q 12.9375 14.109375 22.625 23.890625 
Q 32.328125 33.6875 34.8125 36.53125 
Q 39.546875 41.84375 41.421875 45.53125 
Q 43.3125 49.21875 43.3125 52.78125 
Q 43.3125 58.59375 39.234375 62.25 
Q 35.15625 65.921875 28.609375 65.921875 
Q 23.96875 65.921875 18.8125 64.3125 
Q 13.671875 62.703125 7.8125 59.421875 
L 7.8125 69.390625 
Q 13.765625 71.78125 18.9375 73 
Q 24.125 74.21875 28.421875 74.21875 
Q 39.75 74.21875 46.484375 68.546875 
Q 53.21875 62.890625 53.21875 53.421875 
Q 53.21875 48.921875 51.53125 44.890625 
Q 49.859375 40.875 45.40625 35.40625 
Q 44.1875 33.984375 37.640625 27.21875 
Q 31.109375 20.453125 19.1875 8.296875 
z
" id="DejaVuSans-32"/>
      </defs>
      <g transform="translate(64.135313 191.878437)scale(0.1 -0.1)">
       <use xlink:href="#DejaVuSans-2212"/>
       <use x="83.789062" xlink:href="#DejaVuSans-32"/>
       <use x="147.412109" xlink:href="#DejaVuSans-30"/>
      </g>
     </g>
    </g>
    <g id="ytick_2">
     <g id="line2d_15">
      <path clip-path="url(#p6fe34ed2c6)" d="M 92.24 216.299062 
L 94.608893 216.195634 
L 96.959757 215.886137 
L 99.274702 215.372926 
L 101.536107 214.659908 
L 103.726764 213.752508 
L 105.83 212.657633 
L 107.829808 211.383615 
L 109.710967 209.94015 
L 111.459162 208.338225 
L 113.061088 206.59003 
L 114.504553 204.70887 
L 115.77857 202.709062 
L 116.873446 200.605827 
L 117.780845 198.41517 
L 118.493864 196.153764 
L 119.007075 193.83882 
L 119.316572 191.487956 
L 119.42 189.119062 
L 119.316572 186.750169 
L 119.007075 184.399305 
L 118.493864 182.084361 
L 117.780845 179.822955 
L 116.873446 177.632298 
L 115.77857 175.529062 
L 114.504553 173.529255 
L 113.061088 171.648095 
L 111.459162 169.8999 
L 109.710967 168.297975 
L 107.829808 166.85451 
L 105.83 165.580492 
L 103.726764 164.485617 
L 101.536107 163.578217 
L 99.274702 162.865199 
L 96.959757 162.351988 
L 94.608893 162.042491 
L 92.24 161.939062 
L 92.24 161.939062 
" style="fill:none;stroke:#b0b0b0;stroke-linecap:square;stroke-width:0.8;"/>
     </g>
     <g id="text_15">
      <!-- −15 -->
      <g transform="translate(64.135313 219.058437)scale(0.1 -0.1)">
       <use xlink:href="#DejaVuSans-2212"/>
       <use x="83.789062" xlink:href="#DejaVuSans-31"/>
       <use x="147.412109" xlink:href="#DejaVuSans-35"/>
      </g>
     </g>
    </g>
    <g id="ytick_3">
     <g id="line2d_16">
      <path clip-path="url(#p6fe34ed2c6)" d="M 92.24 243.479062 
L 96.031962 243.346644 
L 99.80545 242.950035 
L 103.54208 242.291166 
L 107.223647 241.373248 
L 110.832215 240.200753 
L 114.350204 238.779394 
L 117.760474 237.116094 
L 121.046411 235.218957 
L 124.192006 233.097226 
L 127.181934 230.761238 
L 130.001629 228.222374 
L 132.637353 225.493002 
L 135.076265 222.58642 
L 137.306482 219.516789 
L 139.317141 216.299062 
L 141.098444 212.948918 
L 142.641714 209.482677 
L 143.939432 205.917226 
L 144.985276 202.269937 
L 145.774149 198.558577 
L 146.30221 194.80123 
L 146.566885 191.016199 
L 146.566885 187.221926 
L 146.30221 183.436895 
L 145.774149 179.679548 
L 144.985276 175.968188 
L 143.939432 172.320899 
L 142.641714 168.755448 
L 141.098444 165.289207 
L 139.317141 161.939062 
L 137.306482 158.721336 
L 135.076265 155.651705 
L 132.637353 152.745123 
L 130.001629 150.015751 
L 127.181934 147.476887 
L 124.192006 145.140899 
L 121.046411 143.019168 
L 117.760474 141.122031 
L 114.350204 139.458731 
L 110.832215 138.037372 
L 107.223647 136.864877 
L 103.54208 135.946959 
L 99.80545 135.28809 
L 96.031962 134.891481 
L 92.24 134.759062 
L 92.24 134.759062 
" style="fill:none;stroke:#b0b0b0;stroke-linecap:square;stroke-width:0.8;"/>
     </g>
     <g id="text_16">
      <!-- −10 -->
      <g transform="translate(64.135313 246.238437)scale(0.1 -0.1)">
       <use xlink:href="#DejaVuSans-2212"/>
       <use x="83.789062" xlink:href="#DejaVuSans-31"/>
       <use x="147.412109" xlink:href="#DejaVuSans-30"/>
      </g>
     </g>
    </g>
    <g id="ytick_4">
     <g id="line2d_17">
      <path clip-path="url(#p6fe34ed2c6)" d="M 92.24 270.659062 
L 96.507474 270.547315 
L 100.763251 270.212378 
L 104.995666 269.65517 
L 109.193119 268.877218 
L 113.344105 267.880654 
L 117.437246 266.668211 
L 121.461323 265.24321 
L 125.405306 263.609559 
L 129.258385 261.771734 
L 133.01 259.734774 
L 136.649867 257.504261 
L 140.168009 255.086308 
L 143.554785 252.487544 
L 146.80091 249.715092 
L 149.897487 246.776549 
L 152.836029 243.679972 
L 155.608482 240.433847 
L 158.207246 237.047072 
L 160.625198 233.528929 
L 162.855711 229.889062 
L 164.892672 226.137448 
L 166.730497 222.284368 
L 168.364148 218.340385 
L 169.789148 214.316308 
L 171.001592 210.223167 
L 171.998155 206.072182 
L 172.776107 201.874729 
L 173.333315 197.642313 
L 173.668252 193.386536 
L 173.78 189.119062 
L 173.668252 184.851589 
L 173.333315 180.595812 
L 172.776107 176.363396 
L 171.998155 172.165943 
L 171.001592 168.014958 
L 169.789148 163.921817 
L 168.364148 159.89774 
L 166.730497 155.953757 
L 164.892672 152.100677 
L 162.855711 148.349062 
L 160.625198 144.709196 
L 158.207246 141.191053 
L 155.608482 137.804278 
L 152.836029 134.558153 
L 149.897487 131.461576 
L 146.80091 128.523033 
L 143.554785 125.750581 
L 140.168009 123.151817 
L 136.649867 120.733864 
L 133.01 118.503351 
L 129.258385 116.466391 
L 125.405306 114.628566 
L 121.461323 112.994915 
L 117.437246 111.569914 
L 113.344105 110.357471 
L 109.193119 109.360907 
L 104.995666 108.582955 
L 100.763251 108.025747 
L 96.507474 107.69081 
L 92.24 107.579062 
L 92.24 107.579062 
" style="fill:none;stroke:#b0b0b0;stroke-linecap:square;stroke-width:0.8;"/>
     </g>
     <g id="text_17">
      <!-- −5 -->
      <g transform="translate(70.497813 273.418437)scale(0.1 -0.1)">
       <use xlink:href="#DejaVuSans-2212"/>
       <use x="83.789062" xlink:href="#DejaVuSans-35"/>
      </g>
     </g>
    </g>
    <g id="ytick_5">
     <g id="line2d_18">
      <path clip-path="url(#p6fe34ed2c6)" d="M 92.24 297.839062 
L 97.929965 297.690066 
L 103.604335 297.243483 
L 109.247555 296.500539 
L 114.844159 295.46327 
L 120.378807 294.134518 
L 125.836328 292.517927 
L 131.201763 290.617926 
L 136.460408 288.439725 
L 141.597847 285.989292 
L 146.6 283.273344 
L 151.453156 280.299327 
L 156.144013 277.07539 
L 160.659713 273.610371 
L 164.98788 269.913768 
L 169.116649 265.995712 
L 173.034705 261.866942 
L 176.731309 257.538775 
L 180.196328 253.023075 
L 183.420264 248.332218 
L 186.394282 243.479062 
L 189.110229 238.47691 
L 191.560662 233.33947 
L 193.738864 228.080826 
L 195.638864 222.71539 
L 197.255456 217.257869 
L 198.584207 211.723222 
L 199.621476 206.126618 
L 200.36442 200.483397 
L 200.811003 194.809028 
L 200.96 189.119062 
L 200.811003 183.429097 
L 200.36442 177.754728 
L 199.621476 172.111507 
L 198.584207 166.514903 
L 197.255456 160.980256 
L 195.638864 155.522735 
L 193.738864 150.157299 
L 191.560662 144.898655 
L 189.110229 139.761215 
L 186.394282 134.759062 
L 183.420264 129.905907 
L 180.196328 125.21505 
L 176.731309 120.69935 
L 173.034705 116.371183 
L 169.116649 112.242413 
L 164.98788 108.324357 
L 160.659713 104.627754 
L 156.144013 101.162735 
L 151.453156 97.938798 
L 146.6 94.964781 
L 141.597847 92.248833 
L 136.460408 89.7984 
L 131.201763 87.620199 
L 125.836328 85.720198 
L 120.378807 84.103607 
L 114.844159 82.774855 
L 109.247555 81.737586 
L 103.604335 80.994642 
L 97.929965 80.548059 
L 92.24 80.399062 
L 92.24 80.399062 
" style="fill:none;stroke:#b0b0b0;stroke-linecap:square;stroke-width:0.8;"/>
     </g>
     <g id="text_18">
      <!-- 0 -->
      <g transform="translate(78.8775 300.598437)scale(0.1 -0.1)">
       <use xlink:href="#DejaVuSans-30"/>
      </g>
     </g>
    </g>
    <g id="ytick_6">
     <g id="line2d_19">
      <path clip-path="url(#p6fe34ed2c6)" d="M 92.24 325.019062 
L 96.982842 324.936276 
L 101.719905 324.688017 
L 106.445418 324.274588 
L 111.153624 323.696493 
L 115.838787 322.954436 
L 120.495199 322.049321 
L 125.117186 320.982252 
L 129.699117 319.754527 
L 134.23541 318.367643 
L 138.720537 316.82329 
L 143.149036 315.123348 
L 147.51551 313.26989 
L 151.814639 311.265173 
L 156.041185 309.11164 
L 160.19 306.811915 
L 164.256028 304.368799 
L 168.234316 301.785269 
L 172.120016 299.064472 
L 175.908394 296.209724 
L 179.594836 293.224502 
L 183.174849 290.112444 
L 186.644073 286.877341 
L 189.998279 283.523135 
L 193.233382 280.053912 
L 196.34544 276.473899 
L 199.330661 272.787457 
L 202.18541 268.999078 
L 204.906206 265.113378 
L 207.489736 261.135091 
L 209.932852 257.069062 
L 212.232578 252.920248 
L 214.386111 248.693701 
L 216.390828 244.394572 
L 218.244286 240.028099 
L 219.944227 235.5996 
L 221.488581 231.114472 
L 222.875464 226.578179 
L 224.103189 221.996248 
L 225.170259 217.374261 
L 226.075374 212.71785 
L 226.817431 208.032687 
L 227.395526 203.324481 
L 227.808954 198.598967 
L 228.057213 193.861904 
L 228.14 189.119062 
L 228.057213 184.376221 
L 227.808954 179.639158 
L 227.395526 174.913644 
L 226.817431 170.205438 
L 226.075374 165.520275 
L 225.170259 160.863864 
L 224.103189 156.241877 
L 222.875464 151.659946 
L 221.488581 147.123653 
L 219.944227 142.638525 
L 218.244286 138.210026 
L 216.390828 133.843553 
L 214.386111 129.544424 
L 212.232578 125.317877 
L 209.932852 121.169062 
L 207.489736 117.103034 
L 204.906206 113.124747 
L 202.18541 109.239047 
L 199.330661 105.450668 
L 196.34544 101.764226 
L 193.233382 98.184213 
L 189.998279 94.71499 
L 186.644073 91.360784 
L 183.174849 88.125681 
L 179.594836 85.013623 
L 175.908394 82.028401 
L 172.120016 79.173653 
L 168.234316 76.452856 
L 164.256028 73.869326 
L 160.19 71.42621 
L 156.041185 69.126485 
L 151.814639 66.972952 
L 147.51551 64.968235 
L 143.149036 63.114777 
L 138.720537 61.414835 
L 134.23541 59.870482 
L 129.699117 58.483598 
L 125.117186 57.255873 
L 120.495199 56.188804 
L 115.838787 55.283689 
L 111.153624 54.541632 
L 106.445418 53.963537 
L 101.719905 53.550108 
L 96.982842 53.301849 
L 92.24 53.219062 
L 92.24 53.219062 
" style="fill:none;stroke:#b0b0b0;stroke-linecap:square;stroke-width:0.8;"/>
     </g>
     <g id="text_19">
      <!-- 5 -->
      <g transform="translate(78.8775 327.778437)scale(0.1 -0.1)">
       <use xlink:href="#DejaVuSans-35"/>
      </g>
     </g>
    </g>
    <g id="ytick_7">
     <g id="line2d_20">
      <path clip-path="url(#p6fe34ed2c6)" d="M 92.24 352.199062 
L 97.93141 352.099719 
L 103.615886 351.801808 
L 109.286502 351.305693 
L 114.936349 350.611979 
L 120.558545 349.721511 
L 126.146239 348.635373 
L 131.692623 347.35489 
L 137.19094 345.88162 
L 142.634491 344.217359 
L 148.016645 342.364135 
L 153.330843 340.324206 
L 158.570612 338.100056 
L 163.729567 335.694396 
L 168.801422 333.110156 
L 173.78 330.350485 
L 178.659234 327.418746 
L 183.433179 324.31851 
L 188.096019 321.053554 
L 192.642073 317.627856 
L 197.065803 314.04559 
L 201.361819 310.311121 
L 205.524887 306.428997 
L 209.549935 302.40395 
L 213.432058 298.240882 
L 217.166528 293.944866 
L 220.748794 289.521136 
L 224.174491 284.975081 
L 227.439447 280.312241 
L 230.539684 275.538296 
L 233.471423 270.659062 
L 236.231093 265.680485 
L 238.815333 260.608629 
L 241.220993 255.449674 
L 243.445143 250.209906 
L 245.485073 244.895707 
L 247.338297 239.513554 
L 249.002557 234.070002 
L 250.475827 228.571685 
L 251.756311 223.025301 
L 252.842448 217.437607 
L 253.732917 211.815412 
L 254.426631 206.165564 
L 254.922745 200.494948 
L 255.220656 194.810472 
L 255.32 189.119062 
L 255.220656 183.427653 
L 254.922745 177.743177 
L 254.426631 172.072561 
L 253.732917 166.422713 
L 252.842448 160.800518 
L 251.756311 155.212824 
L 250.475827 149.66644 
L 249.002557 144.168123 
L 247.338297 138.724571 
L 245.485073 133.342418 
L 243.445143 128.028219 
L 241.220993 122.788451 
L 238.815333 117.629496 
L 236.231093 112.55764 
L 233.471423 107.579062 
L 230.539684 102.699829 
L 227.439447 97.925884 
L 224.174491 93.263044 
L 220.748794 88.716989 
L 217.166528 84.293259 
L 213.432058 79.997243 
L 209.549935 75.834175 
L 205.524887 71.809128 
L 201.361819 67.927004 
L 197.065803 64.192535 
L 192.642073 60.610269 
L 188.096019 57.184571 
L 183.433179 53.919615 
L 178.659234 50.819379 
L 173.78 47.88764 
L 168.801422 45.127969 
L 163.729567 42.543729 
L 158.570612 40.138069 
L 153.330843 37.913919 
L 148.016645 35.87399 
L 142.634491 34.020766 
L 137.19094 32.356505 
L 131.692623 30.883235 
L 126.146239 29.602752 
L 120.558545 28.516614 
L 114.936349 27.626146 
L 109.286502 26.932432 
L 103.615886 26.436317 
L 97.93141 26.138406 
L 92.24 26.039062 
L 92.24 26.039062 
" style="fill:none;stroke:#b0b0b0;stroke-linecap:square;stroke-width:0.8;"/>
     </g>
     <g id="text_20">
      <!-- 10 -->
      <g transform="translate(72.515 354.958437)scale(0.1 -0.1)">
       <use xlink:href="#DejaVuSans-31"/>
       <use x="63.623047" xlink:href="#DejaVuSans-30"/>
      </g>
     </g>
    </g>
   </g>
   <g id="line2d_21">
    <path clip-path="url(#p6fe34ed2c6)" d="M 179.15629 189.119062 
L 179.332111 183.028989 
L 179.857655 175.241789 
L 180.716952 163.748705 
L 180.976104 156.821762 
L 180.93913 151.468515 
L 180.641162 146.002935 
L 180.035963 140.452965 
L 179.443349 136.722004 
L 178.689162 132.97832 
L 177.766535 129.232738 
L 176.670187 125.496353 
L 175.396297 121.780421 
L 173.942391 118.096258 
L 172.307229 114.455163 
L 170.490708 110.868354 
L 168.493769 107.346906 
L 166.318316 103.901708 
L 163.967143 100.543417 
L 161.443872 97.282423 
L 158.752889 94.128812 
L 155.8993 91.092337 
L 152.888874 88.182385 
L 149.728007 85.407953 
L 146.423673 82.777616 
L 142.983392 80.299507 
L 139.415186 77.981288 
L 135.727546 75.830131 
L 131.929394 73.852692 
L 128.030047 72.055094 
L 124.039181 70.442904 
L 119.966795 69.021119 
L 115.823174 67.794148 
L 111.618854 66.765797 
L 107.364578 65.939257 
L 103.071269 65.317096 
L 98.74998 64.901244 
L 94.411865 64.692995 
L 90.068135 64.692995 
L 85.73002 64.901244 
L 81.408731 65.317096 
L 77.115422 65.939257 
L 72.861146 66.765797 
L 68.656826 67.794148 
L 64.513205 69.021119 
L 60.440819 70.442904 
L 56.449953 72.055094 
L 52.550606 73.852692 
L 48.752454 75.830131 
L 45.064814 77.981288 
L 41.496608 80.299507 
L 38.056327 82.777616 
L 34.751993 85.407953 
L 31.591126 88.182385 
L 28.5807 91.092337 
L 25.727111 94.128812 
L 23.036128 97.282423 
L 20.512857 100.543417 
L 18.161684 103.901708 
L 15.986231 107.346906 
L 13.989292 110.868354 
L 12.172771 114.455163 
L 10.537609 118.096258 
L 9.083703 121.780421 
L 7.809813 125.496353 
L 6.713465 129.232738 
L 5.790838 132.97832 
L 5.036651 136.722004 
L 4.444037 140.452965 
L 3.838838 146.002935 
L 3.54087 151.468515 
L 3.503896 156.821762 
L 3.672197 162.041168 
L 4.104439 168.771365 
L 5.147889 183.028989 
L 5.32371 189.119062 
L 5.226601 195.203632 
L 4.890361 201.395254 
L 3.803379 217.853862 
L 3.686603 223.111527 
L 3.784837 228.501838 
L 4.153341 234.001457 
L 4.837672 239.58082 
L 5.487413 243.328095 
L 6.301915 247.085033 
L 7.287757 250.84048 
L 8.449922 254.583046 
L 9.791923 258.301214 
L 11.315916 261.983435 
L 13.022813 265.618211 
L 14.912385 269.194152 
L 16.983352 272.700037 
L 19.233465 276.124863 
L 21.65958 279.457881 
L 24.257724 282.688638 
L 27.023155 285.807011 
L 29.950415 288.803236 
L 33.033379 291.667938 
L 36.2653 294.392161 
L 39.638855 296.967392 
L 43.146181 299.385585 
L 46.778918 301.639188 
L 50.528246 303.721164 
L 54.384923 305.625009 
L 58.339321 307.344779 
L 62.381466 308.8751 
L 66.501073 310.211192 
L 70.687586 311.348879 
L 74.930212 312.284604 
L 79.217966 313.015443 
L 83.539703 313.53911 
L 87.884161 313.853967 
L 92.24 313.959028 
L 96.595839 313.853967 
L 100.940297 313.53911 
L 105.262034 313.015443 
L 109.549788 312.284604 
L 113.792414 311.348879 
L 117.978927 310.211192 
L 122.098534 308.8751 
L 126.140679 307.344779 
L 130.095077 305.625009 
L 133.951754 303.721164 
L 137.701082 301.639188 
L 141.333819 299.385585 
L 144.841145 296.967392 
L 148.2147 294.392161 
L 151.446621 291.667938 
L 154.529585 288.803236 
L 157.456845 285.807011 
L 160.222276 282.688638 
L 162.82042 279.457881 
L 165.246535 276.124863 
L 167.496648 272.700037 
L 169.567615 269.194152 
L 171.457187 265.618211 
L 173.164084 261.983435 
L 174.688077 258.301214 
L 176.030078 254.583046 
L 177.192243 250.84048 
L 178.178085 247.085033 
L 178.992587 243.328095 
L 179.642328 239.58082 
L 180.326659 234.001457 
L 180.695163 228.501838 
L 180.793397 223.111527 
L 180.676621 217.853862 
L 180.29774 211.074323 
L 179.253399 195.203632 
L 179.154915 190.636168 
L 179.154915 190.636168 
" style="fill:none;stroke:#e41a1c;stroke-linecap:square;"/>
   </g>
   <g id="line2d_22">
    <path clip-path="url(#p6fe34ed2c6)" d="M 192.543175 189.119062 
L 192.701938 183.854075 
L 193.069452 178.52146 
L 193.969518 169.344847 
L 194.864243 159.692034 
L 195.213631 153.662398 
L 195.317553 147.473028 
L 195.215235 143.271534 
L 194.955213 139.021506 
L 194.523159 134.734142 
L 193.907379 130.421374 
L 193.098595 126.095617 
L 192.089704 121.769587 
L 190.875555 117.456137 
L 189.452732 113.168152 
L 187.819367 108.918451 
L 185.974969 104.719717 
L 183.920283 100.584443 
L 181.657158 96.524884 
L 179.188451 92.553025 
L 176.517928 88.680539 
L 173.65019 84.91877 
L 170.590611 81.278698 
L 167.345273 77.770916 
L 163.920921 74.405609 
L 160.324915 71.192531 
L 156.565189 68.140978 
L 152.650213 65.259771 
L 148.588958 62.557232 
L 144.390857 60.041162 
L 140.065775 57.718825 
L 135.623973 55.596924 
L 131.076072 53.681583 
L 126.433024 51.978334 
L 121.706071 50.492096 
L 116.906716 49.227164 
L 112.046683 48.187193 
L 107.137881 47.375191 
L 102.192372 46.793505 
L 97.222329 46.44382 
L 92.24 46.327145 
L 87.257671 46.44382 
L 82.287628 46.793505 
L 77.342119 47.375191 
L 72.433317 48.187193 
L 67.573284 49.227164 
L 62.773929 50.492096 
L 58.046976 51.978334 
L 53.403928 53.681583 
L 48.856027 55.596924 
L 44.414225 57.718825 
L 40.089143 60.041162 
L 35.891042 62.557232 
L 31.829787 65.259771 
L 27.914811 68.140978 
L 24.155085 71.192531 
L 20.559079 74.405609 
L 17.134727 77.770916 
L 13.889389 81.278698 
L 10.82981 84.91877 
L 7.962072 88.680539 
L 5.291549 92.553025 
L 2.822842 96.524884 
L 0.559717 100.584443 
L -1 103.69317 
M -1 274.556406 
L 0.53963 277.67308 
L 2.782903 281.754598 
L 5.233884 285.749143 
L 7.888888 289.644803 
L 10.743358 293.430007 
L 13.791935 297.093561 
L 17.028521 300.624666 
L 20.446334 304.012946 
L 24.037956 307.248469 
L 27.795377 310.321771 
L 31.710038 313.223877 
L 35.772866 315.946322 
L 39.974314 318.481174 
L 44.304397 320.821049 
L 48.752723 322.959138 
L 53.308535 324.889217 
L 57.960739 326.60567 
L 62.697946 328.103501 
L 67.508503 329.378352 
L 72.380533 330.426513 
L 77.301969 331.24493 
L 82.260594 331.831223 
L 87.244073 332.183682 
L 92.24 332.301283 
L 97.235927 332.183682 
L 102.219406 331.831223 
L 107.178031 331.24493 
L 112.099467 330.426513 
L 116.971497 329.378352 
L 121.782054 328.103501 
L 126.519261 326.60567 
L 131.171465 324.889217 
L 135.727277 322.959138 
L 140.175603 320.821049 
L 144.505686 318.481174 
L 148.707134 315.946322 
L 152.769962 313.223877 
L 156.684623 310.321771 
L 160.442044 307.248469 
L 164.033666 304.012946 
L 167.451479 300.624666 
L 170.688065 297.093561 
L 173.736642 293.430007 
L 176.591112 289.644803 
L 179.246116 285.749143 
L 181.697097 281.754598 
L 183.94037 277.67308 
L 185.973206 273.516821 
L 187.793932 269.298332 
L 189.40204 265.030368 
L 190.798326 260.725878 
L 191.985041 256.397942 
L 192.966073 252.059699 
L 193.747148 247.724242 
L 194.336048 243.404494 
L 194.74285 239.113043 
L 194.980161 234.861929 
L 195.052691 228.585157 
L 194.843166 222.456852 
L 194.263007 214.556255 
L 192.791361 197.916167 
L 192.567239 192.622567 
L 192.542102 190.869842 
L 192.542102 190.869842 
" style="fill:none;stroke:#377eb8;stroke-linecap:square;"/>
   </g>
   <g id="line2d_23">
    <path clip-path="url(#p6fe34ed2c6)" d="M 188.372565 189.119062 
L 188.510628 184.073733 
L 188.975361 177.241454 
L 190.657347 157.141328 
L 190.82491 151.275861 
L 190.721925 145.272085 
L 190.473605 141.207332 
L 190.064711 137.104741 
L 189.483533 132.975483 
L 188.720611 128.831286 
L 187.768548 124.684243 
L 186.621815 120.54666 
L 185.276568 116.430929 
L 183.73048 112.349435 
L 181.982588 108.314473 
L 180.033159 104.338195 
L 177.88357 100.432549 
L 175.536213 96.609246 
L 172.994401 92.879715 
L 170.262296 89.255077 
L 167.344843 85.746114 
L 164.247712 82.36324 
L 160.977245 79.116475 
L 157.540416 76.015424 
L 153.94478 73.069249 
L 150.198441 70.286648 
L 146.310011 67.675831 
L 142.288573 65.244499 
L 138.143649 62.999823 
L 133.885164 60.948426 
L 129.52341 59.096359 
L 125.069012 57.449089 
L 120.53289 56.011478 
L 115.926231 54.787773 
L 111.260442 53.781588 
L 106.547121 52.995898 
L 101.798019 52.433026 
L 97.024998 52.094635 
L 92.24 51.981726 
L 87.455002 52.094635 
L 82.681981 52.433026 
L 77.932879 52.995898 
L 73.219558 53.781588 
L 68.553769 54.787773 
L 63.94711 56.011478 
L 59.410988 57.449089 
L 54.95659 59.096359 
L 50.594836 60.948426 
L 46.336351 62.999823 
L 42.191427 65.244499 
L 38.169989 67.675831 
L 34.281559 70.286648 
L 30.53522 73.069249 
L 26.939584 76.015424 
L 23.502755 79.116475 
L 20.232288 82.36324 
L 17.135157 85.746114 
L 14.217704 89.255077 
L 11.485599 92.879715 
L 8.943787 96.609246 
L 6.59643 100.432549 
L 4.446841 104.338195 
L 2.497412 108.314473 
L 0.74952 112.349435 
L -1 117.030002 
M -1 261.047025 
L -0.020498 263.830141 
L 1.605145 267.90674 
L 3.434052 271.931949 
L 5.46558 275.893482 
L 7.697979 279.77928 
L 10.128489 283.577551 
L 12.753427 287.276806 
L 15.568265 290.865891 
L 18.567697 294.334015 
L 21.745691 297.670779 
L 25.095547 300.866199 
L 28.609939 303.910731 
L 32.280964 306.795296 
L 36.100176 309.511303 
L 40.05863 312.050667 
L 44.146913 314.405836 
L 48.355189 316.569808 
L 52.673226 318.53615 
L 57.090437 320.299018 
L 61.595917 321.85317 
L 66.178475 323.193987 
L 70.826674 324.317483 
L 75.528867 325.220317 
L 80.273236 325.899802 
L 85.047826 326.353919 
L 89.840587 326.581316 
L 94.639413 326.581316 
L 99.432174 326.353919 
L 104.206764 325.899802 
L 108.951133 325.220317 
L 113.653326 324.317483 
L 118.301525 323.193987 
L 122.884083 321.85317 
L 127.389563 320.299018 
L 131.806774 318.53615 
L 136.124811 316.569808 
L 140.333087 314.405836 
L 144.42137 312.050667 
L 148.379824 309.511303 
L 152.199036 306.795296 
L 155.870061 303.910731 
L 159.384453 300.866199 
L 162.734309 297.670779 
L 165.912303 294.334015 
L 168.911735 290.865891 
L 171.726573 287.276806 
L 174.351511 283.577551 
L 176.782021 279.77928 
L 179.01442 275.893482 
L 181.045948 271.931949 
L 182.874855 267.90674 
L 184.500498 263.830141 
L 185.92346 259.714613 
L 187.145683 255.572737 
L 188.170618 251.417134 
L 189.003396 247.260376 
L 189.65101 243.114867 
L 190.122508 238.992691 
L 190.429187 234.905433 
L 190.61087 228.863474 
L 190.510267 222.956229 
L 190.197382 217.20789 
L 189.42837 208.010568 
L 188.703459 199.257781 
L 188.4416 194.160775 
L 188.372535 190.797062 
L 188.372535 190.797062 
" style="fill:none;stroke:#4daf4a;stroke-linecap:square;"/>
   </g>
   <g id="line2d_24">
    <path clip-path="url(#p6fe34ed2c6)" d="M 159.664236 189.119062 
L 159.571094 183.228355 
L 159.274058 177.299149 
L 158.733356 171.302221 
L 158.086234 166.446386 
L 157.20992 161.540968 
L 156.066749 156.59771 
L 155.011972 152.877647 
L 153.771824 149.159829 
L 152.333347 145.45869 
L 150.685496 141.790833 
L 148.819466 138.174683 
L 146.728928 134.630134 
L 144.410213 131.178171 
L 141.862405 127.840495 
L 139.0874 124.639148 
L 136.08989 121.596153 
L 132.877315 118.733167 
L 129.45977 116.071151 
L 125.849871 113.630057 
L 122.062594 111.428549 
L 118.115087 109.483733 
L 114.026449 107.810929 
L 109.817493 106.423459 
L 105.510492 105.332471 
L 101.128904 104.546789 
L 96.697086 104.072802 
L 92.24 103.914375 
L 87.782914 104.072802 
L 83.351096 104.546789 
L 78.969508 105.332471 
L 74.662507 106.423459 
L 70.453551 107.810929 
L 66.364913 109.483733 
L 62.417406 111.428549 
L 58.630129 113.630057 
L 55.02023 116.071151 
L 51.602685 118.733167 
L 48.39011 121.596153 
L 45.3926 124.639148 
L 42.617595 127.840495 
L 40.069787 131.178171 
L 37.751072 134.630134 
L 35.660534 138.174683 
L 33.794504 141.790833 
L 32.146653 145.45869 
L 30.708176 149.159829 
L 29.468028 152.877647 
L 28.413251 156.59771 
L 27.27008 161.540968 
L 26.393766 166.446386 
L 25.746644 171.302221 
L 25.205942 177.299149 
L 24.908906 183.228355 
L 24.815764 189.119062 
L 24.911488 195.009544 
L 25.208101 200.938595 
L 25.743106 206.936851 
L 26.381137 211.796087 
L 27.244429 216.708046 
L 28.371302 221.66179 
L 29.412333 225.392633 
L 30.638035 229.123846 
L 32.061956 232.840971 
L 33.695735 236.527274 
L 35.548747 240.164096 
L 37.627836 243.731226 
L 39.937123 247.207293 
L 42.477883 250.570159 
L 45.248501 253.797312 
L 48.244466 256.866244 
L 51.458432 259.754811 
L 54.880313 262.441577 
L 58.497421 264.906136 
L 62.294636 267.129402 
L 66.254605 269.093884 
L 70.357967 270.783922 
L 74.583598 272.185901 
L 78.908882 273.288429 
L 83.309984 274.082491 
L 87.762148 274.561561 
L 92.24 274.721692 
L 96.717852 274.561561 
L 101.170016 274.082491 
L 105.571118 273.288429 
L 109.896402 272.185901 
L 114.122033 270.783922 
L 118.225395 269.093884 
L 122.185364 267.129402 
L 125.982579 264.906136 
L 129.599687 262.441577 
L 133.021568 259.754811 
L 136.235534 256.866244 
L 139.231499 253.797312 
L 142.002117 250.570159 
L 144.542877 247.207293 
L 146.852164 243.731226 
L 148.931253 240.164096 
L 150.784265 236.527274 
L 152.418044 232.840971 
L 153.841965 229.123846 
L 155.067667 225.392633 
L 156.108698 221.66179 
L 157.235571 216.708046 
L 158.098863 211.796087 
L 158.736894 206.936851 
L 159.271899 200.938595 
L 159.568512 195.009544 
L 159.660194 190.295886 
L 159.660194 190.295886 
" style="fill:none;stroke:#984ea3;stroke-linecap:square;"/>
   </g>
   <g id="line2d_25">
    <path clip-path="url(#p6fe34ed2c6)" d="M 170.90159 189.119062 
L 171.06925 178.040334 
L 171.200734 167.961598 
L 171.086736 161.969954 
L 170.711876 155.809727 
L 170.202864 151.094033 
L 169.459195 146.315764 
L 168.450724 141.497317 
L 167.152679 136.66464 
L 165.545796 131.846298 
L 163.61623 127.072653 
L 162.146111 123.93056 
L 160.527298 120.831764 
L 158.759385 117.785756 
L 156.842847 114.801988 
L 154.779002 111.889826 
L 152.569968 109.058491 
L 150.218618 106.317014 
L 147.728543 103.674199 
L 145.10401 101.138575 
L 142.349926 98.718362 
L 139.471797 96.421441 
L 136.475692 94.255314 
L 133.368207 92.22708 
L 130.156424 90.343401 
L 126.847879 88.610484 
L 123.450521 87.034047 
L 119.972677 85.619304 
L 116.423009 84.370943 
L 112.810482 83.293105 
L 109.144323 82.38937 
L 105.433977 81.662745 
L 101.689075 81.115647 
L 97.919387 80.749898 
L 94.134788 80.566719 
L 90.345212 80.566719 
L 86.560613 80.749898 
L 82.790925 81.115647 
L 79.046023 81.662745 
L 75.335677 82.38937 
L 71.669518 83.293105 
L 68.056991 84.370943 
L 64.507323 85.619304 
L 61.029479 87.034047 
L 57.632121 88.610484 
L 54.323576 90.343401 
L 51.111793 92.22708 
L 48.004308 94.255314 
L 45.008203 96.421441 
L 42.130074 98.718362 
L 39.37599 101.138575 
L 36.751457 103.674199 
L 34.261382 106.317014 
L 31.910032 109.058491 
L 29.700998 111.889826 
L 27.637153 114.801988 
L 25.720615 117.785756 
L 23.952702 120.831764 
L 22.333889 123.93056 
L 20.86377 127.072653 
L 18.934204 131.846298 
L 17.327321 136.66464 
L 16.029276 141.497317 
L 15.020805 146.315764 
L 14.277136 151.094033 
L 13.768124 155.809727 
L 13.458709 160.445017 
L 13.288724 166.480148 
L 13.326823 173.779895 
L 13.570904 193.241935 
L 13.444752 214.72119 
L 13.73565 220.836879 
L 14.16013 225.528304 
L 14.80377 230.292636 
L 15.699789 235.109061 
L 16.876116 239.952644 
L 18.355078 244.795345 
L 20.153381 249.606918 
L 21.535429 252.781744 
L 23.066547 255.91909 
L 24.747785 259.009297 
L 26.579254 262.042709 
L 28.56017 265.009728 
L 30.6889 267.900878 
L 32.963003 270.706849 
L 35.379279 273.418548 
L 37.933807 276.027138 
L 40.621989 278.524081 
L 43.438586 280.901173 
L 46.377765 283.150579 
L 49.433133 285.264861 
L 52.597775 287.237013 
L 55.864297 289.060484 
L 59.224863 290.729207 
L 62.67123 292.237619 
L 66.194792 293.580684 
L 69.786619 294.753914 
L 73.437493 295.753381 
L 77.137949 296.575738 
L 80.87832 297.218228 
L 84.648771 297.678696 
L 88.439344 297.955597 
L 92.24 298.048 
L 96.040656 297.955597 
L 99.831229 297.678696 
L 103.60168 297.218228 
L 107.342051 296.575738 
L 111.042507 295.753381 
L 114.693381 294.753914 
L 118.285208 293.580684 
L 121.80877 292.237619 
L 125.255137 290.729207 
L 128.615703 289.060484 
L 131.882225 287.237013 
L 135.046867 285.264861 
L 138.102235 283.150579 
L 141.041414 280.901173 
L 143.858011 278.524081 
L 146.546193 276.027138 
L 149.100721 273.418548 
L 151.516997 270.706849 
L 153.7911 267.900878 
L 155.91983 265.009728 
L 157.900746 262.042709 
L 159.732215 259.009297 
L 161.413453 255.91909 
L 162.944571 252.781744 
L 164.96234 248.008452 
L 166.652681 243.18304 
L 168.028633 238.336776 
L 169.108764 233.499264 
L 169.917283 228.697615 
L 170.483933 223.955506 
L 170.843562 219.292143 
L 171.069014 213.219511 
L 171.083032 205.877666 
L 170.89922 190.492064 
L 170.89922 190.492064 
" style="fill:none;stroke:#ff7f00;stroke-linecap:square;"/>
   </g>
   <g id="line2d_26">
    <path clip-path="url(#p6fe34ed2c6)" d="M 189.771077 189.119062 
L 189.922265 183.999752 
L 190.423403 177.063657 
L 192.236397 156.628264 
L 192.427941 150.660515 
L 192.339009 144.552112 
L 192.094049 140.416989 
L 191.683575 136.243976 
L 191.095888 132.044589 
L 190.321612 127.830869 
L 189.35349 123.615187 
L 188.18617 119.410089 
L 186.816012 115.228184 
L 185.2409 111.082042 
L 183.460091 106.984124 
L 181.474069 102.946723 
L 179.28443 98.981916 
L 176.893774 95.101522 
L 174.305617 91.317069 
L 171.524317 87.639765 
L 168.555007 84.080467 
L 165.403537 80.649658 
L 162.076424 77.357422 
L 158.580806 74.213416 
L 154.9244 71.226852 
L 151.115464 68.406473 
L 147.162758 65.760529 
L 143.075511 63.296758 
L 138.863386 61.022362 
L 134.536444 58.943992 
L 130.105112 57.067725 
L 125.580143 55.399051 
L 120.972591 53.942852 
L 116.293764 52.70339 
L 111.555197 51.684294 
L 106.768612 50.888551 
L 101.945881 50.318491 
L 97.09899 49.975785 
L 92.24 49.861438 
L 87.38101 49.975785 
L 82.534119 50.318491 
L 77.711388 50.888551 
L 72.924803 51.684294 
L 68.186236 52.70339 
L 63.507409 53.942852 
L 58.899857 55.399051 
L 54.374888 57.067725 
L 49.943556 58.943992 
L 45.616614 61.022362 
L 41.404489 63.296758 
L 37.317242 65.760529 
L 33.364536 68.406473 
L 29.5556 71.226852 
L 25.899194 74.213416 
L 22.403576 77.357422 
L 19.076463 80.649658 
L 15.924993 84.080467 
L 12.955683 87.639765 
L 10.174383 91.317069 
L 7.586226 95.101522 
L 5.19557 98.981916 
L 3.005931 102.946723 
L 1.019909 106.984124 
L -1 111.689991 
M -1 266.458521 
L 0.114432 269.202597 
L 1.975394 273.29217 
L 4.042785 277.316278 
L 6.314653 281.262716 
L 8.78804 285.119561 
L 11.459066 288.875208 
L 14.323013 292.518397 
L 17.374383 296.038243 
L 20.606966 299.424261 
L 24.013883 302.66639 
L 27.587636 305.755015 
L 31.320152 308.680995 
L 35.202824 311.43568 
L 39.226545 314.010935 
L 43.381748 316.39916 
L 47.658441 318.59331 
L 52.046244 320.586916 
L 56.534421 322.374099 
L 61.11192 323.949591 
L 65.767407 325.308745 
L 70.489304 326.447554 
L 75.265821 327.362658 
L 80.084999 328.05136 
L 84.934745 328.511626 
L 89.802871 328.742099 
L 94.677129 328.742099 
L 99.545255 328.511626 
L 104.395001 328.05136 
L 109.214179 327.362658 
L 113.990696 326.447554 
L 118.712593 325.308745 
L 123.36808 323.949591 
L 127.945579 322.374099 
L 132.433756 320.586916 
L 136.821559 318.59331 
L 141.098252 316.39916 
L 145.253455 314.010935 
L 149.277176 311.43568 
L 153.159848 308.680995 
L 156.892364 305.755015 
L 160.466117 302.66639 
L 163.873034 299.424261 
L 167.105617 296.038243 
L 170.156987 292.518397 
L 173.020934 288.875208 
L 175.69196 285.119561 
L 178.165347 281.262716 
L 180.437215 277.316278 
L 182.504606 273.29217 
L 184.365568 269.202597 
L 186.019258 265.060008 
L 187.466066 260.87705 
L 188.707752 256.66651 
L 189.747603 252.441241 
L 190.590618 248.214076 
L 191.243701 243.99771 
L 191.715872 239.804551 
L 192.018487 235.646535 
L 192.185591 229.499703 
L 192.061339 223.490306 
L 191.71783 217.643871 
L 190.891296 208.294932 
L 190.118563 199.406514 
L 189.841459 194.234138 
L 189.769864 190.821453 
L 189.769864 190.821453 
" style="fill:none;stroke:#a65628;stroke-linecap:square;"/>
   </g>
   <g id="patch_3">
    <path d="M 92.24 352.199062 
C 135.474917 352.199062 176.983271 335.00574 207.554974 304.434036 
C 238.126677 273.862333 255.32 232.35398 255.32 189.119062 
C 255.32 145.884145 238.126677 104.375792 207.554974 73.804089 
C 176.983271 43.232385 135.474917 26.039062 92.24 26.039062 
" style="fill:none;stroke:#000000;stroke-linecap:square;stroke-linejoin:miter;stroke-width:0.8;"/>
   </g>
   <g id="patch_4">
    <path d="M 92.24 189.119062 
L 92.24 352.199062 
" style="fill:none;stroke:#000000;stroke-linecap:square;stroke-linejoin:miter;stroke-width:0.8;"/>
   </g>
   <g id="patch_5">
    <path d="M 92.24 189.119062 
L 92.24 26.039062 
" style="fill:none;stroke:#000000;stroke-linecap:square;stroke-linejoin:miter;stroke-width:0.8;"/>
   </g>
   <g id="legend_1">
    <g id="patch_6">
     <path d="M 301.654125 241.9925 
L 362.476 241.9925 
Q 364.476 241.9925 364.476 239.9925 
L 364.476 138.245625 
Q 364.476 136.245625 362.476 136.245625 
L 301.654125 136.245625 
Q 299.654125 136.245625 299.654125 138.245625 
L 299.654125 239.9925 
Q 299.654125 241.9925 301.654125 241.9925 
z
" style="fill:#ffffff;opacity:0.8;stroke:#cccccc;stroke-linejoin:miter;"/>
    </g>
    <g id="text_21">
     <!-- Height -->
     <defs>
      <path d="M 9.8125 72.90625 
L 19.671875 72.90625 
L 19.671875 43.015625 
L 55.515625 43.015625 
L 55.515625 72.90625 
L 65.375 72.90625 
L 65.375 0 
L 55.515625 0 
L 55.515625 34.71875 
L 19.671875 34.71875 
L 19.671875 0 
L 9.8125 0 
z
" id="DejaVuSans-48"/>
      <path d="M 56.203125 29.59375 
L 56.203125 25.203125 
L 14.890625 25.203125 
Q 15.484375 15.921875 20.484375 11.0625 
Q 25.484375 6.203125 34.421875 6.203125 
Q 39.59375 6.203125 44.453125 7.46875 
Q 49.3125 8.734375 54.109375 11.28125 
L 54.109375 2.78125 
Q 49.265625 0.734375 44.1875 -0.34375 
Q 39.109375 -1.421875 33.890625 -1.421875 
Q 20.796875 -1.421875 13.15625 6.1875 
Q 5.515625 13.8125 5.515625 26.8125 
Q 5.515625 40.234375 12.765625 48.109375 
Q 20.015625 56 32.328125 56 
Q 43.359375 56 49.78125 48.890625 
Q 56.203125 41.796875 56.203125 29.59375 
z
M 47.21875 32.234375 
Q 47.125 39.59375 43.09375 43.984375 
Q 39.0625 48.390625 32.421875 48.390625 
Q 24.90625 48.390625 20.390625 44.140625 
Q 15.875 39.890625 15.1875 32.171875 
z
" id="DejaVuSans-65"/>
      <path d="M 9.421875 54.6875 
L 18.40625 54.6875 
L 18.40625 0 
L 9.421875 0 
z
M 9.421875 75.984375 
L 18.40625 75.984375 
L 18.40625 64.59375 
L 9.421875 64.59375 
z
" id="DejaVuSans-69"/>
      <path d="M 45.40625 27.984375 
Q 45.40625 37.75 41.375 43.109375 
Q 37.359375 48.484375 30.078125 48.484375 
Q 22.859375 48.484375 18.828125 43.109375 
Q 14.796875 37.75 14.796875 27.984375 
Q 14.796875 18.265625 18.828125 12.890625 
Q 22.859375 7.515625 30.078125 7.515625 
Q 37.359375 7.515625 41.375 12.890625 
Q 45.40625 18.265625 45.40625 27.984375 
z
M 54.390625 6.78125 
Q 54.390625 -7.171875 48.1875 -13.984375 
Q 42 -20.796875 29.203125 -20.796875 
Q 24.46875 -20.796875 20.265625 -20.09375 
Q 16.0625 -19.390625 12.109375 -17.921875 
L 12.109375 -9.1875 
Q 16.0625 -11.328125 19.921875 -12.34375 
Q 23.78125 -13.375 27.78125 -13.375 
Q 36.625 -13.375 41.015625 -8.765625 
Q 45.40625 -4.15625 45.40625 5.171875 
L 45.40625 9.625 
Q 42.625 4.78125 38.28125 2.390625 
Q 33.9375 0 27.875 0 
Q 17.828125 0 11.671875 7.65625 
Q 5.515625 15.328125 5.515625 27.984375 
Q 5.515625 40.671875 11.671875 48.328125 
Q 17.828125 56 27.875 56 
Q 33.9375 56 38.28125 53.609375 
Q 42.625 51.21875 45.40625 46.390625 
L 45.40625 54.6875 
L 54.390625 54.6875 
z
" id="DejaVuSans-67"/>
      <path d="M 54.890625 33.015625 
L 54.890625 0 
L 45.90625 0 
L 45.90625 32.71875 
Q 45.90625 40.484375 42.875 44.328125 
Q 39.84375 48.1875 33.796875 48.1875 
Q 26.515625 48.1875 22.3125 43.546875 
Q 18.109375 38.921875 18.109375 30.90625 
L 18.109375 0 
L 9.078125 0 
L 9.078125 75.984375 
L 18.109375 75.984375 
L 18.109375 46.1875 
Q 21.34375 51.125 25.703125 53.5625 
Q 30.078125 56 35.796875 56 
Q 45.21875 56 50.046875 50.171875 
Q 54.890625 44.34375 54.890625 33.015625 
z
" id="DejaVuSans-68"/>
      <path d="M 18.3125 70.21875 
L 18.3125 54.6875 
L 36.8125 54.6875 
L 36.8125 47.703125 
L 18.3125 47.703125 
L 18.3125 18.015625 
Q 18.3125 11.328125 20.140625 9.421875 
Q 21.96875 7.515625 27.59375 7.515625 
L 36.8125 7.515625 
L 36.8125 0 
L 27.59375 0 
Q 17.1875 0 13.234375 3.875 
Q 9.28125 7.765625 9.28125 18.015625 
L 9.28125 47.703125 
L 2.6875 47.703125 
L 2.6875 54.6875 
L 9.28125 54.6875 
L 9.28125 70.21875 
z
" id="DejaVuSans-74"/>
     </defs>
     <g transform="translate(315.536156 147.844062)scale(0.1 -0.1)">
      <use xlink:href="#DejaVuSans-48"/>
      <use x="75.195312" xlink:href="#DejaVuSans-65"/>
      <use x="136.71875" xlink:href="#DejaVuSans-69"/>
      <use x="164.501953" xlink:href="#DejaVuSans-67"/>
      <use x="227.978516" xlink:href="#DejaVuSans-68"/>
      <use x="291.357422" xlink:href="#DejaVuSans-74"/>
     </g>
    </g>
    <g id="line2d_27">
     <path d="M 303.654125 159.022187 
L 323.654125 159.022187 
" style="fill:none;stroke:#e41a1c;stroke-linecap:square;"/>
    </g>
    <g id="line2d_28"/>
    <g id="text_22">
     <!-- 0.5 m -->
     <defs>
      <path d="M 10.6875 12.40625 
L 21 12.40625 
L 21 0 
L 10.6875 0 
z
" id="DejaVuSans-2e"/>
      <path id="DejaVuSans-20"/>
      <path d="M 52 44.1875 
Q 55.375 50.25 60.0625 53.125 
Q 64.75 56 71.09375 56 
Q 79.640625 56 84.28125 50.015625 
Q 88.921875 44.046875 88.921875 33.015625 
L 88.921875 0 
L 79.890625 0 
L 79.890625 32.71875 
Q 79.890625 40.578125 77.09375 44.375 
Q 74.3125 48.1875 68.609375 48.1875 
Q 61.625 48.1875 57.5625 43.546875 
Q 53.515625 38.921875 53.515625 30.90625 
L 53.515625 0 
L 44.484375 0 
L 44.484375 32.71875 
Q 44.484375 40.625 41.703125 44.40625 
Q 38.921875 48.1875 33.109375 48.1875 
Q 26.21875 48.1875 22.15625 43.53125 
Q 18.109375 38.875 18.109375 30.90625 
L 18.109375 0 
L 9.078125 0 
L 9.078125 54.6875 
L 18.109375 54.6875 
L 18.109375 46.1875 
Q 21.1875 51.21875 25.484375 53.609375 
Q 29.78125 56 35.6875 56 
Q 41.65625 56 45.828125 52.96875 
Q 50 49.953125 52 44.1875 
z
" id="DejaVuSans-6d"/>
     </defs>
     <g transform="translate(331.654125 162.522187)scale(0.1 -0.1)">
      <use xlink:href="#DejaVuSans-30"/>
      <use x="63.623047" xlink:href="#DejaVuSans-2e"/>
      <use x="95.410156" xlink:href="#DejaVuSans-35"/>
      <use x="159.033203" xlink:href="#DejaVuSans-20"/>
      <use x="190.820312" xlink:href="#DejaVuSans-6d"/>
     </g>
    </g>
    <g id="line2d_29">
     <path d="M 303.654125 173.700312 
L 323.654125 173.700312 
" style="fill:none;stroke:#377eb8;stroke-linecap:square;"/>
    </g>
    <g id="line2d_30"/>
    <g id="text_23">
     <!-- 1.0 m -->
     <g transform="translate(331.654125 177.200312)scale(0.1 -0.1)">
      <use xlink:href="#DejaVuSans-31"/>
      <use x="63.623047" xlink:href="#DejaVuSans-2e"/>
      <use x="95.410156" xlink:href="#DejaVuSans-30"/>
      <use x="159.033203" xlink:href="#DejaVuSans-20"/>
      <use x="190.820312" xlink:href="#DejaVuSans-6d"/>
     </g>
    </g>
    <g id="line2d_31">
     <path d="M 303.654125 188.378437 
L 323.654125 188.378437 
" style="fill:none;stroke:#4daf4a;stroke-linecap:square;"/>
    </g>
    <g id="line2d_32"/>
    <g id="text_24">
     <!-- 1.5 m -->
     <g transform="translate(331.654125 191.878437)scale(0.1 -0.1)">
      <use xlink:href="#DejaVuSans-31"/>
      <use x="63.623047" xlink:href="#DejaVuSans-2e"/>
      <use x="95.410156" xlink:href="#DejaVuSans-35"/>
      <use x="159.033203" xlink:href="#DejaVuSans-20"/>
      <use x="190.820312" xlink:href="#DejaVuSans-6d"/>
     </g>
    </g>
    <g id="line2d_33">
     <path d="M 303.654125 203.056562 
L 323.654125 203.056562 
" style="fill:none;stroke:#984ea3;stroke-linecap:square;"/>
    </g>
    <g id="line2d_34"/>
    <g id="text_25">
     <!-- 2.0 m -->
     <g transform="translate(331.654125 206.556562)scale(0.1 -0.1)">
      <use xlink:href="#DejaVuSans-32"/>
      <use x="63.623047" xlink:href="#DejaVuSans-2e"/>
      <use x="95.410156" xlink:href="#DejaVuSans-30"/>
      <use x="159.033203" xlink:href="#DejaVuSans-20"/>
      <use x="190.820312" xlink:href="#DejaVuSans-6d"/>
     </g>
    </g>
    <g id="line2d_35">
     <path d="M 303.654125 217.734687 
L 323.654125 217.734687 
" style="fill:none;stroke:#ff7f00;stroke-linecap:square;"/>
    </g>
    <g id="line2d_36"/>
    <g id="text_26">
     <!-- 2.5 m -->
     <g transform="translate(331.654125 221.234687)scale(0.1 -0.1)">
      <use xlink:href="#DejaVuSans-32"/>
      <use x="63.623047" xlink:href="#DejaVuSans-2e"/>
      <use x="95.410156" xlink:href="#DejaVuSans-35"/>
      <use x="159.033203" xlink:href="#DejaVuSans-20"/>
      <use x="190.820312" xlink:href="#DejaVuSans-6d"/>
     </g>
    </g>
    <g id="line2d_37">
     <path d="M 303.654125 232.412812 
L 323.654125 232.412812 
" style="fill:none;stroke:#a65628;stroke-linecap:square;"/>
    </g>
    <g id="line2d_38"/>
    <g id="text_27">
     <!-- 3.0 m -->
     <g transform="translate(331.654125 235.912812)scale(0.1 -0.1)">
      <use xlink:href="#DejaVuSans-33"/>
      <use x="63.623047" xlink:href="#DejaVuSans-2e"/>
      <use x="95.410156" xlink:href="#DejaVuSans-30"/>
      <use x="159.033203" xlink:href="#DejaVuSans-20"/>
      <use x="190.820312" xlink:href="#DejaVuSans-6d"/>
     </g>
    </g>
   </g>
  </g>
 </g>
 <defs>
  <clipPath id="p6fe34ed2c6">
   <path d="M 92.24 352.199062 
C 135.474917 352.199062 176.983271 335.00574 207.554974 304.434036 
C 238.126677 273.862333 255.32 232.35398 255.32 189.119062 
C 255.32 145.884145 238.126677 104.375792 207.554974 73.804089 
C 176.983271 43.232385 135.474917 26.039062 92.24 26.039062 
L 92.24 189.119062 
C 92.24 189.119062 92.24 189.119062 92.24 189.119062 
C 92.24 189.119062 92.24 189.119062 92.24 189.119062 
C 92.24 189.119062 92.24 189.119062 92.24 189.119062 
C 92.24 189.119062 92.24 189.119062 92.24 189.119062 
L 92.24 352.199062 
z
"/>
  </clipPath>
 </defs>
</svg>
